{"glyphs":{"0":{"ha":879,"x_min":-1,"x_max":826,"o":"m 506 1244 q 685 1175 615 1240 q 789 1008 754 1110 q 825 776 824 906 q 801 515 826 647 q 726 257 776 382 q 607 36 676 132 q 451 -115 538 -60 q 265 -161 364 -169 q 111 -106 169 -153 q 26 13 53 -60 q -1 178 -1 86 q 22 369 0 271 q 84 567 44 468 q 174 754 124 667 q 285 910 225 842 q 406 1017 344 979 q 526 1053 467 1054 q 636 1003 585 1053 q 678 906 678 963 q 658 792 679 850 q 601 681 636 733 q 538 594 567 628 q 492 565 515 568 q 447 575 468 563 q 410 610 426 588 q 388 656 394 632 q 428 690 401 669 q 483 737 454 711 q 540 792 513 763 q 585 849 568 821 q 602 905 601 878 q 579 956 603 932 q 502 964 547 986 q 408 883 457 942 q 312 740 360 825 q 227 563 264 656 q 168 377 190 469 q 149 211 146 285 q 185 92 153 138 q 289 46 217 46 q 428 91 364 46 q 542 211 492 136 q 628 381 593 286 q 683 576 664 476 q 701 774 701 676 q 681 947 701 871 q 615 1073 660 1024 q 501 1126 571 1122 q 440 1115 469 1128 q 384 1081 410 1103 q 338 1032 358 1060 q 303 976 317 1004 q 224 1052 243 1017 q 213 1118 204 1088 q 252 1173 221 1149 q 326 1214 283 1197 q 416 1238 368 1231 q 506 1244 464 1246 z "},"1":{"ha":813,"x_min":-11,"x_max":1032,"o":"m 14 800 q 142 770 76 758 q 274 824 207 782 q 408 930 340 867 q 544 1055 476 993 q 676 1165 611 1117 q 803 1228 742 1214 q 923 1213 865 1243 q 1032 1083 981 1182 q 956 1113 1001 1121 q 856 1061 910 1104 q 742 946 801 1018 q 623 785 682 874 q 509 598 564 697 q 410 401 454 499 q 336 214 367 304 q 295 53 306 124 q 297 -64 285 -18 q 353 -118 310 -110 q 253 -160 296 -162 q 170 -119 197 -158 q 140 -12 143 -79 q 155 144 136 54 q 209 333 174 233 q 295 540 244 433 q 406 747 346 646 q 536 937 467 847 q 678 1094 606 1026 q 578 1005 624 1056 q 488 901 532 954 q 402 798 444 849 q 314 708 360 747 q 217 644 268 668 q 106 619 167 619 q 10 664 31 619 q 14 800 -11 708 z "},"2":{"ha":1157,"x_min":-3,"x_max":1169,"o":"m 967 1244 q 1043 1233 1006 1244 q 1109 1196 1081 1221 q 1153 1133 1138 1171 q 1168 1044 1169 1096 q 1106 851 1164 939 q 960 684 1049 763 q 763 532 871 606 q 548 382 654 458 q 351 223 442 306 q 206 43 260 140 q 337 44 275 56 q 456 13 399 32 q 566 -25 513 -7 q 672 -44 619 -43 q 779 -20 725 -44 q 893 71 833 4 q 961 -46 958 3 q 897 -131 964 -94 q 801 -163 846 -158 q 713 -159 756 -168 q 629 -132 669 -150 q 547 -97 589 -114 q 461 -69 506 -81 q 368 -60 417 -57 q 265 -87 319 -64 q 147 -161 211 -110 q 71 -164 104 -167 q 20 -153 43 -161 q 0 -122 -3 -146 q 56 87 8 -8 q 177 264 104 182 q 342 417 250 346 q 528 553 433 488 q 712 681 622 618 q 872 807 801 743 q 986 940 943 871 q 1032 1088 1029 1008 q 1017 1142 1033 1126 q 974 1156 1000 1157 q 882 1130 922 1154 q 806 1069 842 1106 q 735 992 769 1033 q 660 915 700 950 q 570 856 619 879 q 457 832 521 832 q 362 876 382 832 q 367 1013 342 921 q 505 985 447 981 q 608 1016 563 990 q 691 1081 653 1042 q 769 1156 729 1119 q 856 1218 808 1192 q 967 1244 903 1244 z "},"3":{"ha":1086,"x_min":-3,"x_max":1032,"o":"m 1031 1056 q 1007 940 1032 990 q 940 851 982 889 q 843 784 897 813 q 732 734 789 756 q 620 695 675 713 q 522 663 565 678 q 672 590 611 639 q 769 478 733 542 q 815 343 804 415 q 811 199 825 271 q 760 63 797 128 q 665 -53 724 -3 q 525 -132 606 -103 q 344 -160 444 -161 q 190 -127 254 -160 q 84 -42 125 -94 q 23 78 43 11 q 0 216 3 146 q 10 353 -3 286 q 46 474 22 421 q 102 560 69 528 q 172 594 135 593 q 293 504 228 596 q 190 411 231 469 q 131 287 149 353 q 118 154 114 221 q 149 33 122 88 q 225 -56 176 -21 q 344 -90 274 -90 q 474 -62 417 -90 q 574 12 532 -35 q 640 119 615 58 q 672 243 665 179 q 668 369 679 307 q 626 483 657 432 q 546 568 596 533 q 425 611 496 603 q 408 617 419 613 q 389 631 397 622 q 380 650 381 639 q 396 675 379 661 q 466 713 419 696 q 567 749 513 729 q 680 792 622 768 q 785 852 738 817 q 861 935 832 888 q 889 1051 890 983 q 875 1126 888 1100 q 828 1153 863 1151 q 773 1131 800 1153 q 717 1076 746 1108 q 655 1005 688 1043 q 582 934 622 967 q 494 879 542 901 q 388 857 446 857 q 292 901 313 857 q 296 1038 271 946 q 431 1010 374 1007 q 531 1035 488 1013 q 608 1094 574 1058 q 676 1163 642 1129 q 747 1221 710 1197 q 833 1246 783 1244 q 908 1231 872 1246 q 970 1190 943 1217 q 1014 1129 997 1164 q 1031 1056 1031 1094 z "},"4":{"ha":1157,"x_min":-8,"x_max":929,"o":"m 882 519 q 910 510 896 518 q 922 486 924 503 q 909 485 915 486 q 896 483 903 485 q 774 478 842 478 q 635 474 707 479 q 551 277 589 378 q 495 92 513 176 q 488 -51 478 7 q 549 -118 497 -108 q 447 -160 493 -161 q 376 -133 401 -160 q 342 -62 351 -107 q 339 43 333 -17 q 360 172 344 103 q 402 315 376 240 q 458 461 428 389 q 288 449 369 454 q 144 440 207 443 q 7 433 71 435 q 4 503 -8 456 q 49 613 17 550 q 128 747 81 675 q 233 890 176 818 q 349 1027 289 961 q 467 1143 410 1093 q 576 1221 525 1193 q 664 1246 628 1249 q 728 1198 715 1240 q 724 1083 740 1156 q 663 1108 700 1113 q 581 1070 626 1103 q 485 983 536 1038 q 383 862 435 929 q 279 717 331 794 q 183 563 228 640 q 325 549 244 553 q 496 542 406 544 q 609 749 550 658 q 717 879 668 840 q 844 919 786 935 q 929 815 901 903 q 829 800 875 835 q 759 706 803 776 q 667 539 715 635 q 780 530 725 538 q 882 519 835 522 z "},"5":{"ha":994,"x_min":-4,"x_max":954,"o":"m 899 1210 q 951 1085 954 1135 q 876 1008 947 1036 q 788 993 826 989 q 714 1016 750 997 q 639 1063 678 1035 q 549 1121 600 1092 q 494 1077 518 1113 q 453 996 471 1042 q 424 903 435 950 q 411 825 414 856 q 408 714 403 760 q 429 636 414 668 q 467 583 444 604 q 517 544 490 561 q 603 500 558 519 q 685 447 649 481 q 743 357 722 414 q 757 200 764 300 q 710 46 750 114 q 610 -69 671 -22 q 474 -140 549 -115 q 322 -164 399 -164 q 160 -131 225 -162 q 58 -49 96 -100 q 8 68 21 3 q 1 201 -4 133 q 28 335 7 269 q 81 451 50 400 q 149 535 111 503 q 224 568 186 567 q 346 478 281 569 q 239 390 288 444 q 160 274 190 336 q 117 147 129 211 q 120 31 106 83 q 177 -55 135 -21 q 296 -90 219 -89 q 406 -72 350 -92 q 506 -12 461 -51 q 581 87 551 28 q 614 222 611 146 q 608 333 617 288 q 583 411 600 379 q 541 463 565 443 q 490 499 517 483 q 399 540 446 522 q 315 593 351 558 q 260 691 278 628 q 256 868 242 754 q 269 936 258 897 q 297 1017 281 975 q 337 1099 314 1058 q 388 1172 360 1140 q 448 1224 415 1204 q 517 1246 481 1244 q 552 1229 533 1246 q 594 1192 571 1213 q 648 1152 618 1171 q 715 1129 678 1133 q 797 1142 751 1125 q 899 1210 842 1158 z "},"6":{"ha":826,"x_min":-6,"x_max":807,"o":"m 644 1247 q 770 1199 733 1249 q 779 1061 807 1149 q 686 1107 743 1110 q 552 1048 618 1106 q 426 901 486 990 q 316 700 367 811 q 228 480 265 589 q 171 276 192 371 q 150 124 150 182 q 178 203 160 153 q 223 310 197 253 q 279 427 249 368 q 344 533 310 486 q 417 609 379 581 q 493 635 454 638 q 554 595 533 632 q 579 502 575 558 q 572 374 583 446 q 535 227 560 301 q 472 82 510 153 q 388 -44 435 11 q 284 -134 340 -100 q 164 -168 228 -168 q 58 -129 96 -168 q 8 -23 21 -90 q 3 135 -6 44 q 39 327 13 225 q 106 537 65 429 q 196 747 146 644 q 303 940 246 849 q 418 1099 360 1031 q 534 1207 476 1167 q 644 1247 592 1247 m 163 63 q 158 38 157 51 q 170 12 160 24 q 199 -7 181 0 q 246 -11 218 -14 q 308 24 278 -7 q 362 99 338 54 q 404 197 386 144 q 430 294 422 249 q 433 374 438 340 q 411 414 429 407 q 366 402 390 421 q 316 349 342 383 q 265 272 290 315 q 219 188 240 229 q 183 112 199 146 q 163 63 168 78 z "},"7":{"ha":1006,"x_min":-1,"x_max":967,"o":"m 890 1246 q 954 1201 942 1246 q 950 1083 967 1156 q 863 1110 915 1126 q 747 1038 810 1094 q 616 891 685 981 q 483 696 547 801 q 549 700 519 699 q 601 703 579 701 q 649 706 626 704 q 656 679 656 696 q 653 644 657 663 q 640 608 649 626 q 622 576 632 590 q 569 608 619 597 q 442 624 518 618 q 353 455 394 540 q 281 290 313 369 q 231 139 250 210 q 208 13 211 68 q 219 -76 204 -42 q 271 -118 233 -111 q 169 -160 215 -161 q 92 -126 119 -158 q 59 -38 65 -94 q 64 94 53 18 q 102 258 75 171 q 169 440 129 346 q 258 629 208 535 q 136 632 196 631 q 28 636 76 633 q 8 642 18 636 q 0 660 -1 647 q 9 660 4 660 q 18 661 14 661 q 142 673 72 668 q 288 683 213 678 q 435 914 356 806 q 603 1101 515 1022 q 486 1065 543 1082 q 374 1041 429 1047 q 268 1043 319 1035 q 169 1081 217 1051 q 113 1170 107 1121 q 189 1282 119 1219 q 290 1190 236 1218 q 403 1158 344 1163 q 523 1167 461 1154 q 647 1197 585 1179 q 770 1229 708 1214 q 890 1246 832 1244 z "},"8":{"ha":1157,"x_min":143,"x_max":961,"o":"m 686 622 q 761 556 725 592 q 824 475 797 519 q 862 377 850 431 q 864 261 874 324 q 808 102 849 169 q 710 -8 768 35 q 584 -69 653 -51 q 443 -76 515 -86 q 289 -22 353 -64 q 190 81 225 21 q 149 214 154 142 q 170 357 143 286 q 258 492 197 428 q 415 600 318 556 q 318 759 344 678 q 299 915 292 840 q 344 1055 307 990 q 439 1165 382 1119 q 568 1231 496 1210 q 718 1243 640 1253 q 853 1194 799 1232 q 934 1101 907 1156 q 960 981 961 1046 q 928 850 958 915 q 837 725 897 785 q 686 622 776 665 m 656 1175 q 524 1165 576 1186 q 445 1101 471 1143 q 419 1003 419 1060 q 443 886 418 947 q 517 766 468 825 q 640 661 567 707 q 761 726 713 682 q 835 824 810 771 q 861 936 860 878 q 840 1044 863 994 q 772 1130 818 1094 q 656 1175 725 1165 m 761 196 q 744 323 774 269 q 667 417 715 376 q 563 490 619 457 q 463 558 506 524 q 340 483 388 533 q 272 369 293 432 q 254 238 250 306 q 286 112 258 169 q 365 13 314 54 q 489 -39 417 -29 q 580 -31 535 -46 q 663 15 625 -17 q 726 92 700 46 q 761 196 753 139 z "},"9":{"ha":897,"x_min":-17,"x_max":829,"o":"m 146 -168 q 20 -119 57 -169 q 11 19 -17 -69 q 53 -17 29 -6 q 104 -28 76 -28 q 238 31 172 -26 q 364 178 304 89 q 474 379 424 268 q 562 599 525 490 q 619 803 599 708 q 640 956 640 897 q 611 876 629 926 q 567 769 593 826 q 511 652 542 711 q 446 546 481 593 q 374 470 411 499 q 297 444 336 442 q 236 484 257 447 q 211 577 215 521 q 219 706 207 633 q 256 852 231 778 q 318 997 281 926 q 403 1124 356 1068 q 506 1213 450 1179 q 626 1247 563 1247 q 751 1208 706 1247 q 813 1102 796 1169 q 821 944 829 1035 q 785 752 813 854 q 715 542 758 650 q 617 333 671 435 q 503 140 564 231 q 380 -19 442 49 q 258 -128 318 -87 q 146 -168 197 -168 m 544 1090 q 483 1056 513 1086 q 428 980 453 1025 q 386 883 404 935 q 360 785 368 831 q 357 706 353 739 q 379 665 361 672 q 424 676 400 657 q 474 730 449 696 q 525 808 500 764 q 571 893 550 851 q 607 969 592 935 q 628 1017 622 1003 q 632 1041 633 1026 q 620 1067 631 1056 q 591 1087 610 1079 q 544 1090 572 1094 z "},"\u0000":{"ha":0,"x_min":0,"x_max":0,"o":""},"\r":{"ha":278,"x_min":0,"x_max":0,"o":""}," ":{"ha":278,"x_min":0,"x_max":0,"o":""},"d":{"ha":686,"x_min":-161,"x_max":1260,"o":"m 1096 1246 q 1222 1201 1183 1246 q 1231 1069 1260 1157 q 1138 1117 1197 1117 q 1009 1076 1078 1115 q 870 972 940 1036 q 732 826 800 908 q 605 658 664 744 q 499 490 546 572 q 423 344 451 408 q 388 240 394 279 q 406 199 382 200 q 472 226 435 197 q 549 297 510 254 q 625 389 589 340 q 686 475 661 438 l 724 475 q 678 399 706 446 q 615 300 650 353 q 539 194 579 247 q 457 97 499 140 q 374 27 415 54 q 296 0 333 0 q 235 21 256 0 q 208 78 214 42 q 210 165 201 114 q 240 276 219 215 q 167 176 206 226 q 90 88 129 126 q 11 24 50 49 q -62 0 -28 0 q -139 32 -117 0 q -158 117 -161 64 q -131 237 -154 169 q -69 375 -107 304 q 17 513 -31 446 q 117 633 65 581 q 218 718 168 686 q 310 750 268 750 q 352 739 335 750 q 382 710 369 728 q 401 670 394 693 q 413 624 408 647 q 572 853 485 740 q 750 1053 660 965 q 930 1193 840 1140 q 1096 1246 1019 1246 m 383 576 q 383 590 386 581 q 374 608 381 599 q 358 626 368 618 q 338 633 349 633 q 262 602 304 633 q 178 523 219 571 q 102 419 138 475 q 46 314 67 363 q 23 233 25 265 q 47 199 21 200 q 114 226 76 197 q 191 297 151 254 q 267 389 231 340 q 328 475 303 438 l 383 576 z "},"e":{"ha":465,"x_min":-104,"x_max":503,"o":"m 503 476 q 454 391 482 440 q 393 289 426 342 q 322 184 360 236 q 242 91 285 132 q 155 25 200 50 q 63 0 110 0 q -43 33 -6 0 q -92 118 -81 65 q -94 239 -104 171 q -56 377 -83 307 q 13 514 -29 447 q 104 633 54 581 q 210 716 154 685 q 324 746 267 747 q 402 724 378 744 q 426 672 426 703 q 404 605 426 640 q 344 540 382 569 q 253 492 306 511 q 140 475 201 472 q 88 380 108 429 q 62 290 67 331 q 72 224 57 250 q 131 197 88 197 q 299 263 221 196 q 465 475 378 331 l 503 476 m 322 631 q 280 618 303 632 q 235 584 257 604 q 193 542 213 564 q 164 507 174 521 q 248 528 210 508 q 310 569 286 547 q 338 609 333 590 q 322 631 343 628 z "},"f":{"ha":347,"x_min":-685,"x_max":758,"o":"m 588 1100 q 717 1066 676 1107 q 738 935 758 1025 q 694 967 718 958 q 642 972 669 975 q 503 927 567 964 q 386 831 440 890 q 285 692 332 771 q 196 525 238 614 l 260 524 q 290 494 286 511 q 293 460 293 476 l 167 465 q 71 233 117 353 q -22 0 25 114 q -120 -216 -69 -114 q -231 -393 -171 -318 q -360 -511 -290 -468 q -517 -551 -431 -554 q -626 -515 -589 -549 q -674 -429 -664 -481 q -672 -317 -685 -378 q -628 -197 -658 -256 q -556 -91 -599 -139 q -464 -19 -512 -43 q -364 -3 -415 4 q -267 -61 -312 -10 q -337 -83 -301 -62 q -403 -134 -372 -104 q -457 -198 -433 -164 q -492 -261 -481 -232 q -499 -310 -503 -290 q -472 -332 -496 -331 q -410 -301 -443 -333 q -340 -212 -376 -269 q -265 -78 -304 -156 q -183 90 -225 0 q -94 278 -140 181 q 3 472 -47 375 l -43 474 q -48 503 -49 486 q -39 532 -47 519 l 33 529 q 156 740 92 639 q 289 919 219 840 q 433 1045 358 997 q 588 1100 507 1093 z "},"g":{"ha":564,"x_min":-399,"x_max":481,"o":"m 321 461 q 396 511 350 510 q 481 475 442 513 q 387 308 432 410 q 294 89 342 206 q 194 -145 246 -28 q 80 -357 142 -262 q -57 -511 18 -451 q -224 -571 -132 -571 q -335 -538 -296 -571 q -386 -455 -374 -506 q -388 -342 -399 -404 q -351 -222 -378 -281 q -283 -112 -324 -162 q -194 -37 -242 -62 q -95 -15 -146 -11 q 4 -69 -44 -19 q -72 -97 -35 -71 q -142 -160 -110 -122 q -197 -242 -174 -199 q -231 -324 -221 -286 q -234 -389 -240 -362 q -200 -417 -228 -415 q -147 -392 -176 -419 q -85 -316 -118 -364 q -18 -206 -53 -268 q 51 -74 17 -143 q 119 64 86 -6 q 183 194 153 133 q 122 120 153 156 q 59 58 90 85 q -3 16 28 32 q -61 0 -33 0 q -137 32 -115 0 q -156 117 -160 64 q -129 237 -153 169 q -67 375 -106 304 q 19 513 -29 446 q 118 633 67 581 q 219 718 169 686 q 311 750 269 750 q 367 729 346 750 q 401 678 389 708 q 416 613 413 647 q 419 551 419 578 q 389 551 404 524 q 339 633 382 633 q 263 602 306 633 q 180 523 221 571 q 103 419 139 475 q 47 314 68 363 q 24 233 26 265 q 49 199 22 200 q 113 224 76 197 q 186 290 149 250 q 259 376 224 331 q 321 461 294 422 z "},"h":{"ha":693,"x_min":-140,"x_max":922,"o":"m 758 1246 q 884 1201 846 1246 q 893 1069 922 1157 q 800 1117 860 1117 q 672 1076 740 1115 q 534 973 604 1038 q 396 827 464 908 q 269 660 328 746 q 162 493 210 575 q 85 347 114 411 q 51 241 57 282 q 67 199 44 200 q 115 259 86 219 q 177 347 143 299 q 249 450 211 396 q 327 555 288 504 q 404 649 367 606 q 476 718 442 692 q 550 751 514 750 q 626 717 586 751 q 597 669 621 710 q 540 571 572 628 q 476 449 508 514 q 421 328 443 383 q 393 237 399 274 q 411 199 388 200 q 478 226 440 197 q 556 297 517 254 q 632 389 596 340 q 693 475 668 438 l 729 475 q 684 399 713 446 q 621 300 656 353 q 546 194 586 247 q 463 97 506 140 q 380 27 421 54 q 301 0 339 0 q 230 25 251 0 q 206 90 208 50 q 217 180 204 131 q 248 278 229 229 q 287 369 267 326 q 319 438 307 411 q 229 308 275 374 q 142 184 183 242 q 68 83 101 126 q 17 21 35 39 q -10 5 6 10 q -42 0 -26 0 q -124 53 -107 0 q -120 195 -140 107 q -49 395 -100 283 q 75 624 3 507 q 234 853 147 740 q 412 1053 321 965 q 592 1193 503 1140 q 758 1246 682 1246 z "},"i":{"ha":344,"x_min":-144,"x_max":385,"o":"m 285 689 q 219 694 242 685 q 192 740 197 704 q 214 793 206 772 q 228 828 222 814 q 236 853 233 843 q 318 834 276 858 q 385 757 360 810 q 365 750 375 751 q 344 744 356 749 q 317 728 332 740 q 285 689 303 715 m 64 200 q 131 228 93 200 q 208 299 168 257 q 283 390 247 342 q 344 475 319 438 l 381 475 q 335 399 364 446 q 272 300 307 353 q 197 194 238 247 q 115 97 157 140 q 31 27 72 54 q -47 0 -10 0 q -126 39 -107 0 q -136 138 -144 78 q -99 271 -128 197 q -35 415 -69 344 q 32 546 -1 486 q 83 638 65 606 q 120 649 97 647 q 167 643 143 651 q 209 615 190 635 q 235 558 228 594 q 200 516 222 547 q 153 445 178 485 q 106 362 129 406 q 67 283 82 318 q 49 224 51 247 q 64 200 46 200 z "},"j":{"ha":251,"x_min":-742,"x_max":315,"o":"m 222 865 q 288 836 261 865 q 315 765 315 807 q 288 696 315 725 q 222 667 261 667 q 156 696 183 667 q 129 765 129 725 q 156 836 129 807 q 222 865 183 865 m 74 638 q 110 649 88 647 q 157 643 133 651 q 199 615 181 635 q 225 558 218 594 q 166 494 199 549 q 94 359 133 440 q 8 177 54 278 q -88 -27 -37 76 q -195 -228 -139 -131 q -311 -402 -251 -326 q -435 -524 -371 -478 q -567 -571 -500 -571 q -678 -538 -639 -571 q -729 -455 -717 -506 q -731 -342 -742 -404 q -694 -222 -721 -281 q -626 -112 -667 -162 q -537 -37 -585 -62 q -438 -15 -489 -11 q -339 -69 -387 -19 q -406 -94 -371 -72 q -472 -150 -440 -117 q -528 -223 -503 -183 q -569 -299 -554 -262 q -583 -366 -583 -336 q -562 -411 -583 -396 q -506 -394 -542 -426 q -424 -298 -469 -362 q -328 -145 -379 -233 q -226 40 -276 -57 q -126 234 -175 136 q -36 415 -76 332 q 33 557 4 497 q 74 638 61 617 z "},"k":{"ha":617,"x_min":-139,"x_max":924,"o":"m 760 1246 q 885 1201 847 1246 q 894 1069 924 1157 q 801 1117 861 1117 q 677 1078 743 1115 q 543 979 611 1040 q 408 839 475 918 q 283 677 342 760 q 176 513 224 594 q 97 366 128 432 q 55 256 65 300 q 60 201 44 211 q 169 383 107 288 q 297 560 231 479 q 429 695 364 642 q 549 750 494 749 q 617 724 600 751 q 632 664 633 697 q 618 601 631 631 q 597 569 606 572 q 589 576 593 568 q 576 593 585 583 q 553 612 568 603 q 513 621 539 621 q 438 597 476 621 q 357 533 399 574 q 333 428 347 486 q 310 319 318 369 q 306 233 301 268 q 336 199 310 199 q 403 228 365 199 q 480 299 440 257 q 556 390 519 342 q 617 475 592 438 l 654 475 q 609 399 638 446 q 545 300 581 353 q 469 194 510 247 q 388 97 429 140 q 305 27 346 54 q 226 0 264 0 q 151 31 172 0 q 132 109 131 61 q 151 215 133 157 q 192 326 168 272 q 94 167 138 246 q 3 8 51 89 q -40 0 -18 0 q -122 53 -106 0 q -119 195 -139 107 q -47 395 -99 283 q 76 624 4 507 q 235 853 149 740 q 413 1053 322 965 q 594 1193 504 1140 q 760 1246 683 1246 z "},"l":{"ha":350,"x_min":-139,"x_max":924,"o":"m 760 1246 q 885 1201 847 1246 q 894 1069 924 1157 q 801 1117 861 1117 q 673 1076 742 1115 q 534 972 604 1036 q 396 826 464 908 q 269 658 328 744 q 163 490 210 572 q 87 344 115 408 q 52 240 58 279 q 69 199 46 200 q 136 226 99 197 q 213 297 174 254 q 289 389 253 340 q 350 475 325 438 l 388 475 q 342 399 371 446 q 278 300 314 353 q 203 194 243 247 q 121 97 163 140 q 38 27 79 54 q -40 0 -3 0 q -122 53 -106 0 q -119 195 -139 107 q -47 395 -99 283 q 76 624 4 507 q 235 853 149 740 q 413 1053 322 965 q 594 1193 504 1140 q 760 1246 683 1246 z "},"m":{"ha":1029,"x_min":-146,"x_max":1067,"o":"m 1067 475 q 1021 399 1049 446 q 958 300 993 353 q 882 194 922 247 q 799 97 842 140 q 716 27 757 54 q 638 0 675 0 q 566 25 588 0 q 542 90 544 50 q 553 180 540 131 q 584 278 565 229 q 623 369 603 326 q 656 438 643 411 q 551 287 604 364 q 452 148 497 210 q 376 47 407 86 q 336 8 344 7 q 315 3 325 6 q 293 0 304 0 q 224 31 244 0 q 203 114 203 61 q 226 238 204 167 q 285 392 247 310 q 191 255 236 322 q 108 134 146 188 q 45 48 71 81 q 13 14 19 15 q -42 0 -18 0 q -119 26 -96 0 q -144 95 -143 51 q -129 196 -146 139 q -85 315 -112 253 q -24 442 -58 378 q 43 563 10 506 q 105 665 76 619 q 149 738 133 711 q 185 749 163 747 q 232 743 208 751 q 274 714 256 735 q 300 657 293 693 q 261 609 289 646 q 199 523 233 572 q 131 418 165 474 q 74 316 97 363 q 46 237 51 269 q 63 200 40 204 q 110 260 82 221 q 174 348 139 299 q 247 451 208 397 q 324 555 285 504 q 401 649 363 606 q 474 718 439 692 q 547 751 511 750 q 624 717 583 751 q 596 672 619 711 q 540 576 572 632 q 474 455 507 519 q 417 335 440 390 q 387 241 393 279 q 403 200 381 203 q 451 260 422 221 q 513 348 479 299 q 585 451 547 397 q 663 555 624 504 q 740 649 703 606 q 813 718 778 692 q 886 751 850 750 q 963 717 922 751 q 933 669 957 710 q 876 571 908 628 q 812 449 844 514 q 757 328 779 383 q 729 237 735 274 q 747 199 724 200 q 815 226 776 197 q 892 297 853 254 q 968 389 932 340 q 1029 475 1004 438 l 1067 475 z "},"n":{"ha":688,"x_min":-149,"x_max":724,"o":"m 724 475 q 678 399 707 446 q 615 300 650 353 q 540 194 581 247 q 458 97 500 140 q 374 27 415 54 q 296 0 333 0 q 224 25 246 0 q 201 90 203 50 q 211 180 199 131 q 242 278 224 229 q 281 369 261 326 q 314 438 301 411 q 291 404 308 431 q 249 342 274 378 q 195 263 225 306 q 137 178 165 219 q 82 100 108 136 q 38 42 56 64 q 3 10 19 19 q -44 0 -14 0 q -122 26 -99 0 q -147 95 -146 51 q -132 196 -149 139 q -88 315 -115 253 q -27 442 -61 378 q 40 563 7 506 q 102 665 74 619 q 146 738 131 711 q 183 749 160 747 q 229 743 206 751 q 272 714 253 735 q 297 657 290 693 q 258 609 286 646 q 197 522 231 572 q 128 417 163 472 q 72 315 94 363 q 44 236 50 268 q 61 200 38 204 q 109 260 81 221 q 172 348 138 299 q 244 451 206 397 q 321 555 282 504 q 398 649 360 606 q 471 718 436 692 q 544 751 508 750 q 621 717 581 751 q 591 669 615 710 q 535 571 567 628 q 470 449 503 514 q 415 328 438 383 q 388 237 393 274 q 406 199 382 200 q 473 226 435 197 q 551 297 511 254 q 626 389 590 340 q 688 475 663 438 l 724 475 z "},"o":{"ha":504,"x_min":-108,"x_max":542,"o":"m 542 475 q 492 385 521 435 q 428 294 464 336 q 347 224 392 251 q 247 201 301 197 q 205 140 229 175 q 151 75 181 106 q 88 23 121 44 q 18 0 54 1 q -66 26 -37 -4 q -101 109 -94 57 q -96 228 -108 161 q -55 367 -83 296 q 14 508 -26 439 q 103 631 54 576 q 208 717 153 685 q 318 750 263 750 q 394 717 368 749 q 414 638 421 685 q 410 620 413 631 q 401 602 407 610 q 389 592 396 594 q 374 597 382 589 q 344 647 365 640 q 293 634 322 653 q 231 577 264 615 q 166 492 197 539 q 110 394 135 444 q 72 301 85 344 q 63 229 60 258 q 90 194 65 200 q 120 201 104 192 q 149 226 136 211 q 178 265 164 242 q 190 356 175 303 q 229 454 206 410 q 266 512 246 485 q 308 557 286 539 q 352 581 329 575 q 397 575 375 586 q 424 539 419 564 q 419 483 428 514 q 393 419 411 453 q 356 353 375 385 q 317 299 336 322 q 286 264 297 275 q 346 285 315 264 q 405 337 376 306 q 458 405 433 368 q 504 475 483 442 l 542 475 z "},"p":{"ha":606,"x_min":-747,"x_max":642,"o":"m 606 476 q 614 476 608 475 q 626 476 619 476 l 642 476 q 581 380 615 432 q 503 275 546 328 q 411 172 461 222 q 306 84 361 122 q 192 23 251 46 q 71 0 133 0 q -56 63 -21 0 q -170 -173 -112 -58 q -290 -376 -228 -287 q -422 -518 -353 -465 q -572 -571 -492 -571 q -683 -538 -644 -571 q -735 -455 -722 -506 q -737 -342 -747 -404 q -699 -222 -726 -281 q -631 -112 -672 -162 q -542 -37 -590 -62 q -444 -15 -494 -11 q -344 -69 -393 -19 q -416 -98 -379 -72 q -485 -160 -453 -124 q -541 -237 -517 -196 q -577 -317 -565 -279 q -584 -381 -589 -354 q -551 -415 -579 -408 q -496 -384 -531 -421 q -417 -281 -461 -347 q -323 -127 -374 -215 q -220 59 -272 -39 q -116 258 -168 157 q -17 451 -64 360 q 68 617 29 542 q 133 738 107 692 q 170 749 147 747 q 217 743 193 751 q 259 714 240 735 q 285 657 278 693 q 231 593 257 628 q 179 518 204 558 q 218 562 197 536 q 262 615 239 588 q 310 668 285 642 q 364 714 336 694 q 421 743 392 733 q 481 747 450 753 q 540 685 528 738 q 536 558 551 632 q 485 399 521 483 q 400 239 449 314 q 506 344 451 279 q 606 476 560 410 m 142 200 q 201 230 167 200 q 269 305 235 260 q 336 404 304 350 q 390 508 368 458 q 419 594 411 557 q 413 644 426 632 q 378 640 401 654 q 327 597 356 626 q 267 526 299 567 q 206 440 235 485 q 155 353 178 396 q 121 276 132 310 q 113 221 110 242 q 142 200 117 200 z "},"q":{"ha":596,"x_min":-296,"x_max":614,"o":"m 463 738 q 499 749 476 747 q 546 743 522 751 q 588 714 569 735 q 614 657 607 693 q 549 568 588 626 q 465 433 511 510 q 369 267 419 357 q 269 83 319 176 q 169 -104 218 -11 q 79 -278 121 -197 q 5 -424 38 -360 q -47 -528 -28 -489 q -115 -561 -76 -550 q -189 -572 -153 -572 q -254 -560 -225 -572 q -296 -522 -283 -547 q -110 -224 -208 -375 q 89 83 -11 -72 q 13 23 50 46 q -60 0 -25 0 q -136 32 -114 0 q -155 117 -158 64 q -128 237 -151 169 q -66 375 -104 304 q 20 513 -28 446 q 119 633 68 581 q 221 718 171 686 q 313 750 271 750 q 381 715 358 750 q 414 638 404 681 l 463 738 m 303 435 q 346 508 325 471 q 386 583 367 546 q 342 633 374 633 q 265 602 307 633 q 181 523 222 571 q 105 419 140 475 q 49 314 69 363 q 26 233 28 265 q 50 199 24 200 q 108 219 75 197 q 174 277 140 242 q 242 354 208 313 q 303 435 275 396 z "},"s":{"ha":442,"x_min":-194,"x_max":478,"o":"m 478 475 q 401 327 442 410 q 310 171 361 244 q 190 48 258 97 q 31 0 122 -1 q -115 36 -65 1 q -179 122 -164 71 q -183 231 -194 172 q -147 336 -172 289 q -90 412 -122 383 q -29 432 -57 440 q 34 547 4 490 q 97 648 64 603 q 170 721 131 693 q 264 750 210 749 q 341 739 300 751 q 432 699 382 726 q 413 665 424 686 q 388 626 401 644 q 358 599 374 608 q 325 601 342 590 l 332 615 q 338 631 335 622 q 347 650 342 639 q 310 667 331 667 q 264 642 279 667 q 242 575 249 617 q 236 482 236 533 q 236 378 236 431 q 232 280 236 326 q 214 203 228 233 q 276 238 244 208 q 336 310 307 268 q 392 396 365 351 q 442 475 418 440 l 478 475 m -11 200 q 59 233 39 200 q 83 309 79 265 q 81 399 86 353 q 75 471 75 444 q 44 430 65 456 q 2 374 24 404 q -39 313 -19 344 q -65 257 -58 282 q -60 216 -71 232 q -11 200 -49 200 z "},"t":{"ha":396,"x_min":-190,"x_max":808,"o":"m 644 1140 q 771 1096 733 1140 q 781 964 808 1051 q 688 1011 746 1014 q 578 982 633 1010 q 469 906 522 954 q 512 901 493 903 q 547 897 531 899 q 578 892 563 894 q 614 886 594 889 q 641 875 628 883 q 651 850 654 867 l 625 850 q 575 848 599 849 q 526 847 551 847 q 473 847 501 847 q 411 847 444 847 q 307 718 357 789 q 217 575 257 647 q 149 435 178 503 q 105 316 119 368 q 92 232 90 264 q 115 199 93 200 q 182 226 144 197 q 259 297 219 254 q 335 389 299 340 q 396 475 371 438 l 433 475 q 388 399 417 446 q 324 300 360 353 q 249 194 289 247 q 167 97 208 140 q 84 27 125 54 q 6 0 43 0 q -78 40 -53 0 q -101 145 -103 79 q -73 298 -99 211 q -3 478 -47 385 q 99 668 40 572 q 224 849 157 764 q 60 849 133 850 q -67 847 -14 849 q -179 844 -129 846 q -189 881 -187 860 q -186 924 -190 901 q -172 969 -182 947 q -144 1010 -161 992 q -112 974 -144 988 q -22 950 -79 960 q 113 934 35 940 q 283 921 192 928 q 374 1010 328 969 q 465 1081 419 1051 q 556 1125 511 1110 q 644 1140 601 1140 z "},"u":{"ha":699,"x_min":-142,"x_max":735,"o":"m 735 475 q 690 399 718 446 q 626 300 661 353 q 551 194 592 247 q 469 97 511 140 q 385 27 426 54 q 307 0 344 0 q 240 20 263 0 q 213 74 218 40 q 216 154 207 108 q 243 251 225 200 q 173 159 210 204 q 99 78 136 114 q 26 22 63 43 q -43 0 -10 0 q -120 30 -99 0 q -140 110 -142 60 q -118 224 -139 160 q -67 355 -97 288 q 0 488 -36 422 q 67 606 36 553 q 121 695 99 660 q 147 738 143 731 q 184 749 161 747 q 231 743 207 751 q 273 714 254 735 q 299 657 292 693 q 268 617 294 653 q 207 531 242 582 q 136 423 172 481 q 76 316 100 365 q 46 233 51 267 q 67 199 40 200 q 128 223 93 197 q 201 288 164 249 q 273 372 238 326 q 335 456 308 417 q 390 557 363 508 q 441 644 418 606 q 479 707 464 682 q 499 738 494 732 q 535 749 513 747 q 582 743 558 751 q 624 714 606 735 q 650 657 643 693 q 619 617 646 653 q 558 531 593 582 q 487 423 524 481 q 426 316 450 365 q 396 233 401 267 q 417 199 390 200 q 484 226 446 197 q 562 297 522 254 q 638 389 601 340 q 699 475 674 438 l 735 475 z "},"v":{"ha":569,"x_min":-142,"x_max":590,"o":"m 444 739 q 507 748 479 754 q 553 725 535 742 q 581 685 572 708 q 589 646 590 663 q 522 544 565 607 q 424 409 479 481 q 306 265 369 338 q 181 133 243 192 q 60 37 118 74 q -43 0 3 0 q -120 30 -99 0 q -140 110 -142 60 q -118 224 -139 160 q -67 355 -97 288 q 0 488 -36 422 q 67 606 36 553 q 121 695 99 660 q 147 738 143 731 q 184 749 161 747 q 231 743 207 751 q 273 714 254 735 q 299 657 292 693 q 269 617 294 653 q 208 530 243 581 q 138 421 174 479 q 76 313 101 363 q 44 231 51 264 q 61 200 38 199 q 126 233 85 200 q 213 317 167 265 q 307 431 260 368 q 389 554 354 494 q 440 664 424 614 q 444 739 457 714 z "},"w":{"ha":921,"x_min":-143,"x_max":942,"o":"m 797 739 q 860 748 832 754 q 906 725 888 742 q 933 685 924 708 q 940 646 942 663 q 874 544 917 607 q 776 409 831 481 q 658 265 721 338 q 532 133 594 192 q 412 37 469 74 q 308 0 354 0 q 241 21 264 0 q 213 77 218 42 q 217 160 208 113 q 246 260 226 207 q 176 165 213 211 q 101 81 139 118 q 26 22 63 44 q -44 0 -11 0 q -122 30 -100 0 q -142 110 -143 60 q -119 224 -140 160 q -68 355 -99 288 q -1 488 -37 422 q 66 606 35 553 q 119 695 97 660 q 146 738 142 731 q 183 749 160 747 q 229 743 206 751 q 272 714 253 735 q 297 657 290 693 q 267 617 293 653 q 206 531 240 582 q 135 423 171 481 q 74 316 99 365 q 44 233 50 267 q 65 199 39 200 q 131 226 93 197 q 207 296 168 254 q 283 386 246 338 q 344 472 319 435 q 397 569 371 524 q 445 651 424 615 q 481 709 467 686 q 499 738 496 732 q 535 749 513 747 q 582 743 558 751 q 624 714 606 735 q 650 657 643 693 q 620 617 646 653 q 560 530 594 581 q 490 421 526 479 q 429 313 454 363 q 397 232 404 264 q 413 200 389 200 q 475 233 435 200 q 563 317 515 265 q 657 431 610 368 q 740 554 704 494 q 792 664 775 614 q 797 739 810 714 z "},"x":{"ha":551,"x_min":-253,"x_max":589,"o":"m 269 199 q 337 226 299 197 q 415 297 375 254 q 490 389 454 340 q 551 475 526 438 l 589 475 q 544 399 572 446 q 480 300 515 353 q 404 194 444 247 q 322 97 364 140 q 238 27 279 54 q 160 0 197 0 q 95 16 121 0 q 53 60 69 32 q 31 125 38 88 q 25 207 25 163 q -103 104 -40 156 q -228 0 -165 53 q -246 14 -240 4 q -252 34 -251 24 q -249 54 -253 44 q -240 68 -246 64 q -112 182 -182 121 q 32 306 -43 243 q 56 434 40 369 q 89 557 71 499 l 36 474 l 0 474 l 157 747 q 194 759 171 757 q 240 753 217 761 q 283 724 264 744 q 308 668 301 704 q 253 574 276 628 q 217 464 229 521 q 322 560 274 514 q 404 642 371 606 q 451 706 438 679 q 454 746 465 733 q 501 733 478 743 q 542 710 524 724 q 572 679 560 696 q 589 646 585 663 q 395 497 492 571 q 203 347 299 422 q 217 243 201 285 q 269 199 233 201 z "},"y":{"ha":613,"x_min":-382,"x_max":640,"o":"m 489 738 q 526 749 503 747 q 572 743 549 751 q 615 714 596 735 q 640 657 633 693 q 542 532 590 610 q 446 359 493 454 q 351 158 399 264 q 254 -51 304 53 q 152 -249 204 -154 q 43 -415 100 -343 q -76 -528 -14 -486 q -207 -571 -137 -571 q -318 -538 -279 -571 q -369 -455 -357 -506 q -372 -342 -382 -404 q -334 -222 -361 -281 q -266 -112 -307 -162 q -177 -37 -225 -62 q -78 -15 -129 -11 q 21 -69 -28 -19 q -53 -99 -17 -74 q -122 -159 -90 -124 q -178 -236 -154 -194 q -215 -315 -203 -278 q -224 -379 -226 -351 q -200 -414 -222 -407 q -158 -399 -183 -419 q -104 -342 -133 -379 q -42 -255 -75 -306 q 22 -150 -10 -204 q 83 -40 53 -96 q 136 63 113 15 q 176 144 160 110 q 200 193 193 179 q 139 119 171 154 q 76 57 107 83 q 15 15 44 31 q -43 0 -15 0 q -119 30 -97 0 q -140 110 -142 60 q -117 224 -137 160 q -65 355 -96 288 q 1 488 -35 422 q 67 606 36 553 q 121 695 99 660 q 147 738 143 731 q 184 749 161 747 q 231 743 207 751 q 274 714 254 735 q 300 657 293 693 q 269 617 296 653 q 208 531 243 582 q 136 423 172 481 q 76 316 100 365 q 46 233 51 267 q 67 199 40 200 q 134 226 96 197 q 211 297 172 254 q 286 389 250 340 q 347 475 322 438 q 378 538 360 504 q 415 607 396 572 q 453 675 435 642 q 489 738 472 708 z "},"z":{"ha":633,"x_min":-372,"x_max":554,"o":"m 361 717 q 474 676 429 711 q 536 589 518 640 q 545 477 554 538 q 498 361 536 417 q 393 263 460 306 q 228 204 326 221 q 288 117 271 171 q 301 -1 306 64 q 274 -135 297 -65 q 213 -272 250 -206 q 125 -394 175 -337 q 17 -489 75 -451 q -105 -540 -42 -526 q -232 -535 -168 -554 q -334 -461 -301 -514 q -369 -343 -367 -408 q -347 -209 -372 -278 q -276 -87 -322 -140 q -166 -4 -231 -33 q -25 13 -101 25 q 33 -15 11 6 q 54 -72 56 -36 q -58 -92 -11 -71 q -135 -147 -104 -114 q -180 -217 -165 -179 q -194 -290 -194 -256 q -182 -350 -194 -325 q -144 -379 -169 -375 q -50 -347 -100 -385 q 44 -249 0 -310 q 118 -115 88 -189 q 151 25 149 -42 q 124 142 154 92 q 17 206 93 192 q 18 220 18 213 q 20 234 18 228 q 26 244 22 240 q 40 247 31 247 q 195 269 128 240 q 308 347 263 299 q 381 452 354 394 q 413 560 407 510 q 407 645 419 611 q 364 681 394 679 q 303 649 329 681 q 256 575 276 618 q 222 488 236 532 q 200 419 208 444 q 131 428 161 426 q 82 435 100 429 q 60 455 64 440 q 71 503 56 469 q 118 590 92 549 q 180 660 144 631 q 260 705 215 689 q 361 717 304 721 z "},"c":{"ha":464,"x_min":-107,"x_max":500,"o":"m 500 476 q 452 392 479 442 q 392 290 425 343 q 320 184 358 236 q 240 91 282 132 q 153 25 199 50 q 61 0 108 0 q -46 32 -8 0 q -95 117 -83 64 q -97 236 -107 169 q -58 373 -86 303 q 11 510 -31 443 q 102 631 53 578 q 206 716 151 683 q 314 750 261 749 q 370 729 349 750 q 403 678 392 708 q 419 613 415 647 q 422 551 422 578 q 392 551 407 524 q 342 633 386 631 q 260 605 304 636 q 176 526 217 574 q 106 421 136 478 q 64 315 75 364 q 66 231 53 265 q 128 197 79 197 q 301 268 219 196 q 464 475 382 340 l 500 476 z "},"A":{"ha":1517,"x_min":-3,"x_max":1990,"o":"m 1914 1244 q 1978 1200 1965 1244 q 1974 1082 1990 1156 q 1897 1115 1943 1121 q 1794 1071 1850 1110 q 1677 966 1739 1032 q 1555 819 1615 900 q 1438 646 1494 738 q 1338 464 1382 554 l 1374 461 q 1401 453 1388 460 q 1413 429 1415 446 q 1365 424 1389 426 q 1317 419 1340 422 q 1253 270 1279 338 q 1220 153 1228 203 q 1226 73 1213 103 q 1279 35 1239 43 q 1179 -7 1225 -10 q 1097 24 1124 -6 q 1069 108 1071 54 q 1086 237 1067 161 q 1142 404 1106 313 q 1042 397 1093 400 q 943 390 992 393 q 777 237 861 308 q 603 113 693 165 q 419 29 514 60 q 222 -1 324 -1 q 127 13 169 -1 q 56 55 85 28 q 12 123 26 82 q 0 217 -3 164 q 52 376 6 303 q 172 508 99 449 q 338 613 246 567 q 526 689 431 658 q 712 735 621 719 q 875 750 803 750 q 927 703 908 750 q 936 588 946 656 q 808 603 886 601 q 641 595 731 606 q 460 563 551 585 q 293 505 369 540 q 165 420 217 469 q 106 308 114 371 q 121 254 101 275 q 171 221 140 233 q 236 203 201 208 q 294 199 271 199 q 544 246 426 196 q 774 379 663 296 q 665 372 715 375 q 579 367 615 369 q 501 363 536 364 q 491 399 492 376 q 496 449 490 422 q 512 501 501 475 q 538 546 522 526 q 567 515 539 528 q 644 494 596 503 q 755 481 692 486 q 889 475 818 476 q 1053 631 969 546 q 1224 802 1138 717 q 1397 968 1310 888 q 1572 1110 1485 1049 q 1744 1208 1658 1171 q 1914 1244 1831 1244 m 1168 468 q 1276 679 1214 572 q 1413 883 1339 786 q 1218 682 1314 789 q 1022 471 1122 575 l 1168 468 z "},"B":{"ha":1261,"x_min":49,"x_max":1383,"o":"m 1203 1058 q 1318 1024 1275 1057 q 1372 942 1361 992 q 1362 831 1383 892 q 1286 713 1340 771 q 1142 608 1232 656 q 928 539 1053 561 q 1039 439 1008 504 q 1060 295 1069 374 q 1005 135 1050 217 q 888 -12 960 54 q 723 -120 817 -78 q 524 -161 629 -162 q 399 -143 458 -160 q 295 -92 340 -126 q 224 -6 250 -58 q 201 117 199 46 q 219 195 203 160 q 263 258 236 231 q 326 304 290 285 q 401 338 361 324 q 464 536 418 428 q 575 752 510 644 q 722 958 640 860 q 893 1125 804 1056 q 760 1038 824 1089 q 638 931 697 988 q 522 818 579 874 q 408 718 465 763 q 290 646 350 674 q 165 618 231 618 q 69 663 90 618 q 74 800 49 708 q 244 785 161 765 q 408 853 326 804 q 576 971 490 903 q 755 1100 661 1039 q 954 1203 849 1161 q 1182 1246 1060 1246 q 1229 1228 1214 1246 q 1249 1185 1244 1211 q 1249 1131 1253 1160 q 1240 1082 1246 1103 q 1158 1117 1207 1122 q 1051 1074 1108 1113 q 931 972 993 1036 q 808 828 868 907 q 901 915 853 874 q 999 989 949 957 q 1099 1040 1049 1021 q 1203 1058 1150 1058 m 776 571 q 967 606 886 575 q 1101 683 1047 638 q 1185 779 1156 728 q 1223 875 1215 831 q 1218 949 1231 919 q 1176 979 1206 978 q 1053 953 1111 981 q 946 882 996 925 q 853 788 896 839 q 773 692 810 738 q 705 612 736 646 q 649 571 674 578 q 599 466 621 518 q 563 368 578 414 q 588 369 575 369 q 611 369 600 369 q 668 354 650 369 q 691 315 686 339 q 694 263 696 292 q 690 207 692 233 q 649 211 675 210 q 607 214 622 213 q 581 216 597 215 q 543 217 565 217 q 565 165 549 185 q 611 138 581 144 q 511 96 554 93 q 430 126 458 97 q 394 207 401 156 q 297 179 338 199 q 254 124 256 160 q 289 78 254 94 q 370 53 324 61 q 461 43 417 44 q 525 42 506 42 q 708 81 626 44 q 846 172 790 118 q 927 288 901 225 q 944 403 953 350 q 890 490 936 456 q 753 522 843 524 q 752 545 753 536 q 753 560 751 554 q 759 568 754 565 q 776 571 764 571 z "},"C":{"ha":840,"x_min":-4,"x_max":876,"o":"m 876 475 q 800 348 843 418 q 706 206 757 278 q 595 67 654 135 q 471 -53 536 -1 q 335 -135 406 -106 q 189 -161 264 -165 q 50 -93 94 -156 q 1 69 6 -31 q 25 295 -4 169 q 108 551 54 421 q 233 807 161 682 q 387 1029 306 932 q 553 1185 468 1126 q 717 1244 638 1244 q 792 1204 767 1240 q 824 1112 817 1168 q 825 987 832 1056 q 803 851 818 918 q 769 726 788 785 q 733 632 750 668 q 694 596 721 604 q 640 590 668 588 q 586 601 611 592 q 551 617 561 610 q 585 663 560 628 q 639 746 610 699 q 696 845 668 793 q 738 941 724 897 q 746 1013 751 985 q 703 1040 740 1040 q 597 999 653 1040 q 484 888 540 957 q 375 732 428 819 q 280 552 322 644 q 209 371 238 460 q 172 210 181 282 q 181 93 164 139 q 244 42 197 47 q 361 51 303 35 q 475 101 419 68 q 583 179 531 133 q 683 276 636 225 q 769 378 729 326 q 840 476 808 431 l 876 475 z "},"D":{"ha":1307,"x_min":-11,"x_max":1269,"o":"m 1129 1060 q 1233 1008 1200 1061 q 1268 867 1267 954 q 1242 670 1269 781 q 1162 444 1214 560 q 1036 218 1110 328 q 872 23 963 108 q 678 -113 782 -62 q 461 -160 574 -164 q 330 -135 388 -158 q 233 -74 272 -111 q 173 11 193 -36 q 153 107 153 58 q 168 190 153 153 q 210 257 183 228 q 272 308 236 286 q 347 343 307 329 q 413 544 365 435 q 526 761 460 653 q 676 967 593 869 q 849 1133 758 1065 q 712 1047 776 1099 q 586 939 647 996 q 467 824 525 882 q 351 721 410 767 q 232 647 293 675 q 106 618 171 618 q 10 663 31 618 q 14 800 -11 708 q 149 775 86 771 q 270 806 211 779 q 386 875 329 832 q 503 967 443 918 q 628 1065 563 1015 q 769 1156 693 1115 q 933 1221 844 1196 q 1126 1246 1021 1246 q 1190 1201 1178 1246 q 1186 1082 1203 1156 q 1112 1118 1156 1119 q 1017 1088 1068 1117 q 909 1005 965 1058 q 797 883 853 951 q 876 951 836 919 q 959 1008 917 983 q 1044 1046 1001 1032 q 1129 1060 1086 1060 m 454 40 q 601 81 528 40 q 745 188 675 122 q 878 339 815 254 q 992 512 940 424 q 1080 685 1043 600 q 1135 838 1117 771 q 1149 945 1153 904 q 1117 988 1146 986 q 1032 967 1078 989 q 938 907 986 944 q 840 823 889 869 q 747 730 792 776 q 663 642 701 683 q 596 575 624 601 q 546 470 568 522 q 510 371 524 418 q 534 371 522 371 q 558 369 546 371 q 617 359 597 367 q 644 333 638 351 q 649 285 651 315 q 642 207 647 254 q 489 224 564 226 q 557 138 496 151 q 457 96 500 93 q 376 126 404 97 q 340 204 347 154 q 244 163 281 188 q 208 114 208 139 q 239 74 208 89 q 310 52 269 60 q 392 42 351 44 q 454 40 433 40 z "},"E":{"ha":825,"x_min":47,"x_max":1000,"o":"m 842 1271 q 933 1243 896 1271 q 985 1174 971 1215 q 990 1083 1000 1132 q 942 990 981 1033 q 833 914 903 946 q 657 875 763 882 q 660 780 646 824 q 710 715 674 736 q 727 705 722 708 q 732 695 732 701 q 727 676 732 689 q 715 638 722 664 q 594 608 656 649 q 481 502 533 568 q 390 356 429 436 q 331 206 350 275 q 316 89 311 136 q 360 42 321 42 q 493 86 426 42 q 620 197 560 131 q 733 338 681 263 q 825 476 785 414 l 863 476 q 805 358 838 425 q 732 219 772 290 q 644 80 692 149 q 544 -43 597 11 q 431 -130 490 -97 q 304 -162 371 -162 q 199 -129 239 -162 q 143 -40 160 -96 q 131 88 126 15 q 160 237 136 160 q 223 390 183 314 q 316 530 263 465 q 435 641 369 594 q 575 704 500 688 q 525 782 540 738 q 508 875 510 826 q 388 890 447 879 q 274 917 328 900 q 176 957 221 933 q 100 1013 131 981 q 65 1112 47 1065 q 165 1204 82 1158 q 307 1027 213 1092 q 515 943 401 963 q 556 1063 526 1004 q 629 1169 586 1122 q 726 1243 672 1215 q 842 1271 781 1271 m 835 1118 q 788 1103 811 1118 q 745 1064 765 1089 q 707 1007 725 1039 q 676 940 689 975 q 805 967 757 950 q 876 1003 853 983 q 901 1044 899 1024 q 894 1080 904 1064 q 868 1107 885 1096 q 835 1118 851 1118 z "},"F":{"ha":854,"x_min":63,"x_max":1286,"o":"m 633 1060 q 748 1083 710 1108 q 785 979 786 1057 q 694 915 739 963 q 608 810 649 868 q 535 694 568 753 q 482 594 503 636 q 619 601 565 592 q 682 647 672 611 q 710 550 708 597 q 703 455 713 503 q 678 357 693 407 q 656 250 663 307 q 619 258 639 249 q 580 285 599 268 q 545 325 561 303 q 521 369 529 347 q 560 392 540 361 q 611 476 581 422 l 443 511 q 360 291 394 401 q 313 89 325 181 q 313 -66 300 -3 q 375 -143 326 -129 q 339 -157 360 -153 q 297 -162 318 -161 q 258 -162 276 -164 q 228 -160 239 -161 q 133 -88 157 -153 q 122 76 110 -24 q 174 299 133 176 q 271 546 214 422 q 167 567 218 557 q 63 589 115 578 q 78 613 64 606 q 107 618 93 619 q 206 613 157 615 q 300 607 254 610 q 380 752 338 682 q 465 882 422 822 q 551 988 508 942 q 633 1060 593 1033 m 1258 1213 q 1266 1077 1286 1124 q 1171 1024 1246 1031 q 994 1034 1088 1017 q 808 1076 901 1051 q 626 1122 715 1100 q 460 1147 536 1144 q 327 1124 385 1150 q 240 1024 269 1097 q 179 1150 178 1090 q 247 1247 181 1210 q 397 1288 321 1288 q 552 1267 474 1288 q 713 1217 631 1247 q 883 1170 796 1188 q 1064 1158 971 1153 q 1258 1213 1157 1163 z "},"G":{"ha":1104,"x_min":-1,"x_max":963,"o":"m 368 313 q 649 353 511 333 q 932 372 786 374 q 919 286 931 328 q 874 200 907 244 q 849 244 871 228 q 785 267 826 260 q 699 121 739 203 q 628 -48 658 39 q 581 -219 599 -135 q 564 -373 564 -303 q 583 -493 564 -443 q 646 -558 603 -543 q 610 -570 631 -567 q 568 -573 589 -574 q 528 -570 547 -572 q 499 -565 510 -568 q 410 -509 438 -556 q 380 -392 382 -462 q 399 -233 378 -321 q 456 -50 419 -144 q 347 -129 407 -99 q 204 -162 286 -160 q 48 -108 96 -167 q -1 49 0 -50 q 38 276 -1 149 q 145 537 78 403 q 299 799 213 671 q 481 1027 386 926 q 672 1189 576 1128 q 851 1249 768 1250 q 931 1208 907 1244 q 959 1115 956 1171 q 949 990 963 1058 q 915 855 936 922 q 869 729 893 788 q 825 635 844 671 q 783 599 810 607 q 728 593 757 590 q 676 605 700 596 q 643 621 653 614 q 679 667 651 631 q 739 749 707 703 q 802 848 771 796 q 851 944 833 900 q 865 1015 868 988 q 824 1043 861 1043 q 714 1000 776 1043 q 583 886 651 957 q 448 725 515 815 q 324 540 381 635 q 230 355 268 446 q 181 192 192 264 q 194 76 171 121 q 288 31 218 32 q 400 50 351 29 q 488 106 449 71 q 560 187 528 142 q 624 279 592 232 q 523 279 576 279 q 407 281 469 279 q 378 289 392 282 q 368 313 365 296 z "},"H":{"ha":1275,"x_min":-46,"x_max":1685,"o":"m 1610 1247 q 1672 1202 1660 1247 q 1668 1085 1685 1157 q 1544 1085 1608 1107 q 1418 1012 1481 1063 q 1297 892 1356 961 q 1189 752 1238 824 q 1103 615 1140 681 q 1046 508 1065 550 l 1128 504 q 1156 495 1142 503 q 1167 471 1169 488 q 1154 470 1160 471 q 1142 468 1149 469 q 1085 463 1115 465 q 1024 458 1056 461 q 948 252 978 353 q 912 72 918 151 q 927 -61 906 -8 q 1003 -125 949 -114 q 950 -156 975 -147 q 901 -167 925 -164 q 799 -158 839 -176 q 740 -101 760 -140 q 717 -3 719 -61 q 729 127 715 56 q 771 280 743 199 q 838 446 799 361 q 669 436 754 440 q 506 428 585 432 q 437 232 463 326 q 408 62 411 138 q 425 -64 404 -14 q 499 -125 446 -114 q 447 -156 471 -147 q 399 -167 422 -164 q 263 -137 307 -181 q 215 -10 219 -93 q 240 185 210 72 q 324 421 269 297 q 266 418 292 418 q 222 417 240 418 q 185 415 201 415 q 174 452 175 429 q 179 501 174 475 q 195 553 185 528 q 221 599 206 579 q 266 563 224 576 q 379 539 308 549 q 464 688 413 604 q 578 856 515 771 q 713 1019 640 940 q 864 1153 786 1097 q 715 1074 785 1125 q 580 964 644 1024 q 453 843 515 904 q 330 732 392 782 q 204 650 268 682 q 71 618 140 618 q -25 663 -4 618 q -21 800 -46 708 q 113 776 50 772 q 235 806 176 779 q 351 874 293 832 q 469 966 408 917 q 596 1065 529 1015 q 740 1155 663 1114 q 907 1222 817 1196 q 1106 1247 997 1247 q 1169 1202 1157 1247 q 1165 1085 1182 1157 q 1050 1089 1111 1110 q 927 1019 989 1068 q 806 901 865 969 q 697 763 747 833 q 608 629 646 693 q 550 525 569 565 q 708 518 625 521 q 869 513 790 515 q 944 651 899 574 q 1048 810 990 729 q 1172 970 1106 892 q 1311 1110 1239 1049 q 1459 1209 1383 1171 q 1610 1247 1535 1247 z "},"I":{"ha":718,"x_min":-11,"x_max":1199,"o":"m 1124 1247 q 1187 1202 1175 1247 q 1183 1085 1199 1157 q 1065 1086 1128 1106 q 940 1018 1003 1067 q 813 897 876 969 q 693 738 750 824 q 587 556 636 651 q 501 369 538 461 q 445 192 465 276 q 424 40 425 107 q 445 -72 424 -28 q 517 -125 467 -115 q 464 -156 489 -147 q 417 -167 439 -164 q 272 -143 318 -182 q 222 -28 226 -104 q 249 153 218 49 q 332 373 279 257 q 454 608 385 489 q 597 831 524 726 q 740 1017 669 935 q 865 1140 810 1099 q 725 1057 792 1108 q 597 947 658 1006 q 475 831 535 889 q 356 725 415 772 q 235 648 297 678 q 106 618 172 618 q 10 663 31 618 q 14 800 -11 708 q 148 776 85 772 q 270 806 211 779 q 386 874 329 832 q 503 966 443 917 q 629 1065 564 1015 q 770 1156 694 1115 q 933 1222 846 1196 q 1124 1247 1019 1247 z "},"J":{"ha":778,"x_min":-1,"x_max":1236,"o":"m 1161 1247 q 1224 1202 1213 1247 q 1217 1085 1236 1157 q 1061 1085 1138 1114 q 915 989 985 1056 q 785 831 846 922 q 674 642 724 739 q 587 456 624 546 q 531 306 550 367 q 472 133 503 218 q 403 -21 442 47 q 314 -133 364 -89 q 197 -183 264 -178 q 82 -159 125 -189 q 19 -78 39 -129 q 0 36 -1 -28 q 19 163 1 100 q 69 281 38 226 q 143 365 101 335 q 233 396 185 396 q 333 350 282 396 q 270 319 299 344 q 221 258 242 293 q 189 183 200 222 q 176 112 178 144 q 185 59 175 79 q 219 40 196 39 q 253 67 235 42 q 293 135 272 93 q 335 231 314 176 q 379 344 357 286 q 453 529 410 428 q 553 734 497 631 q 676 933 608 838 q 825 1101 744 1029 q 700 1012 760 1063 q 583 907 640 961 q 472 801 526 853 q 361 709 417 750 q 248 643 306 668 q 129 618 190 618 q 34 663 54 618 q 42 800 14 708 q 217 781 136 763 q 377 849 299 799 q 536 967 456 899 q 710 1097 617 1035 q 913 1203 803 1160 q 1161 1247 1024 1247 z "},"K":{"ha":1157,"x_min":-11,"x_max":1264,"o":"m 1179 1000 q 1247 974 1231 1001 q 1263 914 1264 947 q 1249 851 1261 881 q 1228 819 1236 822 q 1219 822 1224 818 q 1207 833 1215 826 q 1184 844 1199 839 q 1143 850 1169 850 q 1044 818 1101 850 q 924 728 988 786 q 797 589 861 669 q 679 411 733 508 q 794 253 742 332 q 904 110 846 174 q 1037 8 963 47 q 1219 -29 1111 -31 q 1165 -167 1207 -122 q 1051 -190 1122 -212 q 909 -107 965 -164 q 809 23 853 -50 q 727 178 765 96 q 642 339 689 261 q 556 115 589 232 q 517 -125 522 -3 q 464 -156 489 -147 q 417 -167 439 -164 q 304 -153 346 -178 q 245 -79 263 -129 q 233 42 228 -29 q 260 199 238 114 q 323 380 283 285 q 414 571 363 475 q 511 738 458 656 q 622 893 564 819 q 741 1030 679 967 q 865 1140 803 1093 q 725 1057 792 1108 q 597 947 658 1006 q 475 831 535 889 q 356 725 415 772 q 235 648 297 678 q 106 618 172 618 q 10 663 31 618 q 14 800 -11 708 q 196 781 113 761 q 357 852 279 800 q 513 974 435 904 q 680 1108 592 1044 q 872 1212 768 1171 q 1103 1246 975 1253 q 1124 1247 1110 1247 q 1187 1202 1175 1247 q 1183 1085 1199 1157 q 1038 1074 1118 1108 q 876 961 958 1039 q 714 771 793 883 q 571 529 635 658 q 600 501 586 515 q 626 472 614 488 q 767 687 690 590 q 919 853 843 783 q 1063 961 994 922 q 1179 1000 1131 1000 m 461 -93 q 504 169 468 43 q 594 408 540 294 q 569 438 582 424 q 542 468 557 453 q 474 291 501 378 q 433 130 446 204 q 427 -3 421 56 q 461 -93 433 -61 z "},"L":{"ha":939,"x_min":-1,"x_max":1329,"o":"m 1253 1247 q 1317 1202 1304 1247 q 1313 1085 1329 1157 q 1181 1080 1251 1107 q 1038 991 1110 1053 q 897 840 967 929 q 767 649 828 751 q 660 440 707 547 q 585 235 613 333 q 553 56 557 138 q 576 -74 550 -25 q 738 -92 661 -82 q 874 -109 815 -103 q 967 -113 932 -115 q 1003 -93 1003 -111 q 1030 -140 1018 -112 q 1047 -198 1042 -168 q 1051 -254 1051 -228 q 1040 -294 1050 -281 q 651 -199 840 -233 q 485 -174 571 -185 q 317 -164 400 -164 q 160 -175 235 -164 q 26 -214 85 -186 q 13 -215 19 -217 q 0 -212 7 -212 q 5 -192 -1 -204 q 19 -169 11 -181 q 38 -149 28 -158 q 53 -136 47 -140 q 197 -81 115 -96 q 369 -62 278 -65 q 369 126 349 18 q 437 350 389 233 q 553 587 485 467 q 697 813 621 707 q 851 1005 774 919 q 994 1140 929 1090 q 854 1057 921 1108 q 726 947 788 1006 q 604 831 664 889 q 485 725 544 772 q 364 648 426 678 q 235 618 301 618 q 139 663 160 618 q 143 800 118 708 q 277 776 214 772 q 399 806 340 779 q 516 874 458 832 q 633 966 574 917 q 759 1065 693 1015 q 900 1156 825 1115 q 1062 1222 975 1196 q 1253 1247 1149 1247 z "},"M":{"ha":1608,"x_min":-11,"x_max":2092,"o":"m 2017 1247 q 2079 1202 2067 1247 q 2075 1085 2092 1157 q 1958 1086 2019 1106 q 1832 1018 1896 1067 q 1706 897 1768 969 q 1586 738 1643 824 q 1480 556 1529 651 q 1394 369 1431 461 q 1338 192 1358 276 q 1317 40 1318 107 q 1338 -72 1317 -28 q 1410 -125 1360 -115 q 1357 -156 1382 -147 q 1310 -167 1332 -164 q 1191 -154 1233 -178 q 1133 -81 1149 -131 q 1125 35 1118 -32 q 1153 178 1132 103 q 1204 333 1174 254 q 1267 481 1235 411 q 1328 606 1299 550 q 1375 690 1357 661 q 1304 599 1344 656 q 1220 472 1264 542 q 1134 324 1176 403 q 1056 167 1092 246 q 994 13 1019 88 q 961 -125 969 -62 q 944 -140 957 -133 q 915 -151 931 -146 q 885 -159 900 -156 q 861 -162 871 -162 q 745 -138 786 -167 q 689 -60 704 -110 q 681 57 674 -10 q 708 197 688 124 q 758 346 728 271 q 819 488 788 421 q 881 608 851 554 q 928 690 910 661 q 856 599 896 656 q 773 472 815 542 q 688 324 731 403 q 610 167 646 246 q 550 13 575 88 q 517 -125 525 -62 q 464 -156 489 -147 q 417 -167 439 -164 q 272 -136 318 -178 q 222 -18 226 -94 q 249 163 218 58 q 332 381 279 267 q 454 613 385 496 q 597 834 524 731 q 740 1018 669 938 q 865 1140 810 1099 q 725 1057 792 1108 q 597 947 658 1006 q 475 831 535 889 q 356 725 415 772 q 235 648 297 678 q 106 618 172 618 q 10 663 31 618 q 14 800 -11 708 q 190 781 108 763 q 348 849 271 799 q 504 967 425 899 q 675 1097 583 1035 q 876 1203 767 1160 q 1124 1247 985 1247 q 1187 1202 1175 1247 q 1183 1085 1199 1157 q 1049 1081 1121 1108 q 905 989 978 1053 q 762 834 832 925 q 631 639 692 743 q 524 426 571 535 q 451 220 478 318 q 424 43 425 122 q 453 -82 422 -36 q 495 88 461 -8 q 583 292 529 185 q 706 513 636 400 q 858 731 776 625 q 1028 930 939 836 q 1210 1094 1118 1024 q 1392 1206 1301 1165 q 1568 1247 1483 1247 q 1632 1202 1619 1247 q 1628 1085 1644 1157 q 1495 1081 1565 1107 q 1354 994 1425 1056 q 1215 845 1283 933 q 1086 656 1146 757 q 979 448 1026 554 q 903 244 932 342 q 869 67 875 147 q 886 -64 863 -14 q 936 110 899 13 q 1029 313 974 207 q 1156 530 1085 419 q 1310 744 1228 640 q 1481 940 1392 849 q 1662 1099 1571 1031 q 1843 1208 1753 1168 q 2017 1247 1933 1247 z "},"N":{"ha":1247,"x_min":31,"x_max":1735,"o":"m 1658 1247 q 1722 1199 1710 1242 q 1718 1085 1735 1157 q 1601 1086 1663 1106 q 1475 1018 1539 1067 q 1349 897 1411 969 q 1228 738 1286 824 q 1122 556 1171 651 q 1038 369 1074 461 q 981 192 1001 276 q 959 40 960 107 q 981 -72 958 -28 q 1053 -125 1003 -115 q 994 -156 1026 -146 q 926 -169 961 -167 q 858 -165 892 -171 q 794 -146 824 -160 q 694 -55 729 -117 q 651 89 660 7 q 656 268 642 171 q 703 466 671 365 q 781 665 735 567 q 883 847 828 763 q 1002 994 939 931 q 1129 1089 1065 1057 q 997 1025 1067 1075 q 858 899 926 975 q 724 724 789 822 q 607 517 660 626 q 560 420 586 475 q 512 305 535 365 q 474 183 489 244 q 460 64 458 121 q 483 -42 461 7 q 558 -125 506 -92 q 506 -156 531 -147 q 458 -167 481 -164 q 346 -153 388 -178 q 287 -79 304 -129 q 274 42 269 -29 q 302 199 279 114 q 365 380 325 285 q 456 571 404 475 q 553 736 500 654 q 663 892 606 818 q 783 1030 721 967 q 907 1140 844 1093 q 766 1057 832 1108 q 638 947 700 1006 q 517 831 576 889 q 398 725 457 772 q 276 648 339 678 q 147 618 214 618 q 51 663 72 618 q 56 800 31 708 q 238 781 154 761 q 399 852 321 800 q 555 974 476 904 q 722 1108 633 1044 q 913 1212 810 1171 q 1144 1246 1017 1253 q 1211 1231 1192 1250 q 1235 1180 1231 1211 q 1233 1112 1239 1149 q 1225 1044 1228 1075 q 1138 1002 1186 1040 q 1040 901 1090 964 q 940 758 989 839 q 849 587 890 676 q 777 404 807 497 q 735 224 747 311 q 733 63 724 138 q 782 -64 743 -11 q 780 92 767 0 q 828 291 793 185 q 917 511 864 397 q 1038 734 971 625 q 1181 940 1104 843 q 1338 1107 1258 1036 q 1500 1216 1418 1178 q 1658 1247 1582 1254 z "},"O":{"ha":1594,"x_min":74,"x_max":1488,"o":"m 1194 1249 q 1368 1165 1303 1236 q 1460 985 1433 1093 q 1479 745 1488 878 q 1432 478 1471 613 q 1327 220 1393 344 q 1173 4 1261 96 q 977 -135 1085 -87 q 749 -162 869 -182 q 556 -87 626 -143 q 458 49 486 -31 q 438 226 429 128 q 481 426 446 324 q 572 629 515 528 q 697 819 628 731 q 841 974 765 907 q 989 1077 917 1042 q 1126 1110 1061 1113 q 1236 1053 1190 1107 q 1266 989 1261 1024 q 1263 917 1271 954 q 1235 841 1254 879 q 1193 768 1217 803 q 1144 703 1169 733 q 1097 653 1118 674 q 1049 627 1072 628 q 1007 640 1026 626 q 974 676 988 653 q 954 725 960 700 q 998 757 969 738 q 1058 799 1026 776 q 1119 849 1089 822 q 1169 903 1150 876 q 1192 958 1189 931 q 1175 1010 1196 985 q 1113 1026 1151 1036 q 1029 981 1075 1017 q 933 886 983 944 q 833 757 882 828 q 743 607 785 686 q 672 451 701 528 q 631 302 643 374 q 631 175 619 231 q 681 84 642 119 q 792 43 719 49 q 951 78 875 36 q 1091 192 1026 119 q 1206 358 1156 264 q 1290 554 1257 453 q 1335 755 1322 656 q 1335 935 1347 854 q 1285 1069 1324 1015 q 1179 1132 1247 1122 q 992 1113 1081 1146 q 819 1024 903 1081 q 658 896 736 967 q 501 763 579 825 q 346 660 424 701 q 188 618 268 618 q 93 663 113 618 q 101 800 74 708 q 238 778 172 772 q 369 813 304 783 q 497 888 433 842 q 624 986 560 935 q 755 1088 689 1038 q 891 1178 821 1139 q 1037 1238 961 1217 q 1194 1249 1113 1258 z "},"P":{"ha":1192,"x_min":-11,"x_max":1293,"o":"m 1253 1026 q 1292 931 1293 990 q 1261 800 1292 871 q 1175 653 1231 729 q 1050 509 1119 578 q 902 385 981 440 q 747 300 824 331 q 602 272 671 269 q 482 318 533 274 q 438 157 453 233 q 426 21 424 81 q 449 -77 428 -39 q 517 -125 471 -115 q 464 -156 489 -147 q 417 -167 439 -164 q 304 -153 346 -178 q 245 -79 263 -129 q 233 42 228 -29 q 260 199 238 114 q 323 380 283 285 q 414 571 363 475 q 511 736 458 654 q 622 892 564 818 q 741 1030 679 967 q 865 1140 803 1093 q 725 1057 792 1108 q 597 947 658 1006 q 475 831 535 889 q 356 725 415 772 q 235 648 297 678 q 106 618 172 618 q 10 663 31 618 q 14 800 -11 708 q 196 781 113 761 q 357 852 279 800 q 513 974 435 904 q 680 1108 592 1044 q 872 1212 768 1171 q 1103 1246 975 1253 q 1124 1247 1110 1247 q 1187 1202 1175 1247 q 1183 1085 1199 1157 q 1083 1088 1138 1101 q 969 1036 1028 1075 q 851 938 911 997 q 736 801 792 878 q 869 924 799 864 q 1008 1022 939 985 q 1140 1066 1076 1060 q 1253 1026 1204 1072 m 507 385 q 595 342 546 343 q 699 369 644 342 q 808 449 753 397 q 915 561 864 500 q 1008 688 965 622 q 1079 809 1051 753 q 1117 907 1107 865 q 1114 964 1128 949 q 1051 967 1094 985 q 952 907 1007 949 q 838 810 897 865 q 726 701 779 754 q 633 603 674 647 q 579 544 593 560 q 542 465 560 504 q 507 385 524 425 z "},"Q":{"ha":1625,"x_min":97,"x_max":1525,"o":"m 1521 -107 q 1520 -160 1525 -131 q 1505 -219 1515 -190 q 1481 -269 1494 -247 q 1451 -299 1467 -290 q 1371 -217 1415 -260 q 1282 -134 1333 -181 q 1168 -39 1231 -87 q 994 -144 1089 -110 q 793 -162 900 -179 q 599 -87 671 -143 q 497 49 528 -31 q 472 226 467 128 q 510 426 478 324 q 597 629 543 528 q 718 819 651 731 q 858 974 785 907 q 1003 1077 932 1042 q 1140 1110 1075 1113 q 1251 1053 1204 1107 q 1283 989 1276 1024 q 1282 917 1289 954 q 1257 841 1275 879 q 1216 768 1239 803 q 1168 703 1193 733 q 1122 653 1143 674 q 1075 627 1099 628 q 1031 640 1051 626 q 997 676 1011 653 q 976 725 982 700 q 1019 757 992 738 q 1078 799 1047 776 q 1140 849 1110 822 q 1188 903 1169 876 q 1210 958 1207 931 q 1190 1010 1213 985 q 1110 1021 1161 1043 q 999 939 1058 999 q 880 792 940 879 q 770 607 819 704 q 690 413 721 510 q 661 235 660 315 q 702 103 663 156 q 832 43 742 50 q 915 50 875 40 q 993 79 956 60 q 848 149 922 121 q 701 185 774 178 q 690 191 694 186 q 679 200 685 196 q 721 233 690 225 q 791 239 751 242 q 876 224 831 236 q 962 198 921 213 q 1035 169 1003 183 q 1085 146 1068 154 q 1211 308 1156 213 q 1303 510 1267 404 q 1353 723 1339 617 q 1357 917 1368 829 q 1306 1063 1346 1004 q 1192 1132 1265 1121 q 1005 1113 1093 1146 q 835 1024 917 1081 q 676 896 753 967 q 524 763 600 825 q 371 660 447 701 q 214 618 294 618 q 118 663 139 618 q 122 800 97 708 q 260 778 193 772 q 390 813 326 783 q 515 888 453 842 q 641 986 578 935 q 769 1088 704 1038 q 903 1178 833 1139 q 1047 1238 972 1217 q 1204 1249 1122 1258 q 1376 1169 1310 1236 q 1473 1000 1442 1101 q 1502 773 1504 899 q 1469 517 1500 647 q 1383 264 1439 388 q 1249 44 1326 140 q 1347 -25 1301 8 q 1428 -81 1393 -58 q 1488 -112 1464 -104 q 1521 -107 1513 -121 z "},"R":{"ha":1222,"x_min":-11,"x_max":1321,"o":"m 1279 1000 q 1316 902 1311 961 q 1299 778 1321 843 q 1229 647 1278 713 q 1103 527 1181 581 q 922 439 1026 474 q 683 401 817 404 q 781 245 735 326 q 883 97 828 164 q 1009 -12 939 31 q 1178 -54 1079 -56 q 1124 -192 1167 -147 q 1010 -217 1082 -237 q 897 -153 944 -197 q 813 -51 850 -110 q 744 76 775 7 q 684 215 714 144 q 621 351 654 285 q 544 474 588 418 q 465 264 496 367 q 426 78 433 161 q 440 -59 419 -4 q 517 -125 461 -114 q 464 -156 489 -147 q 417 -167 439 -164 q 304 -153 346 -178 q 245 -79 263 -129 q 233 42 228 -29 q 260 199 238 114 q 323 380 283 285 q 414 571 363 475 q 511 736 458 654 q 622 892 564 818 q 741 1030 679 967 q 865 1140 803 1093 q 725 1057 792 1108 q 597 947 658 1006 q 475 831 535 889 q 356 725 415 772 q 235 648 297 678 q 106 618 172 618 q 10 663 31 618 q 14 800 -11 708 q 190 781 108 763 q 348 849 271 799 q 503 967 425 899 q 674 1097 582 1035 q 875 1203 765 1160 q 1124 1247 985 1247 q 1187 1202 1175 1247 q 1183 1085 1199 1157 q 1083 1088 1138 1101 q 970 1037 1028 1075 q 853 939 913 999 q 738 804 793 879 q 876 933 803 871 q 1023 1031 950 996 q 1163 1065 1096 1067 q 1279 1000 1229 1063 m 638 465 q 822 497 740 465 q 966 576 904 528 q 1070 682 1028 624 q 1135 795 1113 740 q 1163 895 1158 850 q 1153 963 1167 940 q 1083 981 1132 994 q 973 925 1035 967 q 845 824 911 883 q 722 708 779 765 q 624 603 664 650 q 575 539 583 556 q 588 524 578 536 q 608 499 597 513 q 627 476 618 486 q 638 465 636 465 z "},"S":{"ha":1254,"x_min":38,"x_max":1361,"o":"m 1168 1229 q 1309 1135 1265 1199 q 1357 994 1353 1072 q 1333 833 1361 915 q 1258 682 1304 750 q 1152 570 1211 614 q 1038 526 1093 526 q 944 558 975 526 q 902 639 913 590 q 895 745 892 688 q 907 853 899 803 q 821 819 861 838 q 836 656 814 732 q 888 506 858 579 q 942 362 917 433 q 967 211 967 290 q 939 56 967 125 q 865 -62 911 -14 q 760 -137 819 -111 q 639 -162 701 -162 q 445 -121 524 -161 q 322 -19 367 -81 q 266 116 278 42 q 272 260 254 190 q 333 385 289 329 q 447 467 378 442 q 536 478 493 483 q 617 451 579 472 q 683 395 654 429 q 732 319 713 361 q 724 260 747 288 q 635 200 701 232 q 617 265 628 224 q 588 343 606 306 q 547 403 571 381 q 489 414 522 426 q 451 374 464 406 q 437 302 438 343 q 448 215 436 261 q 487 131 460 169 q 556 67 514 93 q 658 40 599 42 q 726 49 692 39 q 788 82 760 60 q 833 138 815 104 q 851 218 851 172 q 831 333 853 272 q 778 460 808 394 q 715 594 747 525 q 663 735 683 664 q 524 652 592 693 q 390 581 456 611 q 259 536 324 550 q 131 538 194 522 q 47 603 57 556 q 83 735 38 651 q 221 678 153 686 q 358 686 289 669 q 499 738 428 703 q 646 811 571 772 q 642 901 639 856 q 660 992 644 947 q 742 1122 686 1067 q 867 1208 797 1176 q 1016 1245 938 1239 q 1168 1229 1094 1251 m 1015 622 q 1050 663 1026 624 q 1100 759 1074 701 q 1151 885 1126 817 q 1186 1014 1175 953 q 1190 1119 1197 1075 q 1149 1175 1183 1164 q 1060 1167 1107 1188 q 970 1112 1013 1147 q 895 1032 928 1076 q 850 953 863 988 q 833 897 839 922 q 867 909 850 904 q 901 919 883 914 q 960 935 939 931 q 992 935 982 939 q 1003 919 1003 932 q 1001 883 1004 906 q 983 679 981 740 q 1015 622 986 618 z "},"T":{"ha":771,"x_min":69,"x_max":1211,"o":"m 1171 1236 q 1199 1103 1211 1151 q 1113 1043 1186 1056 q 951 1038 1038 1031 q 775 1061 864 1046 q 599 1092 686 1076 q 438 1110 513 1107 q 304 1098 363 1114 q 213 1033 246 1082 q 285 990 261 1025 q 317 903 310 954 q 317 790 324 851 q 299 667 311 728 q 374 792 335 732 q 453 901 414 851 q 533 988 493 950 q 608 1046 572 1025 q 675 1069 646 1067 q 723 1059 704 1072 q 751 1019 742 1046 q 758 953 760 992 q 660 888 713 939 q 556 763 608 838 q 456 596 504 688 q 368 408 407 504 q 303 219 329 313 q 269 50 276 126 q 277 -80 263 -26 q 335 -150 292 -133 q 271 -166 308 -164 q 197 -157 233 -168 q 132 -122 161 -146 q 92 -62 103 -99 q 88 118 69 8 q 153 353 107 228 q 180 463 163 400 q 214 592 197 525 q 242 724 231 658 q 255 843 254 790 q 240 931 256 896 q 186 971 225 965 q 174 981 186 971 q 148 1007 163 990 q 121 1047 133 1024 q 105 1094 108 1069 q 113 1144 101 1118 q 158 1193 124 1169 q 265 1239 210 1228 q 378 1247 319 1250 q 499 1229 438 1243 q 626 1200 561 1215 q 758 1173 692 1185 q 894 1161 825 1161 q 1032 1178 963 1161 q 1171 1236 1101 1194 z "},"U":{"ha":1300,"x_min":-11,"x_max":1732,"o":"m 1656 1247 q 1719 1202 1707 1247 q 1715 1085 1732 1157 q 1568 1075 1646 1111 q 1414 962 1490 1039 q 1267 777 1338 885 q 1139 551 1196 669 q 1044 317 1082 433 q 994 103 1006 200 q 1005 -58 983 7 q 1088 -135 1026 -122 q 1055 -152 1074 -146 q 1016 -161 1036 -158 q 978 -165 996 -164 q 949 -167 960 -167 q 855 -141 888 -169 q 810 -65 822 -112 q 804 42 799 -18 q 824 162 810 101 q 856 277 838 222 q 889 371 874 332 q 844 283 874 336 q 775 170 814 229 q 690 51 736 111 q 597 -56 644 -8 q 500 -134 549 -104 q 407 -162 451 -164 q 301 -135 340 -161 q 246 -65 263 -108 q 231 35 229 -21 q 248 154 233 92 q 285 279 263 217 q 331 398 307 342 q 378 499 356 454 q 414 571 400 544 q 511 736 458 654 q 622 892 564 818 q 741 1030 679 967 q 865 1140 803 1093 q 725 1057 792 1108 q 597 947 658 1006 q 475 831 535 889 q 356 725 415 772 q 235 648 297 678 q 106 618 172 618 q 10 663 31 618 q 14 800 -11 708 q 148 776 85 772 q 270 806 211 779 q 386 874 329 832 q 503 966 443 917 q 629 1065 564 1015 q 770 1156 694 1115 q 933 1222 846 1196 q 1124 1247 1019 1247 q 1187 1202 1175 1247 q 1183 1085 1199 1157 q 1037 1072 1118 1108 q 872 956 956 1036 q 708 763 788 876 q 565 517 628 649 q 539 463 558 503 q 498 369 519 422 q 456 259 476 317 q 428 153 436 201 q 426 72 419 104 q 467 38 433 39 q 560 85 508 35 q 670 220 611 136 q 797 413 729 304 q 941 637 865 522 q 1099 860 1017 751 q 1272 1056 1182 969 q 1457 1194 1361 1142 q 1656 1247 1553 1247 z "},"V":{"ha":1390,"x_min":-11,"x_max":1861,"o":"m 1683 1286 q 1816 1267 1771 1303 q 1850 1140 1861 1232 q 1750 1168 1807 1181 q 1634 1092 1696 1156 q 1504 931 1572 1028 q 1363 713 1436 833 q 1210 470 1289 593 q 1047 231 1131 347 q 875 26 963 115 q 696 -117 788 -64 q 511 -167 604 -169 q 413 -119 446 -164 q 371 1 379 -74 q 378 174 363 76 q 426 381 393 272 q 510 601 460 489 q 622 817 560 714 q 753 1007 683 919 q 897 1153 824 1094 q 748 1074 818 1124 q 613 964 678 1024 q 488 843 549 904 q 365 732 426 782 q 239 650 303 682 q 106 618 175 618 q 10 663 31 618 q 14 800 -11 708 q 156 775 89 769 q 284 810 222 781 q 405 885 346 839 q 525 984 464 932 q 652 1088 586 1036 q 792 1177 718 1139 q 953 1235 867 1215 q 1140 1243 1039 1254 q 1151 1233 1143 1240 q 1166 1208 1158 1225 q 1178 1163 1174 1192 q 1176 1090 1182 1135 q 1149 1094 1167 1093 q 1119 1093 1131 1094 q 999 1038 1060 1086 q 880 917 938 990 q 771 751 822 843 q 678 563 719 658 q 608 376 636 467 q 570 212 581 285 q 569 94 560 139 q 613 44 578 49 q 744 84 678 38 q 879 213 811 131 q 1015 403 947 294 q 1152 626 1083 511 q 1289 853 1221 740 q 1424 1059 1357 967 q 1556 1213 1490 1151 q 1683 1286 1621 1274 z "},"W":{"ha":1563,"x_min":42,"x_max":2033,"o":"m 1856 1286 q 1988 1267 1943 1303 q 2022 1140 2033 1232 q 1922 1168 1979 1181 q 1789 1088 1854 1153 q 1660 925 1724 1022 q 1535 709 1597 828 q 1409 469 1472 590 q 1281 233 1346 347 q 1147 30 1215 118 q 1004 -111 1078 -58 q 851 -162 931 -164 q 775 -142 804 -161 q 730 -94 746 -124 q 710 -26 714 -64 q 711 51 707 11 q 631 -35 671 4 q 552 -102 590 -74 q 478 -146 514 -131 q 411 -161 443 -161 q 314 -119 344 -161 q 281 -3 283 -76 q 303 165 279 69 q 372 368 328 261 q 478 587 417 475 q 611 801 539 699 q 763 993 683 904 q 924 1143 842 1082 q 781 1060 849 1111 q 651 950 714 1008 q 529 833 589 892 q 410 726 469 774 q 288 648 350 678 q 158 618 226 618 q 63 663 83 618 q 67 800 42 708 q 201 776 138 772 q 323 806 264 779 q 439 874 382 832 q 556 966 496 917 q 682 1065 617 1015 q 823 1156 747 1115 q 985 1222 899 1196 q 1176 1247 1072 1247 q 1240 1202 1228 1247 q 1236 1085 1251 1157 q 1094 1071 1168 1104 q 944 968 1019 1038 q 799 803 869 899 q 668 606 728 708 q 563 403 608 504 q 492 223 517 303 q 467 94 467 143 q 500 43 468 44 q 571 72 531 42 q 655 154 611 103 q 743 272 699 206 q 829 411 788 339 q 906 556 871 483 q 963 690 940 628 q 996 797 986 751 q 996 864 1006 843 q 1101 906 1054 897 q 1177 899 1149 914 q 1211 848 1206 885 q 1193 756 1217 811 q 1166 706 1188 743 q 1115 619 1144 669 q 1051 506 1085 568 q 985 382 1017 444 q 929 260 954 319 q 894 154 904 201 q 890 77 883 107 q 929 43 897 47 q 1013 85 968 38 q 1110 216 1058 133 q 1217 406 1161 299 q 1333 628 1272 514 q 1456 854 1393 742 q 1585 1058 1519 967 q 1719 1210 1651 1149 q 1856 1286 1786 1272 z "},"X":{"ha":1500,"x_min":42,"x_max":1904,"o":"m 1828 1257 q 1892 1213 1879 1257 q 1888 1094 1904 1168 q 1739 1087 1815 1121 q 1590 978 1663 1053 q 1452 797 1517 903 q 1340 574 1388 690 q 1266 342 1292 458 q 1244 128 1240 225 q 1288 -35 1249 32 q 1408 -118 1326 -101 q 1356 -149 1381 -140 q 1308 -160 1331 -157 q 1188 -154 1238 -171 q 1106 -101 1138 -137 q 1061 -8 1075 -64 q 1049 117 1047 49 q 1065 265 1050 186 q 1107 426 1081 343 q 969 201 1046 310 q 807 11 893 93 q 628 -120 721 -71 q 444 -169 536 -169 q 381 -126 393 -171 q 385 -7 369 -81 q 546 -4 464 -36 q 705 101 628 28 q 851 277 782 174 q 974 494 921 381 q 1063 721 1028 607 q 1108 928 1099 835 q 1097 1084 1117 1021 q 1021 1158 1078 1147 q 906 1133 969 1169 q 769 1038 842 1097 q 619 905 697 978 q 462 768 540 832 q 306 661 383 704 q 158 618 229 618 q 63 663 83 618 q 67 800 42 708 q 200 776 138 772 q 321 806 263 779 q 435 874 379 832 q 549 965 492 917 q 665 1064 606 1014 q 792 1154 725 1114 q 934 1220 858 1194 q 1097 1246 1010 1246 q 1217 1203 1174 1246 q 1273 1088 1260 1161 q 1274 917 1286 1014 q 1226 711 1261 819 q 1353 919 1283 821 q 1502 1093 1424 1018 q 1663 1213 1581 1168 q 1828 1257 1746 1257 z "},"Y":{"ha":1353,"x_min":-11,"x_max":1771,"o":"m 1694 1244 q 1758 1199 1746 1244 q 1754 1082 1771 1154 q 1628 1073 1693 1103 q 1498 976 1564 1043 q 1368 810 1432 908 q 1247 596 1304 711 q 1140 354 1189 481 q 1053 105 1090 228 q 993 -131 1015 -18 q 968 -334 971 -244 q 983 -483 965 -424 q 1044 -558 1001 -543 q 1008 -570 1029 -567 q 967 -573 988 -574 q 927 -570 946 -572 q 897 -565 908 -568 q 810 -515 839 -556 q 774 -410 781 -474 q 781 -265 768 -346 q 817 -94 793 -183 q 874 85 842 -6 q 938 260 906 176 q 1000 414 971 343 q 1047 533 1029 485 q 1001 444 1031 499 q 932 331 971 390 q 847 213 893 272 q 753 106 801 153 q 658 28 706 58 q 565 0 610 -1 q 458 39 496 1 q 406 140 419 76 q 404 288 393 204 q 445 465 415 372 q 521 656 475 558 q 624 844 567 753 q 749 1014 682 935 q 888 1149 817 1093 q 741 1067 810 1118 q 608 958 672 1017 q 484 838 544 899 q 363 729 424 778 q 238 649 301 681 q 106 618 175 618 q 10 663 31 618 q 14 800 -11 708 q 148 776 85 772 q 271 807 211 781 q 389 877 331 833 q 509 970 447 921 q 638 1069 571 1019 q 781 1160 704 1119 q 945 1228 857 1201 q 1136 1254 1033 1254 q 1200 1209 1188 1254 q 1196 1092 1213 1164 q 1065 1091 1131 1115 q 937 1009 999 1067 q 819 870 875 951 q 719 700 764 789 q 642 524 675 611 q 592 366 608 436 q 578 251 576 296 q 606 206 581 207 q 694 246 647 203 q 793 361 740 289 q 905 527 846 433 q 1030 719 964 621 q 1169 912 1096 818 q 1326 1080 1243 1006 q 1500 1199 1408 1154 q 1694 1244 1592 1244 z "},"Z":{"ha":1208,"x_min":-3,"x_max":1244,"o":"m 983 1244 q 1115 1217 1061 1244 q 1199 1144 1168 1190 q 1238 1037 1231 1097 q 1229 912 1244 976 q 1175 783 1214 847 q 1074 665 1136 719 q 928 570 1013 610 q 735 515 843 531 q 906 388 844 465 q 987 220 967 311 q 990 31 1007 129 q 926 -161 972 -68 q 810 -335 881 -254 q 652 -474 739 -417 q 466 -557 565 -531 q 263 -565 367 -583 q 118 -510 175 -554 q 32 -400 61 -465 q 0 -256 3 -335 q 19 -96 -3 -176 q 87 60 42 -15 q 199 194 132 136 q 354 288 267 253 q 547 319 442 322 q 626 306 604 318 q 653 267 649 293 q 653 201 658 242 q 650 101 647 160 q 397 113 507 131 q 214 50 286 94 q 109 -56 142 6 q 86 -176 76 -118 q 151 -281 96 -235 q 308 -340 206 -328 q 478 -308 393 -342 q 637 -215 563 -274 q 769 -82 711 -157 q 858 72 826 -7 q 888 228 889 151 q 844 367 888 306 q 709 469 800 429 q 468 515 618 510 q 468 546 469 533 q 468 566 467 558 q 476 577 469 574 q 499 579 482 581 q 761 610 649 569 q 949 717 874 651 q 1062 864 1024 783 q 1104 1014 1100 944 q 1078 1131 1108 1083 q 983 1178 1047 1178 q 885 1155 931 1178 q 799 1095 839 1132 q 724 1010 758 1058 q 658 913 689 963 q 602 817 628 864 q 556 732 576 769 q 463 772 503 758 q 402 802 422 786 q 385 841 382 818 q 422 910 389 864 q 535 1035 471 975 q 672 1141 599 1094 q 824 1215 744 1188 q 983 1244 904 1243 z "},"`":{"ha":393,"x_min":64,"x_max":326,"o":"m 322 800 q 324 776 326 793 q 283 740 321 760 q 260 761 282 742 q 210 806 239 781 q 148 857 181 831 q 90 900 115 883 q 67 931 71 913 q 73 968 64 949 q 101 1006 82 988 q 147 1039 121 1025 q 194 970 168 1004 q 243 905 219 936 q 288 847 267 874 q 322 800 310 819 z "},"~":{"ha":1272,"x_min":114,"x_max":1110,"o":"m 1004 479 q 1096 379 1082 426 q 1051 283 1110 332 q 951 232 1004 243 q 841 228 897 221 q 726 253 785 235 q 610 290 668 272 q 498 321 553 308 q 393 328 443 333 q 299 292 343 322 q 221 194 256 261 q 128 295 142 247 q 172 392 114 343 q 276 446 222 435 q 387 450 331 457 q 501 423 443 443 q 615 383 558 403 q 725 351 671 364 q 829 343 779 338 q 924 379 879 349 q 1004 479 968 410 z "},"!":{"ha":835,"x_min":106,"x_max":771,"o":"m 571 1254 q 622 1247 593 1258 q 678 1216 650 1236 q 731 1169 706 1196 q 771 1115 756 1143 q 706 1085 743 1125 q 627 972 669 1044 q 538 802 585 899 q 444 601 492 706 q 351 394 397 497 q 261 207 304 292 q 236 178 253 192 q 200 176 219 165 l 211 210 q 259 360 232 278 q 315 528 286 442 q 374 701 344 614 q 433 869 404 789 q 571 1254 500 1058 m 176 154 q 228 132 207 154 q 249 78 249 110 q 228 24 249 46 q 176 1 207 1 q 126 24 147 1 q 106 78 106 46 q 126 132 106 110 q 176 154 147 154 z "},"@":{"ha":1346,"x_min":97,"x_max":1190,"o":"m 915 1094 q 1076 1040 1017 1089 q 1163 913 1136 990 q 1188 737 1190 835 q 1162 538 1186 639 q 1094 339 1138 436 q 997 167 1051 242 q 881 45 943 92 q 757 -1 819 -1 q 697 16 718 -1 q 667 63 675 33 q 663 133 658 93 q 683 219 668 174 q 617 136 651 176 q 549 65 583 96 q 482 17 515 35 q 418 -1 449 -1 q 342 31 364 -1 q 324 117 321 64 q 351 237 326 169 q 413 374 375 304 q 499 512 451 444 q 599 632 547 579 q 700 717 650 685 q 792 749 750 749 q 847 728 826 749 q 880 676 868 707 q 896 612 892 646 q 900 551 900 578 q 868 551 885 525 q 819 633 864 631 q 744 601 786 633 q 660 522 701 569 q 584 418 619 474 q 528 314 549 363 q 505 233 507 265 q 529 199 503 200 q 590 215 561 197 q 644 262 618 233 q 696 326 671 290 q 745 395 721 361 q 794 458 769 429 q 846 500 819 486 q 901 510 872 514 q 961 475 929 506 q 899 381 926 429 q 856 292 871 332 q 842 226 842 251 q 867 199 843 200 q 949 228 907 196 q 1026 313 990 260 q 1092 433 1063 365 q 1135 574 1121 501 q 1148 715 1150 646 q 1122 840 1146 785 q 1047 929 1097 894 q 914 967 996 964 q 713 924 811 969 q 532 803 615 879 q 382 627 449 726 q 274 425 315 528 q 222 223 233 322 q 237 46 211 124 q 328 -79 263 -32 q 510 -125 394 -126 q 501 -174 504 -154 q 493 -205 499 -193 q 476 -222 488 -217 q 440 -228 464 -226 q 230 -176 306 -232 q 126 -26 154 -121 q 113 189 97 68 q 178 436 129 310 q 306 683 228 563 q 481 897 383 804 q 689 1045 578 990 q 915 1094 800 1100 z "},"#":{"ha":1454,"x_min":158,"x_max":1333,"o":"m 1136 1168 q 1188 1156 1160 1169 q 1244 1117 1217 1142 q 1296 1062 1272 1093 q 1333 1000 1319 1031 q 1276 976 1310 1010 q 1200 878 1242 943 q 1110 724 1158 814 q 1010 533 1061 635 q 1107 500 1061 517 q 1193 467 1153 483 q 1218 449 1207 461 q 1222 419 1229 436 l 1196 426 q 1095 451 1149 438 q 982 479 1042 464 l 903 318 q 1006 293 956 306 q 1099 267 1056 281 q 1125 250 1113 261 q 1131 222 1138 239 l 1103 226 q 996 242 1054 233 q 875 263 938 251 q 756 33 814 142 q 650 -154 699 -75 q 621 -181 639 -169 q 583 -181 603 -193 l 597 -147 q 678 45 632 -65 q 774 281 724 156 l 467 338 q 340 89 401 208 q 225 -114 278 -31 q 196 -141 214 -129 q 158 -140 178 -153 l 172 -107 l 364 357 q 286 372 321 365 q 226 383 251 378 q 174 394 197 389 q 173 435 168 411 q 190 485 178 460 q 221 533 203 510 q 260 574 239 557 q 292 506 253 536 q 401 449 332 475 q 436 534 419 492 q 471 618 453 576 q 394 639 428 629 q 335 656 360 649 q 282 671 306 664 q 285 711 278 688 q 306 759 292 735 q 341 806 321 783 q 383 842 361 828 q 407 774 372 807 q 508 710 442 742 q 587 903 550 813 q 651 1061 624 993 q 711 1208 683 1140 q 763 1196 735 1210 q 819 1158 792 1182 q 871 1103 847 1133 q 908 1042 894 1072 q 858 1024 888 1050 q 793 945 829 997 q 715 819 757 893 q 629 660 674 746 q 757 615 690 636 q 893 571 824 593 q 985 797 942 690 q 1063 988 1029 904 q 1136 1168 1101 1085 m 800 343 q 833 426 817 383 q 868 508 850 468 l 590 585 l 506 415 q 647 378 572 396 q 800 343 722 360 z "},"$":{"ha":1072,"x_min":60,"x_max":1001,"o":"m 915 1090 q 984 995 967 1051 q 995 876 1001 939 q 962 751 989 814 q 897 640 935 689 q 813 559 858 590 q 724 528 767 528 q 665 542 688 529 q 628 575 642 554 q 612 543 619 560 q 596 510 604 526 q 641 387 619 447 q 663 260 663 326 q 639 126 663 185 q 576 25 615 67 q 488 -38 538 -17 q 383 -60 438 -60 q 348 -58 365 -60 q 315 -54 331 -57 q 285 -110 300 -83 q 256 -158 269 -136 q 226 -187 244 -175 q 189 -185 208 -199 q 195 -168 192 -176 q 203 -151 199 -160 l 250 -39 q 143 26 185 -17 q 81 119 101 68 q 60 225 60 169 q 78 331 60 281 q 132 419 96 381 q 219 478 168 458 q 285 488 253 490 q 344 474 317 486 q 397 440 372 461 q 439 392 421 418 l 489 504 q 441 606 465 554 q 401 712 417 658 q 384 819 386 765 q 401 926 382 872 q 461 1026 422 983 q 551 1097 500 1069 q 659 1137 601 1125 q 775 1142 717 1149 q 789 1173 782 1160 q 800 1196 796 1186 q 808 1215 806 1207 q 856 1215 832 1217 q 903 1203 881 1213 q 946 1176 926 1194 q 979 1126 965 1157 q 915 1090 957 1136 m 254 432 q 217 383 228 422 q 213 294 206 343 q 247 199 219 246 q 324 131 274 153 l 379 254 q 363 310 372 275 q 338 375 353 344 q 303 424 324 406 q 254 432 282 442 m 746 1078 q 694 1054 722 1076 q 640 997 667 1032 q 590 917 613 963 q 553 824 567 872 q 538 729 539 776 q 551 642 536 682 q 595 751 578 701 q 631 849 613 800 q 676 953 650 899 q 746 1078 701 1008 m 704 611 q 726 633 711 613 q 758 688 740 654 q 793 763 775 721 q 826 848 811 804 q 849 934 840 892 q 857 1010 857 976 q 772 862 817 947 q 676 676 726 776 q 704 611 676 607 m 565 265 q 558 327 565 296 q 539 390 550 358 q 470 249 504 318 q 403 113 436 179 q 459 122 431 113 q 511 151 488 132 q 550 198 535 169 q 565 265 565 226 z "},"%":{"ha":851,"x_min":0,"x_max":750,"o":"m 553 1168 q 605 1156 576 1169 q 661 1117 633 1142 q 713 1062 689 1093 q 750 1000 736 1031 q 696 979 728 1010 q 624 890 664 949 q 540 748 585 831 q 446 571 494 665 q 347 375 397 476 q 248 178 297 274 q 153 -4 199 82 q 67 -154 107 -90 q 38 -181 56 -169 q 0 -181 19 -193 l 14 -147 q 82 17 43 -76 q 165 217 121 111 q 254 434 208 322 q 343 651 300 546 q 553 1168 444 900 m 199 789 q 147 836 163 804 q 133 906 132 868 q 151 981 135 943 q 192 1046 167 1018 q 251 1087 218 1074 q 322 1089 285 1100 q 382 1044 364 1076 q 399 974 400 1013 q 382 894 399 935 q 338 825 365 854 q 274 783 310 796 q 199 789 238 771 m 508 318 q 568 274 550 306 q 585 203 586 242 q 568 124 585 164 q 524 54 551 83 q 460 13 496 25 q 385 18 424 0 q 333 65 349 33 q 319 133 318 96 q 337 208 321 171 q 378 274 353 246 q 438 315 404 301 q 508 318 471 329 m 400 50 q 433 54 415 42 q 468 91 451 67 q 497 147 485 115 q 516 206 510 178 q 519 254 522 233 q 499 279 515 275 q 452 253 478 283 q 408 181 426 222 q 385 100 390 139 q 400 50 381 61 m 313 1050 q 282 1039 299 1053 q 250 1002 265 1025 q 222 951 235 979 q 203 896 210 922 q 199 849 197 869 q 214 822 201 829 q 247 826 229 814 q 281 863 265 839 q 310 918 297 888 q 329 977 324 949 q 332 1026 335 1006 q 313 1050 329 1046 z "},"'":{"ha":550,"x_min":169,"x_max":397,"o":"m 169 1183 q 218 1201 189 1194 q 279 1206 247 1207 q 342 1194 311 1204 q 397 1164 374 1185 q 388 1151 394 1154 q 370 1140 381 1147 q 347 1116 360 1132 q 319 1065 333 1100 q 290 971 304 1031 q 263 818 275 911 q 249 783 260 800 q 217 769 238 765 q 215 787 215 778 q 215 804 215 796 q 210 931 213 876 q 203 1025 207 985 q 197 1092 200 1065 q 189 1138 193 1119 q 169 1183 181 1179 z "},"^":{"ha":679,"x_min":94,"x_max":586,"o":"m 446 1228 q 507 1039 479 1124 q 530 967 518 1003 q 551 903 542 932 q 567 855 560 875 q 575 831 574 835 q 581 816 578 826 q 586 799 583 806 q 551 801 567 788 q 526 829 535 814 q 467 944 496 889 q 413 1040 442 992 q 364 1117 385 1089 q 338 1083 353 1103 q 307 1039 324 1063 q 272 990 290 1015 q 238 942 254 965 q 154 822 197 886 q 130 794 146 807 q 94 792 114 781 l 104 825 l 300 1242 q 324 1246 301 1242 q 372 1251 346 1250 q 420 1247 397 1251 q 446 1228 443 1243 m 576 831 q 575 831 576 829 q 576 831 575 833 z "},"(":{"ha":644,"x_min":-3,"x_max":865,"o":"m 689 1296 q 821 1272 776 1310 q 851 1143 865 1235 q 804 1172 829 1165 q 751 1175 779 1179 q 634 1113 694 1164 q 515 984 574 1063 q 402 807 457 906 q 301 601 347 708 q 222 387 256 494 q 172 183 189 279 q 156 10 154 88 q 183 -112 157 -67 q 271 -167 211 -162 q 143 -240 203 -246 q 38 -158 83 -235 q 1 -13 4 -103 q 17 186 -3 76 q 76 417 36 296 q 169 659 115 539 q 288 890 224 779 q 419 1087 351 1000 q 556 1230 488 1174 q 689 1296 625 1286 z "},")":{"ha":704,"x_min":-219,"x_max":660,"o":"m 621 1215 q 657 1070 654 1160 q 639 871 660 981 q 577 640 618 761 q 482 399 536 518 q 363 169 428 279 q 228 -27 297 60 q 90 -169 160 -114 q -43 -233 21 -224 q -175 -208 -131 -246 q -204 -79 -219 -171 q -104 -111 -161 -122 q 13 -51 -47 -101 q 133 76 74 -1 q 249 253 193 154 q 351 458 304 351 q 433 672 397 564 q 486 875 468 779 q 503 1047 504 971 q 476 1169 501 1124 q 441 1208 463 1193 q 389 1225 419 1222 q 517 1297 458 1303 q 621 1215 576 1290 z "},"_":{"ha":1315,"x_min":158,"x_max":1108,"o":"m 1075 -6 q 1099 -22 1090 -7 q 1106 -56 1108 -37 q 1092 -56 1099 -56 q 1078 -57 1085 -56 q 949 -63 1019 -61 q 803 -67 878 -65 q 651 -71 728 -69 q 503 -74 574 -72 q 163 -78 335 -76 q 159 -55 158 -71 q 163 -22 160 -39 q 172 7 167 -6 q 181 22 176 19 q 234 10 186 14 q 356 3 282 6 q 522 1 429 1 q 713 0 615 0 q 904 -1 810 0 q 1075 -6 999 -3 z "},"\\":{"ha":1033,"x_min":108,"x_max":881,"o":"m 867 -147 q 874 -164 871 -156 q 881 -181 878 -172 q 843 -181 861 -193 q 814 -154 825 -169 q 726 -1 774 -90 q 629 190 679 88 q 526 399 579 292 q 424 609 474 507 q 326 801 374 711 q 237 956 278 890 q 163 1055 196 1021 q 108 1079 131 1089 q 146 1140 122 1110 q 197 1195 169 1171 q 253 1233 225 1219 q 306 1246 282 1247 q 526 690 419 956 q 619 459 572 578 q 712 229 667 340 q 797 21 757 118 q 867 -147 838 -76 z "},"|":{"ha":732,"x_min":214,"x_max":464,"o":"m 214 1238 q 267 1248 235 1249 q 334 1237 299 1247 q 404 1208 369 1226 q 464 1168 439 1190 q 424 1126 440 1168 q 397 1015 408 1085 q 379 850 386 944 q 368 649 372 756 q 360 431 364 543 q 353 210 357 318 q 344 6 350 103 q 328 -167 338 -92 q 313 -204 325 -186 q 278 -219 301 -222 q 277 -201 278 -210 q 276 -183 276 -192 q 269 -5 274 -107 q 260 211 265 97 q 251 446 256 325 q 240 681 246 567 q 214 1238 228 949 z "},"/":{"ha":1128,"x_min":168,"x_max":940,"o":"m 743 1246 q 795 1233 767 1247 q 851 1195 824 1219 q 903 1140 879 1171 q 940 1079 926 1110 q 885 1055 918 1089 q 812 956 853 1021 q 723 801 771 890 q 625 609 675 711 q 522 399 575 507 q 419 190 469 292 q 322 -1 369 88 q 235 -154 275 -90 q 206 -181 224 -169 q 168 -181 188 -193 l 182 -147 q 251 21 211 -76 q 337 229 292 118 q 429 459 382 340 q 522 690 476 578 q 743 1246 629 956 z "},"*":{"ha":638,"x_min":172,"x_max":492,"o":"m 374 1074 q 419 1042 397 1057 q 456 1015 440 1026 q 490 990 474 1001 q 476 967 486 981 q 453 941 467 954 q 426 916 440 928 q 399 897 411 904 q 406 958 422 926 q 356 1021 389 989 q 354 964 356 992 q 349 913 353 936 q 342 902 349 907 q 325 899 336 897 q 324 903 325 901 q 324 907 324 904 q 317 965 319 933 q 311 1032 314 997 q 265 953 279 990 q 281 889 250 917 q 251 902 267 893 q 219 922 235 911 q 192 943 204 932 q 174 964 179 954 q 201 993 186 978 q 231 1024 214 1007 q 267 1060 247 1040 q 235 1051 249 1054 q 210 1044 221 1047 q 188 1039 197 1040 q 178 1065 182 1049 q 174 1099 175 1081 q 172 1135 172 1117 q 175 1168 172 1154 q 219 1124 183 1132 q 304 1124 256 1117 q 302 1163 303 1144 q 300 1196 301 1182 q 299 1225 299 1211 q 325 1228 308 1228 q 360 1226 342 1228 q 397 1220 379 1224 q 428 1211 415 1217 q 383 1188 397 1211 q 363 1128 368 1164 q 443 1142 410 1129 q 479 1192 476 1154 q 486 1160 483 1178 q 490 1123 489 1142 q 491 1088 492 1104 q 486 1061 490 1071 l 374 1074 z "},"-":{"ha":1279,"x_min":274,"x_max":996,"o":"m 963 546 q 987 531 978 546 q 993 497 996 515 q 978 496 986 496 q 964 496 971 496 q 725 484 846 489 q 504 476 604 479 q 278 472 388 472 q 274 495 274 479 q 278 528 275 511 q 287 558 282 544 q 296 572 292 571 q 367 556 306 560 q 523 552 429 553 q 732 551 617 551 q 963 546 847 551 z "},"+":{"ha":1163,"x_min":193,"x_max":915,"o":"m 882 546 q 906 531 897 546 q 913 497 915 515 q 898 496 906 496 q 883 496 890 496 q 734 488 810 490 q 586 482 658 485 q 583 321 585 404 q 575 154 581 238 q 558 131 574 139 q 525 125 543 122 q 525 139 525 132 q 524 153 525 146 q 519 317 521 233 q 515 479 517 400 q 390 476 447 476 q 289 474 332 475 q 197 472 239 472 q 194 495 193 479 q 198 528 194 511 q 206 558 201 544 q 215 572 211 571 q 246 561 221 565 q 310 555 271 557 q 401 552 350 553 q 514 551 453 551 q 513 667 513 614 q 513 758 513 719 l 513 840 q 537 844 521 844 q 569 839 553 843 q 598 830 585 835 q 613 821 611 825 q 601 793 606 815 q 594 735 597 771 q 590 653 592 700 q 588 551 589 606 q 733 550 658 551 q 882 546 807 549 z "},"=":{"ha":1332,"x_min":269,"x_max":992,"o":"m 960 628 q 721 617 842 621 q 500 610 600 613 q 274 606 383 607 q 270 628 269 613 q 274 661 271 644 q 283 690 278 678 q 292 706 288 703 q 363 690 301 693 q 519 685 425 686 q 728 685 613 685 q 958 679 843 685 q 983 663 974 678 q 989 631 992 649 l 960 628 m 958 419 q 983 403 974 418 q 989 371 992 389 l 960 368 q 721 357 842 361 q 500 350 600 353 q 274 346 383 347 q 270 369 269 353 q 274 401 271 385 q 283 431 278 418 q 292 446 288 443 q 363 430 301 433 q 519 426 425 426 q 728 425 613 425 q 958 419 843 425 z "},";":{"ha":897,"x_min":263,"x_max":601,"o":"m 529 753 q 581 731 560 753 q 601 676 601 708 q 581 622 601 644 q 529 600 560 600 q 479 622 500 600 q 458 676 458 644 q 479 731 458 708 q 529 753 500 753 m 363 356 q 417 332 400 356 q 435 276 433 308 q 422 206 436 242 q 385 151 408 171 q 329 133 361 131 q 263 174 297 135 q 319 190 303 185 q 336 208 336 196 q 328 221 336 214 q 312 237 321 228 q 296 258 303 246 q 289 285 289 269 q 313 333 290 311 q 363 356 335 356 z "},":":{"ha":878,"x_min":294,"x_max":601,"o":"m 529 753 q 581 731 560 753 q 601 676 601 708 q 581 622 601 644 q 529 600 560 600 q 479 622 500 600 q 458 676 458 644 q 479 731 458 708 q 529 753 500 753 m 365 356 q 417 333 396 356 q 438 279 438 311 q 417 225 438 247 q 365 203 396 203 q 315 225 336 203 q 294 279 294 247 q 315 333 294 311 q 365 356 336 356 z "},".":{"ha":529,"x_min":207,"x_max":350,"o":"m 278 151 q 329 129 308 151 q 350 75 350 107 q 329 21 350 43 q 278 -1 308 -1 q 228 21 249 -1 q 207 75 207 43 q 228 129 207 107 q 278 151 249 151 z "},",":{"ha":490,"x_min":115,"x_max":289,"o":"m 288 72 q 275 2 289 38 q 238 -53 261 -33 q 182 -72 214 -74 q 115 -31 150 -69 q 172 -14 156 -19 q 189 3 189 -8 q 181 16 189 8 q 165 33 174 24 q 149 53 156 42 q 142 81 142 65 q 165 129 143 107 q 215 151 188 151 q 269 128 253 151 q 288 72 286 104 z "},"<":{"ha":831,"x_min":108,"x_max":668,"o":"m 567 814 q 603 790 585 806 q 637 756 622 774 q 660 720 651 739 q 667 686 668 701 q 514 618 594 654 q 358 547 444 586 q 182 468 271 508 q 331 356 256 411 q 472 260 407 300 q 581 203 536 221 q 639 204 626 185 q 639 157 642 182 q 629 109 636 132 q 611 68 622 86 q 588 43 600 50 q 470 140 529 89 q 353 244 411 192 q 237 345 294 296 q 124 436 179 394 q 111 454 114 443 q 108 477 108 465 q 110 499 108 489 q 114 511 113 508 q 283 603 199 557 q 433 690 368 649 q 537 763 499 731 q 567 814 575 794 z "},">":{"ha":669,"x_min":56,"x_max":615,"o":"m 608 511 q 612 499 610 508 q 615 477 614 489 q 612 454 615 465 q 600 436 608 443 q 487 345 544 394 q 371 244 429 296 q 253 140 313 192 q 136 43 194 89 q 113 68 124 50 q 94 109 101 86 q 85 157 88 132 q 85 204 82 182 q 142 203 97 185 q 252 260 188 221 q 392 356 317 300 q 542 468 468 411 q 365 547 451 508 q 210 618 279 586 q 57 686 129 654 q 64 720 56 701 q 87 756 72 739 q 119 790 101 774 q 157 814 138 806 q 187 763 149 794 q 290 690 225 731 q 440 603 356 649 q 608 511 524 557 z "},"{":{"ha":778,"x_min":-3,"x_max":918,"o":"m 263 768 q 347 746 313 735 q 409 797 382 757 q 460 895 436 836 q 510 1015 483 954 q 569 1131 536 1076 q 651 1215 603 1185 q 763 1241 699 1244 q 918 1185 828 1238 q 908 1160 911 1169 q 890 1157 904 1150 q 803 1165 840 1178 q 738 1118 767 1153 q 684 1033 708 1083 q 636 929 660 983 q 585 824 613 875 q 524 738 558 774 q 445 686 490 701 q 340 689 400 671 q 395 585 388 639 q 385 478 403 532 q 331 369 367 424 q 256 263 294 315 q 186 160 218 210 q 142 65 154 110 q 147 -21 131 19 q 225 -93 164 -61 q 215 -117 219 -104 q 200 -125 211 -129 q 47 -39 92 -89 q -1 69 1 11 q 29 190 -3 126 q 105 318 61 254 q 194 442 149 382 q 268 555 240 503 q 294 649 296 607 q 243 714 293 690 q 238 725 236 718 q 243 740 239 732 q 253 756 247 749 q 263 768 260 764 z "},"}":{"ha":813,"x_min":-186,"x_max":735,"o":"m 489 401 q 494 392 496 399 q 489 376 493 385 q 478 360 485 368 q 469 347 472 353 q 385 370 419 382 q 323 319 350 358 q 272 220 296 279 q 222 100 249 161 q 163 -15 196 39 q 81 -99 129 -69 q -31 -126 33 -129 q -186 -69 -96 -122 q -176 -44 -179 -54 q -158 -40 -172 -33 q -72 -49 -108 -61 q -6 -1 -35 -36 q 48 83 24 33 q 96 187 72 133 q 146 292 119 240 q 207 379 172 343 q 286 431 242 415 q 392 428 331 446 q 336 531 343 478 q 347 639 329 585 q 401 747 365 693 q 476 853 438 801 q 546 956 514 906 q 590 1051 578 1006 q 585 1137 601 1097 q 507 1210 568 1176 q 517 1233 513 1221 q 532 1242 521 1244 q 685 1156 640 1206 q 733 1047 731 1106 q 703 926 735 989 q 627 799 671 863 q 538 674 583 735 q 464 560 492 613 q 438 467 436 508 q 489 401 439 425 z "},"[":{"ha":785,"x_min":-1,"x_max":951,"o":"m 554 1269 q 593 1265 561 1271 q 668 1251 625 1260 q 760 1229 711 1242 q 851 1202 810 1217 q 922 1172 893 1188 q 951 1142 950 1157 q 946 1109 949 1124 q 938 1081 943 1094 q 922 1055 932 1068 q 894 1026 913 1042 q 882 1052 897 1039 q 842 1077 867 1065 q 788 1099 817 1089 q 732 1116 758 1108 q 687 1127 706 1124 q 667 1131 668 1131 q 613 1044 646 1101 q 542 913 581 988 q 463 753 504 839 q 381 582 421 668 q 308 416 342 496 q 249 273 274 336 q 214 169 225 210 q 210 121 203 128 q 272 88 240 101 q 331 69 300 76 q 389 74 361 63 q 367 -10 386 25 q 322 -71 347 -46 q 297 -59 322 -71 q 237 -28 272 -47 q 159 13 201 -10 q 81 56 117 35 q 22 96 46 78 q 0 124 -1 114 q 114 343 63 244 q 210 529 165 442 q 294 699 254 617 q 376 867 335 781 q 460 1052 417 954 q 554 1269 503 1150 z "},"]":{"ha":839,"x_min":-207,"x_max":769,"o":"m 439 1217 q 464 1204 439 1217 q 526 1173 489 1192 q 606 1131 564 1154 q 685 1085 649 1107 q 746 1045 722 1064 q 769 1017 769 1026 q 652 791 704 893 q 554 599 600 689 q 467 426 508 510 q 383 252 425 342 q 297 62 342 163 q 200 -161 253 -39 q 160 -157 193 -162 q 83 -142 128 -151 q -11 -119 39 -132 q -104 -91 -61 -106 q -176 -60 -147 -76 q -207 -29 -206 -44 q -201 4 -204 -11 q -193 33 -199 19 q -178 60 -187 46 q -149 89 -168 74 q -135 63 -151 76 q -94 38 -119 50 q -39 15 -69 25 q 19 -3 -8 4 q 65 -15 46 -11 q 85 -18 83 -19 q 140 70 107 11 q 213 205 174 129 q 295 369 253 281 q 378 545 338 457 q 453 716 418 633 q 514 863 489 799 q 550 969 539 928 q 554 1018 561 1011 q 490 1053 522 1038 q 430 1072 463 1064 q 369 1068 397 1079 q 393 1153 374 1117 q 439 1217 413 1189 z "},"":{"ha":575,"x_min":174,"x_max":386,"o":"m 303 1071 q 349 1038 329 1057 q 377 1000 368 1019 q 383 963 386 981 q 361 932 379 944 q 311 898 336 915 q 266 867 286 881 q 233 842 246 853 q 218 831 219 832 q 177 866 181 850 q 179 889 174 882 q 205 926 192 908 q 233 965 218 944 q 265 1011 247 986 q 303 1071 282 1036 z "},"":{"ha":564,"x_min":192,"x_max":385,"o":"m 329 1058 q 372 1026 360 1049 q 385 974 385 1003 q 372 917 385 946 q 340 867 360 888 q 294 837 321 846 q 240 840 268 828 q 203 875 214 851 q 193 925 192 899 q 206 978 194 951 q 235 1026 217 1006 q 277 1057 253 1047 q 329 1058 301 1067 m 251 865 q 288 878 268 856 q 322 934 308 901 q 338 997 335 967 q 322 1031 340 1026 q 288 1011 307 1033 q 257 958 269 989 q 241 900 244 928 q 251 865 238 872 z "},"":{"ha":826,"x_min":203,"x_max":643,"o":"m 579 956 q 629 908 615 932 q 618 863 643 885 q 558 837 589 838 q 495 846 526 836 q 433 870 464 856 q 372 890 401 885 q 317 883 343 894 q 269 832 290 872 q 236 856 251 844 q 212 880 221 868 q 203 903 203 892 q 215 925 203 914 q 277 951 244 950 q 343 942 310 953 q 409 917 376 932 q 472 897 442 903 q 530 903 503 892 q 579 956 557 914 z "},"":{"ha":617,"x_min":150,"x_max":414,"o":"m 414 838 q 394 839 403 832 q 382 854 386 846 q 350 917 365 888 q 321 967 336 942 q 294 1008 306 993 q 264 967 283 993 q 226 915 244 942 q 182 851 204 885 q 169 835 178 842 q 150 835 161 829 l 156 851 l 260 1076 q 273 1078 261 1076 q 299 1081 285 1081 q 324 1080 313 1082 q 339 1069 336 1078 q 374 961 358 1008 q 398 888 388 921 q 408 856 408 854 l 414 838 z "},"":{"ha":606,"x_min":131,"x_max":450,"o":"m 201 986 q 253 964 232 986 q 274 910 274 942 q 253 856 274 878 q 201 833 232 833 q 151 856 172 833 q 131 910 131 878 q 151 964 131 942 q 201 986 172 986 m 378 986 q 429 964 408 986 q 450 910 450 942 q 429 856 450 878 q 378 833 408 833 q 328 856 349 833 q 307 910 307 878 q 328 964 307 942 q 378 986 349 986 z "},"":{"ha":613,"x_min":-382,"x_max":640,"o":"m 489 738 q 526 749 503 747 q 572 743 549 751 q 615 714 596 735 q 640 657 633 693 q 542 532 590 610 q 446 359 493 454 q 351 158 399 264 q 254 -51 304 53 q 152 -249 204 -154 q 43 -415 100 -343 q -76 -528 -14 -486 q -207 -571 -137 -571 q -318 -538 -279 -571 q -369 -455 -357 -506 q -372 -342 -382 -404 q -334 -222 -361 -281 q -266 -112 -307 -162 q -177 -37 -225 -62 q -78 -15 -129 -11 q 21 -69 -28 -19 q -53 -99 -17 -74 q -122 -159 -90 -124 q -178 -236 -154 -194 q -215 -315 -203 -278 q -224 -379 -226 -351 q -200 -414 -222 -407 q -158 -399 -183 -419 q -104 -342 -133 -379 q -42 -255 -75 -306 q 22 -150 -10 -204 q 83 -40 53 -96 q 136 63 113 15 q 176 144 160 110 q 200 193 193 179 q 139 119 171 154 q 76 57 107 83 q 15 15 44 31 q -43 0 -15 0 q -119 30 -97 0 q -140 110 -142 60 q -117 224 -137 160 q -65 355 -96 288 q 1 488 -35 422 q 67 606 36 553 q 121 695 99 660 q 147 738 143 731 q 184 749 161 747 q 231 743 207 751 q 274 714 254 735 q 300 657 293 693 q 269 617 296 653 q 208 531 243 582 q 136 423 172 481 q 76 316 100 365 q 46 233 51 267 q 67 199 40 200 q 134 226 96 197 q 211 297 172 254 q 286 389 250 340 q 347 475 322 438 q 378 538 360 504 q 415 607 396 572 q 453 675 435 642 q 489 738 472 708 m 311 986 q 363 964 342 986 q 383 910 383 942 q 363 856 383 878 q 311 833 342 833 q 261 856 282 833 q 240 910 240 878 q 261 964 240 942 q 311 986 282 986 m 488 986 q 539 964 518 986 q 560 910 560 942 q 539 856 560 878 q 488 833 518 833 q 438 856 458 833 q 417 910 417 878 q 438 964 417 942 q 488 986 458 986 z "},"":{"ha":613,"x_min":-382,"x_max":640,"o":"m 489 738 q 526 749 503 747 q 572 743 549 751 q 615 714 596 735 q 640 657 633 693 q 542 532 590 610 q 446 359 493 454 q 351 158 399 264 q 254 -51 304 53 q 152 -249 204 -154 q 43 -415 100 -343 q -76 -528 -14 -486 q -207 -571 -137 -571 q -318 -538 -279 -571 q -369 -455 -357 -506 q -372 -342 -382 -404 q -334 -222 -361 -281 q -266 -112 -307 -162 q -177 -37 -225 -62 q -78 -15 -129 -11 q 21 -69 -28 -19 q -53 -99 -17 -74 q -122 -159 -90 -124 q -178 -236 -154 -194 q -215 -315 -203 -278 q -224 -379 -226 -351 q -200 -414 -222 -407 q -158 -399 -183 -419 q -104 -342 -133 -379 q -42 -255 -75 -306 q 22 -150 -10 -204 q 83 -40 53 -96 q 136 63 113 15 q 176 144 160 110 q 200 193 193 179 q 139 119 171 154 q 76 57 107 83 q 15 15 44 31 q -43 0 -15 0 q -119 30 -97 0 q -140 110 -142 60 q -117 224 -137 160 q -65 355 -96 288 q 1 488 -35 422 q 67 606 36 553 q 121 695 99 660 q 147 738 143 731 q 184 749 161 747 q 231 743 207 751 q 274 714 254 735 q 300 657 293 693 q 269 617 296 653 q 208 531 243 582 q 136 423 172 481 q 76 316 100 365 q 46 233 51 267 q 67 199 40 200 q 134 226 96 197 q 211 297 172 254 q 286 389 250 340 q 347 475 322 438 q 378 538 360 504 q 415 607 396 572 q 453 675 435 642 q 489 738 472 708 m 478 1071 q 524 1038 504 1057 q 552 1000 543 1019 q 558 963 561 981 q 536 932 554 944 q 486 898 511 915 q 441 867 461 881 q 408 842 421 853 q 393 831 394 832 q 352 866 356 850 q 354 889 349 882 q 380 926 367 908 q 408 965 393 944 q 440 1011 422 986 q 478 1071 457 1036 z "},"":{"ha":699,"x_min":-142,"x_max":735,"o":"m 735 475 q 690 399 718 446 q 626 300 661 353 q 551 194 592 247 q 469 97 511 140 q 385 27 426 54 q 307 0 344 0 q 240 20 263 0 q 213 74 218 40 q 216 154 207 108 q 243 251 225 200 q 173 159 210 204 q 99 78 136 114 q 26 22 63 43 q -43 0 -10 0 q -120 30 -99 0 q -140 110 -142 60 q -118 224 -139 160 q -67 355 -97 288 q 0 488 -36 422 q 67 606 36 553 q 121 695 99 660 q 147 738 143 731 q 184 749 161 747 q 231 743 207 751 q 273 714 254 735 q 299 657 292 693 q 268 617 294 653 q 207 531 242 582 q 136 423 172 481 q 76 316 100 365 q 46 233 51 267 q 67 199 40 200 q 128 223 93 197 q 201 288 164 249 q 273 372 238 326 q 335 456 308 417 q 390 557 363 508 q 441 644 418 606 q 479 707 464 682 q 499 738 494 732 q 535 749 513 747 q 582 743 558 751 q 624 714 606 735 q 650 657 643 693 q 619 617 646 653 q 558 531 593 582 q 487 423 524 481 q 426 316 450 365 q 396 233 401 267 q 417 199 390 200 q 484 226 446 197 q 562 297 522 254 q 638 389 601 340 q 699 475 674 438 l 735 475 m 344 986 q 396 964 375 986 q 417 910 417 942 q 396 856 417 878 q 344 833 375 833 q 294 856 315 833 q 274 910 274 878 q 294 964 274 942 q 344 986 315 986 m 521 986 q 572 964 551 986 q 593 910 593 942 q 572 856 593 878 q 521 833 551 833 q 471 856 492 833 q 450 910 450 878 q 471 964 450 942 q 521 986 492 986 z "},"":{"ha":699,"x_min":-142,"x_max":735,"o":"m 735 475 q 690 399 718 446 q 626 300 661 353 q 551 194 592 247 q 469 97 511 140 q 385 27 426 54 q 307 0 344 0 q 240 20 263 0 q 213 74 218 40 q 216 154 207 108 q 243 251 225 200 q 173 159 210 204 q 99 78 136 114 q 26 22 63 43 q -43 0 -10 0 q -120 30 -99 0 q -140 110 -142 60 q -118 224 -139 160 q -67 355 -97 288 q 0 488 -36 422 q 67 606 36 553 q 121 695 99 660 q 147 738 143 731 q 184 749 161 747 q 231 743 207 751 q 273 714 254 735 q 299 657 292 693 q 268 617 294 653 q 207 531 242 582 q 136 423 172 481 q 76 316 100 365 q 46 233 51 267 q 67 199 40 200 q 128 223 93 197 q 201 288 164 249 q 273 372 238 326 q 335 456 308 417 q 390 557 363 508 q 441 644 418 606 q 479 707 464 682 q 499 738 494 732 q 535 749 513 747 q 582 743 558 751 q 624 714 606 735 q 650 657 643 693 q 619 617 646 653 q 558 531 593 582 q 487 423 524 481 q 426 316 450 365 q 396 233 401 267 q 417 199 390 200 q 484 226 446 197 q 562 297 522 254 q 638 389 601 340 q 699 475 674 438 l 735 475 m 481 838 q 461 839 469 832 q 449 854 453 846 q 417 917 432 888 q 388 967 403 942 q 361 1008 372 993 q 331 967 350 993 q 293 915 311 942 q 249 851 271 885 q 236 835 244 842 q 217 835 228 829 l 222 851 l 326 1076 q 340 1078 328 1076 q 365 1081 351 1081 q 391 1080 379 1082 q 406 1069 403 1078 q 440 961 425 1008 q 465 888 454 921 q 475 856 475 854 l 481 838 z "},"":{"ha":699,"x_min":-142,"x_max":735,"o":"m 735 475 q 690 399 718 446 q 626 300 661 353 q 551 194 592 247 q 469 97 511 140 q 385 27 426 54 q 307 0 344 0 q 240 20 263 0 q 213 74 218 40 q 216 154 207 108 q 243 251 225 200 q 173 159 210 204 q 99 78 136 114 q 26 22 63 43 q -43 0 -10 0 q -120 30 -99 0 q -140 110 -142 60 q -118 224 -139 160 q -67 355 -97 288 q 0 488 -36 422 q 67 606 36 553 q 121 695 99 660 q 147 738 143 731 q 184 749 161 747 q 231 743 207 751 q 273 714 254 735 q 299 657 292 693 q 268 617 294 653 q 207 531 242 582 q 136 423 172 481 q 76 316 100 365 q 46 233 51 267 q 67 199 40 200 q 128 223 93 197 q 201 288 164 249 q 273 372 238 326 q 335 456 308 417 q 390 557 363 508 q 441 644 418 606 q 479 707 464 682 q 499 738 494 732 q 535 749 513 747 q 582 743 558 751 q 624 714 606 735 q 650 657 643 693 q 619 617 646 653 q 558 531 593 582 q 487 423 524 481 q 426 316 450 365 q 396 233 401 267 q 417 199 390 200 q 484 226 446 197 q 562 297 522 254 q 638 389 601 340 q 699 475 674 438 l 735 475 m 488 1071 q 533 1038 514 1057 q 562 1000 553 1019 q 567 963 571 981 q 546 932 564 944 q 496 898 521 915 q 451 867 471 881 q 417 842 431 853 q 403 831 404 832 q 362 866 365 850 q 364 889 358 882 q 390 926 376 908 q 417 965 403 944 q 449 1011 432 986 q 488 1071 467 1036 z "},"":{"ha":699,"x_min":-142,"x_max":735,"o":"m 735 475 q 690 399 718 446 q 626 300 661 353 q 551 194 592 247 q 469 97 511 140 q 385 27 426 54 q 307 0 344 0 q 240 20 263 0 q 213 74 218 40 q 216 154 207 108 q 243 251 225 200 q 173 159 210 204 q 99 78 136 114 q 26 22 63 43 q -43 0 -10 0 q -120 30 -99 0 q -140 110 -142 60 q -118 224 -139 160 q -67 355 -97 288 q 0 488 -36 422 q 67 606 36 553 q 121 695 99 660 q 147 738 143 731 q 184 749 161 747 q 231 743 207 751 q 273 714 254 735 q 299 657 292 693 q 268 617 294 653 q 207 531 242 582 q 136 423 172 481 q 76 316 100 365 q 46 233 51 267 q 67 199 40 200 q 128 223 93 197 q 201 288 164 249 q 273 372 238 326 q 335 456 308 417 q 390 557 363 508 q 441 644 418 606 q 479 707 464 682 q 499 738 494 732 q 535 749 513 747 q 582 743 558 751 q 624 714 606 735 q 650 657 643 693 q 619 617 646 653 q 558 531 593 582 q 487 423 524 481 q 426 316 450 365 q 396 233 401 267 q 417 199 390 200 q 484 226 446 197 q 562 297 522 254 q 638 389 601 340 q 699 475 674 438 l 735 475 m 457 839 q 458 815 461 832 q 418 779 456 799 q 395 800 417 781 q 344 844 374 819 q 283 896 315 869 q 225 939 250 922 q 202 969 206 951 q 208 1007 199 988 q 236 1045 217 1026 q 282 1078 256 1064 q 328 1009 303 1043 q 378 944 354 975 q 423 885 401 913 q 457 839 444 858 z "},"":{"ha":504,"x_min":-197,"x_max":575,"o":"m 378 1122 q 430 1110 401 1124 q 486 1072 458 1096 q 538 1017 514 1047 q 575 956 561 986 q 540 947 560 961 q 497 903 521 933 q 444 827 472 872 q 385 726 415 782 q 414 638 421 694 q 410 620 413 631 q 401 602 407 610 q 389 592 396 594 q 374 597 382 589 q 342 647 365 640 l 282 532 q 339 576 310 563 q 397 575 368 589 q 424 539 419 564 q 419 483 428 514 q 393 419 411 453 q 356 353 375 385 q 317 299 336 322 q 286 264 297 275 q 346 285 315 264 q 405 337 376 306 q 458 405 433 368 q 504 475 483 442 l 542 475 q 492 385 521 435 q 428 294 464 336 q 347 224 392 251 q 247 201 301 197 q 205 141 229 175 q 151 76 181 107 q 89 24 122 46 q 21 0 56 1 q -58 -153 -19 -82 q -131 -278 -96 -225 q -160 -305 -142 -293 q -197 -304 -178 -317 l -183 -271 l -61 22 q -100 105 -93 50 q -95 228 -107 160 q -53 371 -83 296 q 18 515 -24 446 q 111 639 60 583 q 219 724 163 694 q 282 882 253 808 q 332 1008 311 956 q 378 1122 357 1071 m 178 265 q 185 333 176 293 l 121 203 q 142 220 132 210 q 160 242 151 231 q 178 265 169 253 z "},"":{"ha":504,"x_min":-108,"x_max":542,"o":"m 542 475 q 492 385 521 435 q 428 294 464 336 q 347 224 392 251 q 247 201 301 197 q 205 140 229 175 q 151 75 181 106 q 88 23 121 44 q 18 0 54 1 q -66 26 -37 -4 q -101 109 -94 57 q -96 228 -108 161 q -55 367 -83 296 q 14 508 -26 439 q 103 631 54 576 q 208 717 153 685 q 318 750 263 750 q 394 717 368 749 q 414 638 421 685 q 410 620 413 631 q 401 602 407 610 q 389 592 396 594 q 374 597 382 589 q 344 647 365 640 q 293 634 322 653 q 231 577 264 615 q 166 492 197 539 q 110 394 135 444 q 72 301 85 344 q 63 229 60 258 q 90 194 65 200 q 120 201 104 192 q 149 226 136 211 q 178 265 164 242 q 190 356 175 303 q 229 454 206 410 q 266 512 246 485 q 308 557 286 539 q 352 581 329 575 q 397 575 375 586 q 424 539 419 564 q 419 483 428 514 q 393 419 411 453 q 356 353 375 385 q 317 299 336 322 q 286 264 297 275 q 346 285 315 264 q 405 337 376 306 q 458 405 433 368 q 504 475 483 442 l 542 475 m 204 986 q 256 964 235 986 q 276 910 276 942 q 256 856 276 878 q 204 833 235 833 q 154 856 175 833 q 133 910 133 878 q 154 964 133 942 q 204 986 175 986 m 381 986 q 432 964 411 986 q 453 910 453 942 q 432 856 453 878 q 381 833 411 833 q 331 856 351 833 q 310 910 310 878 q 331 964 310 942 q 381 986 351 986 z "},"":{"ha":504,"x_min":-108,"x_max":542,"o":"m 542 475 q 492 385 521 435 q 428 294 464 336 q 347 224 392 251 q 247 201 301 197 q 205 140 229 175 q 151 75 181 106 q 88 23 121 44 q 18 0 54 1 q -66 26 -37 -4 q -101 109 -94 57 q -96 228 -108 161 q -55 367 -83 296 q 14 508 -26 439 q 103 631 54 576 q 208 717 153 685 q 318 750 263 750 q 394 717 368 749 q 414 638 421 685 q 410 620 413 631 q 401 602 407 610 q 389 592 396 594 q 374 597 382 589 q 344 647 365 640 q 293 634 322 653 q 231 577 264 615 q 166 492 197 539 q 110 394 135 444 q 72 301 85 344 q 63 229 60 258 q 90 194 65 200 q 120 201 104 192 q 149 226 136 211 q 178 265 164 242 q 190 356 175 303 q 229 454 206 410 q 266 512 246 485 q 308 557 286 539 q 352 581 329 575 q 397 575 375 586 q 424 539 419 564 q 419 483 428 514 q 393 419 411 453 q 356 353 375 385 q 317 299 336 322 q 286 264 297 275 q 346 285 315 264 q 405 337 376 306 q 458 405 433 368 q 504 475 483 442 l 542 475 m 415 956 q 465 908 451 932 q 454 863 479 885 q 394 837 425 838 q 331 846 363 836 q 269 870 300 856 q 208 890 238 885 q 153 883 179 894 q 106 832 126 872 q 72 856 88 844 q 48 880 57 868 q 39 903 39 892 q 51 925 39 914 q 113 951 81 950 q 179 942 146 953 q 245 917 213 932 q 308 897 278 903 q 366 903 339 892 q 415 956 393 914 z "},"":{"ha":504,"x_min":-108,"x_max":542,"o":"m 542 475 q 492 385 521 435 q 428 294 464 336 q 347 224 392 251 q 247 201 301 197 q 205 140 229 175 q 151 75 181 106 q 88 23 121 44 q 18 0 54 1 q -66 26 -37 -4 q -101 109 -94 57 q -96 228 -108 161 q -55 367 -83 296 q 14 508 -26 439 q 103 631 54 576 q 208 717 153 685 q 318 750 263 750 q 394 717 368 749 q 414 638 421 685 q 410 620 413 631 q 401 602 407 610 q 389 592 396 594 q 374 597 382 589 q 344 647 365 640 q 293 634 322 653 q 231 577 264 615 q 166 492 197 539 q 110 394 135 444 q 72 301 85 344 q 63 229 60 258 q 90 194 65 200 q 120 201 104 192 q 149 226 136 211 q 178 265 164 242 q 190 356 175 303 q 229 454 206 410 q 266 512 246 485 q 308 557 286 539 q 352 581 329 575 q 397 575 375 586 q 424 539 419 564 q 419 483 428 514 q 393 419 411 453 q 356 353 375 385 q 317 299 336 322 q 286 264 297 275 q 346 285 315 264 q 405 337 376 306 q 458 405 433 368 q 504 475 483 442 l 542 475 m 385 838 q 365 839 374 832 q 353 854 357 846 q 321 917 336 888 q 292 967 307 942 q 265 1008 276 993 q 235 967 254 993 q 197 915 215 942 q 153 851 175 885 q 140 835 149 842 q 121 835 132 829 l 126 851 l 231 1076 q 244 1078 232 1076 q 269 1081 256 1081 q 295 1080 283 1082 q 310 1069 307 1078 q 344 961 329 1008 q 369 888 358 921 q 379 856 379 854 l 385 838 z "},"":{"ha":504,"x_min":-108,"x_max":542,"o":"m 542 475 q 492 385 521 435 q 428 294 464 336 q 347 224 392 251 q 247 201 301 197 q 205 140 229 175 q 151 75 181 106 q 88 23 121 44 q 18 0 54 1 q -66 26 -37 -4 q -101 109 -94 57 q -96 228 -108 161 q -55 367 -83 296 q 14 508 -26 439 q 103 631 54 576 q 208 717 153 685 q 318 750 263 750 q 394 717 368 749 q 414 638 421 685 q 410 620 413 631 q 401 602 407 610 q 389 592 396 594 q 374 597 382 589 q 344 647 365 640 q 293 634 322 653 q 231 577 264 615 q 166 492 197 539 q 110 394 135 444 q 72 301 85 344 q 63 229 60 258 q 90 194 65 200 q 120 201 104 192 q 149 226 136 211 q 178 265 164 242 q 190 356 175 303 q 229 454 206 410 q 266 512 246 485 q 308 557 286 539 q 352 581 329 575 q 397 575 375 586 q 424 539 419 564 q 419 483 428 514 q 393 419 411 453 q 356 353 375 385 q 317 299 336 322 q 286 264 297 275 q 346 285 315 264 q 405 337 376 306 q 458 405 433 368 q 504 475 483 442 l 542 475 m 265 1071 q 311 1038 292 1057 q 340 1000 331 1019 q 345 963 349 981 q 324 932 342 944 q 274 898 299 915 q 228 867 249 881 q 195 842 208 853 q 181 831 182 832 q 140 866 143 850 q 142 889 136 882 q 167 926 154 908 q 195 965 181 944 q 227 1011 210 986 q 265 1071 244 1036 z "},"":{"ha":504,"x_min":-108,"x_max":542,"o":"m 542 475 q 492 385 521 435 q 428 294 464 336 q 347 224 392 251 q 247 201 301 197 q 205 140 229 175 q 151 75 181 106 q 88 23 121 44 q 18 0 54 1 q -66 26 -37 -4 q -101 109 -94 57 q -96 228 -108 161 q -55 367 -83 296 q 14 508 -26 439 q 103 631 54 576 q 208 717 153 685 q 318 750 263 750 q 394 717 368 749 q 414 638 421 685 q 410 620 413 631 q 401 602 407 610 q 389 592 396 594 q 374 597 382 589 q 344 647 365 640 q 293 634 322 653 q 231 577 264 615 q 166 492 197 539 q 110 394 135 444 q 72 301 85 344 q 63 229 60 258 q 90 194 65 200 q 120 201 104 192 q 149 226 136 211 q 178 265 164 242 q 190 356 175 303 q 229 454 206 410 q 266 512 246 485 q 308 557 286 539 q 352 581 329 575 q 397 575 375 586 q 424 539 419 564 q 419 483 428 514 q 393 419 411 453 q 356 353 375 385 q 317 299 336 322 q 286 264 297 275 q 346 285 315 264 q 405 337 376 306 q 458 405 433 368 q 504 475 483 442 l 542 475 m 390 867 q 392 843 394 860 q 351 807 389 826 q 328 828 350 808 q 278 872 307 847 q 216 924 249 897 q 158 967 183 950 q 135 997 139 979 q 141 1035 132 1015 q 169 1073 150 1054 q 215 1106 189 1092 q 262 1037 236 1071 q 311 972 288 1003 q 356 913 335 940 q 390 867 378 886 z "},"":{"ha":688,"x_min":-149,"x_max":724,"o":"m 724 475 q 678 399 707 446 q 615 300 650 353 q 540 194 581 247 q 458 97 500 140 q 374 27 415 54 q 296 0 333 0 q 224 25 246 0 q 201 90 203 50 q 211 180 199 131 q 242 278 224 229 q 281 369 261 326 q 314 438 301 411 q 291 404 308 431 q 249 342 274 378 q 195 263 225 306 q 137 178 165 219 q 82 100 108 136 q 38 42 56 64 q 3 10 19 19 q -44 0 -14 0 q -122 26 -99 0 q -147 95 -146 51 q -132 196 -149 139 q -88 315 -115 253 q -27 442 -61 378 q 40 563 7 506 q 102 665 74 619 q 146 738 131 711 q 183 749 160 747 q 229 743 206 751 q 272 714 253 735 q 297 657 290 693 q 258 609 286 646 q 197 522 231 572 q 128 417 163 472 q 72 315 94 363 q 44 236 50 268 q 61 200 38 204 q 109 260 81 221 q 172 348 138 299 q 244 451 206 397 q 321 555 282 504 q 398 649 360 606 q 471 718 436 692 q 544 751 508 750 q 621 717 581 751 q 591 669 615 710 q 535 571 567 628 q 470 449 503 514 q 415 328 438 383 q 388 237 393 274 q 406 199 382 200 q 473 226 435 197 q 551 297 511 254 q 626 389 590 340 q 688 475 663 438 l 724 475 m 507 956 q 557 908 543 932 q 546 863 571 885 q 485 837 517 838 q 423 846 454 836 q 360 870 392 856 q 300 890 329 885 q 244 883 271 894 q 197 832 218 872 q 164 856 179 844 q 140 880 149 868 q 131 903 131 892 q 143 925 131 914 q 205 951 172 950 q 271 942 238 953 q 337 917 304 932 q 400 897 369 903 q 458 903 431 892 q 507 956 485 914 z "},"":{"ha":344,"x_min":-144,"x_max":381,"o":"m 64 200 q 131 228 93 200 q 208 299 168 257 q 283 390 247 342 q 344 475 319 438 l 381 475 q 335 399 364 446 q 272 300 307 353 q 197 194 238 247 q 115 97 157 140 q 31 27 72 54 q -47 0 -10 0 q -126 39 -107 0 q -136 138 -144 78 q -99 271 -128 197 q -35 415 -69 344 q 32 546 -1 486 q 83 638 65 606 q 120 649 97 647 q 167 643 143 651 q 209 615 190 635 q 235 558 228 594 q 200 516 222 547 q 153 445 178 485 q 106 362 129 406 q 67 283 82 318 q 49 224 51 247 q 64 200 46 200 m 83 986 q 135 964 114 986 q 156 910 156 942 q 135 856 156 878 q 83 833 114 833 q 33 856 54 833 q 13 910 13 878 q 33 964 13 942 q 83 986 54 986 m 260 986 q 311 964 290 986 q 332 910 332 942 q 311 856 332 878 q 260 833 290 833 q 210 856 231 833 q 189 910 189 878 q 210 964 189 942 q 260 986 231 986 z "},"":{"ha":344,"x_min":-144,"x_max":381,"o":"m 64 200 q 131 228 93 200 q 208 299 168 257 q 283 390 247 342 q 344 475 319 438 l 381 475 q 335 399 364 446 q 272 300 307 353 q 197 194 238 247 q 115 97 157 140 q 31 27 72 54 q -47 0 -10 0 q -126 39 -107 0 q -136 138 -144 78 q -99 271 -128 197 q -35 415 -69 344 q 32 546 -1 486 q 83 638 65 606 q 120 649 97 647 q 167 643 143 651 q 209 615 190 635 q 235 558 228 594 q 200 516 222 547 q 153 445 178 485 q 106 362 129 406 q 67 283 82 318 q 49 224 51 247 q 64 200 46 200 m 304 838 q 285 839 293 832 q 272 854 276 846 q 240 917 256 888 q 211 967 226 942 q 185 1008 196 993 q 154 967 174 993 q 117 915 135 942 q 72 851 94 885 q 60 835 68 842 q 40 835 51 829 l 46 851 l 150 1076 q 163 1078 151 1076 q 189 1081 175 1081 q 215 1080 203 1082 q 229 1069 226 1078 q 264 961 249 1008 q 288 888 278 921 q 299 856 299 854 l 304 838 z "},"":{"ha":344,"x_min":-144,"x_max":390,"o":"m 64 200 q 131 228 93 200 q 208 299 168 257 q 283 390 247 342 q 344 475 319 438 l 381 475 q 335 399 364 446 q 272 300 307 353 q 197 194 238 247 q 115 97 157 140 q 31 27 72 54 q -47 0 -10 0 q -126 39 -107 0 q -136 138 -144 78 q -99 271 -128 197 q -35 415 -69 344 q 32 546 -1 486 q 83 638 65 606 q 120 649 97 647 q 167 643 143 651 q 209 615 190 635 q 235 558 228 594 q 200 516 222 547 q 153 445 178 485 q 106 362 129 406 q 67 283 82 318 q 49 224 51 247 q 64 200 46 200 m 307 1047 q 353 1015 333 1033 q 381 976 372 996 q 387 939 390 957 q 365 908 383 921 q 315 874 340 892 q 270 843 290 857 q 237 819 250 829 q 222 807 224 808 q 181 842 185 826 q 183 865 178 858 q 209 903 196 885 q 237 942 222 921 q 269 988 251 963 q 307 1047 286 1013 z "},"":{"ha":344,"x_min":-144,"x_max":381,"o":"m 64 200 q 131 228 93 200 q 208 299 168 257 q 283 390 247 342 q 344 475 319 438 l 381 475 q 335 399 364 446 q 272 300 307 353 q 197 194 238 247 q 115 97 157 140 q 31 27 72 54 q -47 0 -10 0 q -126 39 -107 0 q -136 138 -144 78 q -99 271 -128 197 q -35 415 -69 344 q 32 546 -1 486 q 83 638 65 606 q 120 649 97 647 q 167 643 143 651 q 209 615 190 635 q 235 558 228 594 q 200 516 222 547 q 153 445 178 485 q 106 362 129 406 q 67 283 82 318 q 49 224 51 247 q 64 200 46 200 m 308 800 q 310 776 313 793 q 269 740 307 760 q 247 761 268 742 q 196 806 225 781 q 134 857 167 831 q 76 900 101 883 q 53 931 57 913 q 59 968 50 949 q 88 1006 68 988 q 133 1039 107 1025 q 180 970 154 1004 q 229 905 206 936 q 274 847 253 874 q 308 800 296 819 z "},"":{"ha":465,"x_min":-104,"x_max":503,"o":"m 503 476 q 454 391 482 440 q 393 289 426 342 q 322 184 360 236 q 242 91 285 132 q 155 25 200 50 q 63 0 110 0 q -43 33 -6 0 q -92 118 -81 65 q -94 239 -104 171 q -56 377 -83 307 q 13 514 -29 447 q 104 633 54 581 q 210 716 154 685 q 324 746 267 747 q 402 724 378 744 q 426 672 426 703 q 404 605 426 640 q 344 540 382 569 q 253 492 306 511 q 140 475 201 472 q 88 380 108 429 q 62 290 67 331 q 72 224 57 250 q 131 197 88 197 q 299 263 221 196 q 465 475 378 331 l 503 476 m 322 631 q 280 618 303 632 q 235 584 257 604 q 193 542 213 564 q 164 507 174 521 q 248 528 210 508 q 310 569 286 547 q 338 609 333 590 q 322 631 343 628 m 217 986 q 268 964 247 986 q 289 910 289 942 q 268 856 289 878 q 217 833 247 833 q 167 856 188 833 q 146 910 146 878 q 167 964 146 942 q 217 986 188 986 m 393 986 q 444 964 424 986 q 465 910 465 942 q 444 856 465 878 q 393 833 424 833 q 343 856 364 833 q 322 910 322 878 q 343 964 322 942 q 393 986 364 986 z "},"":{"ha":465,"x_min":-104,"x_max":503,"o":"m 503 476 q 454 391 482 440 q 393 289 426 342 q 322 184 360 236 q 242 91 285 132 q 155 25 200 50 q 63 0 110 0 q -43 33 -6 0 q -92 118 -81 65 q -94 239 -104 171 q -56 377 -83 307 q 13 514 -29 447 q 104 633 54 581 q 210 716 154 685 q 324 746 267 747 q 402 724 378 744 q 426 672 426 703 q 404 605 426 640 q 344 540 382 569 q 253 492 306 511 q 140 475 201 472 q 88 380 108 429 q 62 290 67 331 q 72 224 57 250 q 131 197 88 197 q 299 263 221 196 q 465 475 378 331 l 503 476 m 322 631 q 280 618 303 632 q 235 584 257 604 q 193 542 213 564 q 164 507 174 521 q 248 528 210 508 q 310 569 286 547 q 338 609 333 590 q 322 631 343 628 m 435 824 q 415 825 424 818 q 403 840 407 832 q 371 903 386 874 q 342 953 357 928 q 315 994 326 979 q 285 953 304 979 q 247 901 265 928 q 203 838 225 871 q 190 822 199 828 q 171 821 182 815 l 176 838 l 281 1063 q 294 1065 282 1063 q 319 1067 306 1067 q 345 1066 333 1068 q 360 1056 357 1064 q 394 947 379 994 q 419 874 408 907 q 429 842 429 840 l 435 824 z "},"":{"ha":465,"x_min":-104,"x_max":503,"o":"m 503 476 q 454 391 482 440 q 393 289 426 342 q 322 184 360 236 q 242 91 285 132 q 155 25 200 50 q 63 0 110 0 q -43 33 -6 0 q -92 118 -81 65 q -94 239 -104 171 q -56 377 -83 307 q 13 514 -29 447 q 104 633 54 581 q 210 716 154 685 q 324 746 267 747 q 402 724 378 744 q 426 672 426 703 q 404 605 426 640 q 344 540 382 569 q 253 492 306 511 q 140 475 201 472 q 88 380 108 429 q 62 290 67 331 q 72 224 57 250 q 131 197 88 197 q 299 263 221 196 q 465 475 378 331 l 503 476 m 322 631 q 280 618 303 632 q 235 584 257 604 q 193 542 213 564 q 164 507 174 521 q 248 528 210 508 q 310 569 286 547 q 338 609 333 590 q 322 631 343 628 m 365 1081 q 411 1048 392 1067 q 440 1010 431 1029 q 445 972 449 990 q 424 942 442 954 q 374 908 399 925 q 328 876 349 890 q 295 852 308 863 q 281 840 282 842 q 240 876 243 860 q 242 899 236 892 q 267 936 254 918 q 295 975 281 954 q 327 1021 310 996 q 365 1081 344 1046 z "},"":{"ha":465,"x_min":-104,"x_max":503,"o":"m 503 476 q 454 391 482 440 q 393 289 426 342 q 322 184 360 236 q 242 91 285 132 q 155 25 200 50 q 63 0 110 0 q -43 33 -6 0 q -92 118 -81 65 q -94 239 -104 171 q -56 377 -83 307 q 13 514 -29 447 q 104 633 54 581 q 210 716 154 685 q 324 746 267 747 q 402 724 378 744 q 426 672 426 703 q 404 605 426 640 q 344 540 382 569 q 253 492 306 511 q 140 475 201 472 q 88 380 108 429 q 62 290 67 331 q 72 224 57 250 q 131 197 88 197 q 299 263 221 196 q 465 475 378 331 l 503 476 m 322 631 q 280 618 303 632 q 235 584 257 604 q 193 542 213 564 q 164 507 174 521 q 248 528 210 508 q 310 569 286 547 q 338 609 333 590 q 322 631 343 628 m 442 849 q 443 825 446 842 q 403 789 440 808 q 380 810 401 790 q 329 854 358 829 q 267 906 300 879 q 210 949 235 932 q 187 979 190 961 q 192 1017 183 997 q 221 1055 201 1036 q 267 1088 240 1074 q 313 1019 288 1053 q 363 953 339 985 q 408 895 386 922 q 442 849 429 868 z "},"":{"ha":668,"x_min":-160,"x_max":704,"o":"m 704 475 q 659 399 688 446 q 596 300 631 353 q 521 194 561 247 q 438 97 481 140 q 355 27 396 54 q 276 0 314 0 q 216 17 238 0 q 186 65 194 35 q 183 135 178 94 q 203 221 188 175 q 137 138 171 178 q 69 67 103 97 q 2 18 35 36 q -61 0 -31 0 q -137 32 -115 0 q -156 117 -160 64 q -129 237 -153 169 q -67 375 -106 304 q 19 513 -29 446 q 118 633 67 581 q 219 718 169 686 q 311 750 269 750 q 367 729 346 750 q 399 678 388 708 q 415 613 411 647 q 419 551 419 578 q 389 551 404 524 q 339 633 382 633 q 263 602 306 633 q 180 523 221 571 q 103 419 139 475 q 47 314 68 363 q 24 233 26 265 q 49 199 22 200 q 103 217 74 197 q 165 268 133 238 q 226 335 196 299 q 278 403 256 372 q 316 456 301 435 q 331 476 331 476 q 412 512 375 517 q 481 475 449 507 q 418 381 446 429 q 376 292 390 332 q 362 226 361 251 q 386 199 363 200 q 453 226 415 197 q 531 298 492 256 q 607 389 571 340 q 668 475 643 438 l 704 475 m 369 1058 q 413 1026 400 1049 q 425 974 425 1003 q 413 917 425 946 q 381 867 400 888 q 335 837 361 846 q 281 840 308 828 q 243 875 254 851 q 233 925 232 899 q 246 978 235 951 q 275 1026 257 1006 q 317 1057 293 1047 q 369 1058 342 1067 m 292 865 q 328 878 308 856 q 362 934 349 901 q 378 997 375 967 q 363 1031 381 1026 q 328 1011 347 1033 q 297 958 310 989 q 281 900 285 928 q 292 865 278 872 z "},"":{"ha":668,"x_min":-160,"x_max":704,"o":"m 704 475 q 659 399 688 446 q 596 300 631 353 q 521 194 561 247 q 438 97 481 140 q 355 27 396 54 q 276 0 314 0 q 216 17 238 0 q 186 65 194 35 q 183 135 178 94 q 203 221 188 175 q 137 138 171 178 q 69 67 103 97 q 2 18 35 36 q -61 0 -31 0 q -137 32 -115 0 q -156 117 -160 64 q -129 237 -153 169 q -67 375 -106 304 q 19 513 -29 446 q 118 633 67 581 q 219 718 169 686 q 311 750 269 750 q 367 729 346 750 q 399 678 388 708 q 415 613 411 647 q 419 551 419 578 q 389 551 404 524 q 339 633 382 633 q 263 602 306 633 q 180 523 221 571 q 103 419 139 475 q 47 314 68 363 q 24 233 26 265 q 49 199 22 200 q 103 217 74 197 q 165 268 133 238 q 226 335 196 299 q 278 403 256 372 q 316 456 301 435 q 331 476 331 476 q 412 512 375 517 q 481 475 449 507 q 418 381 446 429 q 376 292 390 332 q 362 226 361 251 q 386 199 363 200 q 453 226 415 197 q 531 298 492 256 q 607 389 571 340 q 668 475 643 438 l 704 475 m 244 986 q 296 964 275 986 q 317 910 317 942 q 296 856 317 878 q 244 833 275 833 q 194 856 215 833 q 174 910 174 878 q 194 964 174 942 q 244 986 215 986 m 421 986 q 472 964 451 986 q 493 910 493 942 q 472 856 493 878 q 421 833 451 833 q 371 856 392 833 q 350 910 350 878 q 371 964 350 942 q 421 986 392 986 z "},"":{"ha":668,"x_min":-160,"x_max":704,"o":"m 704 475 q 659 399 688 446 q 596 300 631 353 q 521 194 561 247 q 438 97 481 140 q 355 27 396 54 q 276 0 314 0 q 216 17 238 0 q 186 65 194 35 q 183 135 178 94 q 203 221 188 175 q 137 138 171 178 q 69 67 103 97 q 2 18 35 36 q -61 0 -31 0 q -137 32 -115 0 q -156 117 -160 64 q -129 237 -153 169 q -67 375 -106 304 q 19 513 -29 446 q 118 633 67 581 q 219 718 169 686 q 311 750 269 750 q 367 729 346 750 q 399 678 388 708 q 415 613 411 647 q 419 551 419 578 q 389 551 404 524 q 339 633 382 633 q 263 602 306 633 q 180 523 221 571 q 103 419 139 475 q 47 314 68 363 q 24 233 26 265 q 49 199 22 200 q 103 217 74 197 q 165 268 133 238 q 226 335 196 299 q 278 403 256 372 q 316 456 301 435 q 331 476 331 476 q 412 512 375 517 q 481 475 449 507 q 418 381 446 429 q 376 292 390 332 q 362 226 361 251 q 386 199 363 200 q 453 226 415 197 q 531 298 492 256 q 607 389 571 340 q 668 475 643 438 l 704 475 m 497 956 q 547 908 533 932 q 536 863 561 885 q 476 837 507 838 q 413 846 444 836 q 351 870 382 856 q 290 890 319 885 q 235 883 261 894 q 188 832 208 872 q 154 856 169 844 q 130 880 139 868 q 121 903 121 892 q 133 925 121 914 q 195 951 163 950 q 261 942 228 953 q 327 917 294 932 q 390 897 360 903 q 448 903 421 892 q 497 956 475 914 z "},"":{"ha":668,"x_min":-160,"x_max":704,"o":"m 704 475 q 659 399 688 446 q 596 300 631 353 q 521 194 561 247 q 438 97 481 140 q 355 27 396 54 q 276 0 314 0 q 216 17 238 0 q 186 65 194 35 q 183 135 178 94 q 203 221 188 175 q 137 138 171 178 q 69 67 103 97 q 2 18 35 36 q -61 0 -31 0 q -137 32 -115 0 q -156 117 -160 64 q -129 237 -153 169 q -67 375 -106 304 q 19 513 -29 446 q 118 633 67 581 q 219 718 169 686 q 311 750 269 750 q 367 729 346 750 q 399 678 388 708 q 415 613 411 647 q 419 551 419 578 q 389 551 404 524 q 339 633 382 633 q 263 602 306 633 q 180 523 221 571 q 103 419 139 475 q 47 314 68 363 q 24 233 26 265 q 49 199 22 200 q 103 217 74 197 q 165 268 133 238 q 226 335 196 299 q 278 403 256 372 q 316 456 301 435 q 331 476 331 476 q 412 512 375 517 q 481 475 449 507 q 418 381 446 429 q 376 292 390 332 q 362 226 361 251 q 386 199 363 200 q 453 226 415 197 q 531 298 492 256 q 607 389 571 340 q 668 475 643 438 l 704 475 m 465 838 q 446 839 454 832 q 433 854 438 846 q 401 917 417 888 q 372 967 388 942 q 346 1008 357 993 q 315 967 335 993 q 278 915 296 942 q 233 851 256 885 q 221 835 229 842 q 201 835 213 829 l 207 851 l 311 1076 q 324 1078 313 1076 q 350 1081 336 1081 q 376 1080 364 1082 q 390 1069 388 1078 q 425 961 410 1008 q 449 888 439 921 q 460 856 460 854 l 465 838 z "},"":{"ha":668,"x_min":-160,"x_max":704,"o":"m 704 475 q 659 399 688 446 q 596 300 631 353 q 521 194 561 247 q 438 97 481 140 q 355 27 396 54 q 276 0 314 0 q 216 17 238 0 q 186 65 194 35 q 183 135 178 94 q 203 221 188 175 q 137 138 171 178 q 69 67 103 97 q 2 18 35 36 q -61 0 -31 0 q -137 32 -115 0 q -156 117 -160 64 q -129 237 -153 169 q -67 375 -106 304 q 19 513 -29 446 q 118 633 67 581 q 219 718 169 686 q 311 750 269 750 q 367 729 346 750 q 399 678 388 708 q 415 613 411 647 q 419 551 419 578 q 389 551 404 524 q 339 633 382 633 q 263 602 306 633 q 180 523 221 571 q 103 419 139 475 q 47 314 68 363 q 24 233 26 265 q 49 199 22 200 q 103 217 74 197 q 165 268 133 238 q 226 335 196 299 q 278 403 256 372 q 316 456 301 435 q 331 476 331 476 q 412 512 375 517 q 481 475 449 507 q 418 381 446 429 q 376 292 390 332 q 362 226 361 251 q 386 199 363 200 q 453 226 415 197 q 531 298 492 256 q 607 389 571 340 q 668 475 643 438 l 704 475 m 347 1071 q 393 1038 374 1057 q 422 1000 413 1019 q 427 963 431 981 q 406 932 424 944 q 356 898 381 915 q 310 867 331 881 q 277 842 290 853 q 263 831 264 832 q 222 866 225 850 q 224 889 218 882 q 249 926 236 908 q 277 965 263 944 q 309 1011 292 986 q 347 1071 326 1036 z "},"":{"ha":668,"x_min":-160,"x_max":704,"o":"m 704 475 q 659 399 688 446 q 596 300 631 353 q 521 194 561 247 q 438 97 481 140 q 355 27 396 54 q 276 0 314 0 q 216 17 238 0 q 186 65 194 35 q 183 135 178 94 q 203 221 188 175 q 137 138 171 178 q 69 67 103 97 q 2 18 35 36 q -61 0 -31 0 q -137 32 -115 0 q -156 117 -160 64 q -129 237 -153 169 q -67 375 -106 304 q 19 513 -29 446 q 118 633 67 581 q 219 718 169 686 q 311 750 269 750 q 367 729 346 750 q 399 678 388 708 q 415 613 411 647 q 419 551 419 578 q 389 551 404 524 q 339 633 382 633 q 263 602 306 633 q 180 523 221 571 q 103 419 139 475 q 47 314 68 363 q 24 233 26 265 q 49 199 22 200 q 103 217 74 197 q 165 268 133 238 q 226 335 196 299 q 278 403 256 372 q 316 456 301 435 q 331 476 331 476 q 412 512 375 517 q 481 475 449 507 q 418 381 446 429 q 376 292 390 332 q 362 226 361 251 q 386 199 363 200 q 453 226 415 197 q 531 298 492 256 q 607 389 571 340 q 668 475 643 438 l 704 475 m 469 800 q 471 776 474 793 q 431 740 468 760 q 408 761 429 742 q 357 806 386 781 q 295 857 328 831 q 238 900 263 883 q 215 931 218 913 q 220 968 211 949 q 249 1006 229 988 q 294 1039 268 1025 q 341 970 315 1004 q 390 905 367 936 q 435 847 414 874 q 469 800 457 819 z "},"":{"ha":1353,"x_min":-11,"x_max":1771,"o":"m 1694 1244 q 1758 1199 1746 1244 q 1754 1082 1771 1154 q 1628 1073 1693 1103 q 1498 976 1564 1043 q 1368 810 1432 908 q 1247 596 1304 711 q 1140 354 1189 481 q 1053 105 1090 228 q 993 -131 1015 -18 q 968 -334 971 -244 q 983 -483 965 -424 q 1044 -558 1001 -543 q 1008 -570 1029 -567 q 967 -573 988 -574 q 927 -570 946 -572 q 897 -565 908 -568 q 810 -515 839 -556 q 774 -410 781 -474 q 781 -265 768 -346 q 817 -94 793 -183 q 874 85 842 -6 q 938 260 906 176 q 1000 414 971 343 q 1047 533 1029 485 q 1001 444 1031 499 q 932 331 971 390 q 847 213 893 272 q 753 106 801 153 q 658 28 706 58 q 565 0 610 -1 q 458 39 496 1 q 406 140 419 76 q 404 288 393 204 q 445 465 415 372 q 521 656 475 558 q 624 844 567 753 q 749 1014 682 935 q 888 1149 817 1093 q 741 1067 810 1118 q 608 958 672 1017 q 484 838 544 899 q 363 729 424 778 q 238 649 301 681 q 106 618 175 618 q 10 663 31 618 q 14 800 -11 708 q 148 776 85 772 q 271 807 211 781 q 389 877 331 833 q 509 970 447 921 q 638 1069 571 1019 q 781 1160 704 1119 q 945 1228 857 1201 q 1136 1254 1033 1254 q 1200 1209 1188 1254 q 1196 1092 1213 1164 q 1065 1091 1131 1115 q 937 1009 999 1067 q 819 870 875 951 q 719 700 764 789 q 642 524 675 611 q 592 366 608 436 q 578 251 576 296 q 606 206 581 207 q 694 246 647 203 q 793 361 740 289 q 905 527 846 433 q 1030 719 964 621 q 1169 912 1096 818 q 1326 1080 1243 1006 q 1500 1199 1408 1154 q 1694 1244 1592 1244 m 1449 1539 q 1494 1506 1475 1525 q 1523 1468 1514 1488 q 1528 1431 1532 1449 q 1507 1400 1525 1413 q 1457 1366 1482 1383 q 1412 1335 1432 1349 q 1378 1310 1392 1321 q 1364 1299 1365 1300 q 1323 1334 1326 1318 q 1325 1357 1319 1350 q 1351 1394 1338 1376 q 1378 1433 1364 1413 q 1410 1479 1393 1454 q 1449 1539 1428 1504 z "},"":{"ha":1300,"x_min":-11,"x_max":1732,"o":"m 1656 1247 q 1719 1202 1707 1247 q 1715 1085 1732 1157 q 1568 1075 1646 1111 q 1414 962 1490 1039 q 1267 777 1338 885 q 1139 551 1196 669 q 1044 317 1082 433 q 994 103 1006 200 q 1005 -58 983 7 q 1088 -135 1026 -122 q 1055 -152 1074 -146 q 1016 -161 1036 -158 q 978 -165 996 -164 q 949 -167 960 -167 q 855 -141 888 -169 q 810 -65 822 -112 q 804 42 799 -18 q 824 162 810 101 q 856 277 838 222 q 889 371 874 332 q 844 283 874 336 q 775 170 814 229 q 690 51 736 111 q 597 -56 644 -8 q 500 -134 549 -104 q 407 -162 451 -164 q 301 -135 340 -161 q 246 -65 263 -108 q 231 35 229 -21 q 248 154 233 92 q 285 279 263 217 q 331 398 307 342 q 378 499 356 454 q 414 571 400 544 q 511 736 458 654 q 622 892 564 818 q 741 1030 679 967 q 865 1140 803 1093 q 725 1057 792 1108 q 597 947 658 1006 q 475 831 535 889 q 356 725 415 772 q 235 648 297 678 q 106 618 172 618 q 10 663 31 618 q 14 800 -11 708 q 148 776 85 772 q 270 806 211 779 q 386 874 329 832 q 503 966 443 917 q 629 1065 564 1015 q 770 1156 694 1115 q 933 1222 846 1196 q 1124 1247 1019 1247 q 1187 1202 1175 1247 q 1183 1085 1199 1157 q 1037 1072 1118 1108 q 872 956 956 1036 q 708 763 788 876 q 565 517 628 649 q 539 463 558 503 q 498 369 519 422 q 456 259 476 317 q 428 153 436 201 q 426 72 419 104 q 467 38 433 39 q 560 85 508 35 q 670 220 611 136 q 797 413 729 304 q 941 637 865 522 q 1099 860 1017 751 q 1272 1056 1182 969 q 1457 1194 1361 1142 q 1656 1247 1553 1247 m 1261 1493 q 1313 1471 1292 1493 q 1333 1417 1333 1449 q 1313 1363 1333 1385 q 1261 1340 1292 1340 q 1211 1363 1232 1340 q 1190 1417 1190 1385 q 1211 1471 1190 1449 q 1261 1493 1232 1493 m 1438 1493 q 1489 1471 1468 1493 q 1510 1417 1510 1449 q 1489 1363 1510 1385 q 1438 1340 1468 1340 q 1388 1363 1408 1340 q 1367 1417 1367 1385 q 1388 1471 1367 1449 q 1438 1493 1408 1493 z "},"":{"ha":1300,"x_min":-11,"x_max":1732,"o":"m 1656 1247 q 1719 1202 1707 1247 q 1715 1085 1732 1157 q 1568 1075 1646 1111 q 1414 962 1490 1039 q 1267 777 1338 885 q 1139 551 1196 669 q 1044 317 1082 433 q 994 103 1006 200 q 1005 -58 983 7 q 1088 -135 1026 -122 q 1055 -152 1074 -146 q 1016 -161 1036 -158 q 978 -165 996 -164 q 949 -167 960 -167 q 855 -141 888 -169 q 810 -65 822 -112 q 804 42 799 -18 q 824 162 810 101 q 856 277 838 222 q 889 371 874 332 q 844 283 874 336 q 775 170 814 229 q 690 51 736 111 q 597 -56 644 -8 q 500 -134 549 -104 q 407 -162 451 -164 q 301 -135 340 -161 q 246 -65 263 -108 q 231 35 229 -21 q 248 154 233 92 q 285 279 263 217 q 331 398 307 342 q 378 499 356 454 q 414 571 400 544 q 511 736 458 654 q 622 892 564 818 q 741 1030 679 967 q 865 1140 803 1093 q 725 1057 792 1108 q 597 947 658 1006 q 475 831 535 889 q 356 725 415 772 q 235 648 297 678 q 106 618 172 618 q 10 663 31 618 q 14 800 -11 708 q 148 776 85 772 q 270 806 211 779 q 386 874 329 832 q 503 966 443 917 q 629 1065 564 1015 q 770 1156 694 1115 q 933 1222 846 1196 q 1124 1247 1019 1247 q 1187 1202 1175 1247 q 1183 1085 1199 1157 q 1037 1072 1118 1108 q 872 956 956 1036 q 708 763 788 876 q 565 517 628 649 q 539 463 558 503 q 498 369 519 422 q 456 259 476 317 q 428 153 436 201 q 426 72 419 104 q 467 38 433 39 q 560 85 508 35 q 670 220 611 136 q 797 413 729 304 q 941 637 865 522 q 1099 860 1017 751 q 1272 1056 1182 969 q 1457 1194 1361 1142 q 1656 1247 1553 1247 m 1472 1331 q 1453 1332 1461 1325 q 1440 1347 1444 1339 q 1408 1410 1424 1381 q 1379 1460 1394 1435 q 1353 1501 1364 1486 q 1322 1460 1342 1486 q 1285 1408 1303 1435 q 1240 1344 1263 1378 q 1228 1328 1236 1335 q 1208 1328 1219 1322 l 1214 1344 l 1318 1569 q 1331 1572 1319 1569 q 1357 1574 1343 1574 q 1383 1573 1371 1575 q 1397 1563 1394 1571 q 1432 1454 1417 1501 q 1456 1381 1446 1414 q 1467 1349 1467 1347 l 1472 1331 z "},"":{"ha":1300,"x_min":-11,"x_max":1732,"o":"m 1656 1247 q 1719 1202 1707 1247 q 1715 1085 1732 1157 q 1568 1075 1646 1111 q 1414 962 1490 1039 q 1267 777 1338 885 q 1139 551 1196 669 q 1044 317 1082 433 q 994 103 1006 200 q 1005 -58 983 7 q 1088 -135 1026 -122 q 1055 -152 1074 -146 q 1016 -161 1036 -158 q 978 -165 996 -164 q 949 -167 960 -167 q 855 -141 888 -169 q 810 -65 822 -112 q 804 42 799 -18 q 824 162 810 101 q 856 277 838 222 q 889 371 874 332 q 844 283 874 336 q 775 170 814 229 q 690 51 736 111 q 597 -56 644 -8 q 500 -134 549 -104 q 407 -162 451 -164 q 301 -135 340 -161 q 246 -65 263 -108 q 231 35 229 -21 q 248 154 233 92 q 285 279 263 217 q 331 398 307 342 q 378 499 356 454 q 414 571 400 544 q 511 736 458 654 q 622 892 564 818 q 741 1030 679 967 q 865 1140 803 1093 q 725 1057 792 1108 q 597 947 658 1006 q 475 831 535 889 q 356 725 415 772 q 235 648 297 678 q 106 618 172 618 q 10 663 31 618 q 14 800 -11 708 q 148 776 85 772 q 270 806 211 779 q 386 874 329 832 q 503 966 443 917 q 629 1065 564 1015 q 770 1156 694 1115 q 933 1222 846 1196 q 1124 1247 1019 1247 q 1187 1202 1175 1247 q 1183 1085 1199 1157 q 1037 1072 1118 1108 q 872 956 956 1036 q 708 763 788 876 q 565 517 628 649 q 539 463 558 503 q 498 369 519 422 q 456 259 476 317 q 428 153 436 201 q 426 72 419 104 q 467 38 433 39 q 560 85 508 35 q 670 220 611 136 q 797 413 729 304 q 941 637 865 522 q 1099 860 1017 751 q 1272 1056 1182 969 q 1457 1194 1361 1142 q 1656 1247 1553 1247 m 1435 1524 q 1481 1491 1461 1510 q 1509 1453 1500 1472 q 1515 1415 1518 1433 q 1493 1385 1511 1397 q 1443 1351 1468 1368 q 1398 1319 1418 1333 q 1365 1295 1378 1306 q 1350 1283 1351 1285 q 1309 1319 1313 1303 q 1311 1342 1306 1335 q 1337 1379 1324 1361 q 1365 1418 1350 1397 q 1397 1464 1379 1439 q 1435 1524 1414 1489 z "},"":{"ha":1300,"x_min":-11,"x_max":1732,"o":"m 1656 1247 q 1719 1202 1707 1247 q 1715 1085 1732 1157 q 1568 1075 1646 1111 q 1414 962 1490 1039 q 1267 777 1338 885 q 1139 551 1196 669 q 1044 317 1082 433 q 994 103 1006 200 q 1005 -58 983 7 q 1088 -135 1026 -122 q 1055 -152 1074 -146 q 1016 -161 1036 -158 q 978 -165 996 -164 q 949 -167 960 -167 q 855 -141 888 -169 q 810 -65 822 -112 q 804 42 799 -18 q 824 162 810 101 q 856 277 838 222 q 889 371 874 332 q 844 283 874 336 q 775 170 814 229 q 690 51 736 111 q 597 -56 644 -8 q 500 -134 549 -104 q 407 -162 451 -164 q 301 -135 340 -161 q 246 -65 263 -108 q 231 35 229 -21 q 248 154 233 92 q 285 279 263 217 q 331 398 307 342 q 378 499 356 454 q 414 571 400 544 q 511 736 458 654 q 622 892 564 818 q 741 1030 679 967 q 865 1140 803 1093 q 725 1057 792 1108 q 597 947 658 1006 q 475 831 535 889 q 356 725 415 772 q 235 648 297 678 q 106 618 172 618 q 10 663 31 618 q 14 800 -11 708 q 148 776 85 772 q 270 806 211 779 q 386 874 329 832 q 503 966 443 917 q 629 1065 564 1015 q 770 1156 694 1115 q 933 1222 846 1196 q 1124 1247 1019 1247 q 1187 1202 1175 1247 q 1183 1085 1199 1157 q 1037 1072 1118 1108 q 872 956 956 1036 q 708 763 788 876 q 565 517 628 649 q 539 463 558 503 q 498 369 519 422 q 456 259 476 317 q 428 153 436 201 q 426 72 419 104 q 467 38 433 39 q 560 85 508 35 q 670 220 611 136 q 797 413 729 304 q 941 637 865 522 q 1099 860 1017 751 q 1272 1056 1182 969 q 1457 1194 1361 1142 q 1656 1247 1553 1247 m 1417 1404 q 1418 1381 1421 1397 q 1378 1344 1415 1364 q 1355 1365 1376 1346 q 1304 1410 1333 1385 q 1242 1461 1275 1435 q 1185 1504 1210 1488 q 1162 1535 1165 1517 q 1167 1572 1158 1553 q 1196 1610 1176 1592 q 1242 1643 1215 1629 q 1288 1574 1263 1608 q 1338 1509 1314 1540 q 1383 1451 1361 1478 q 1417 1404 1404 1424 z "},"":{"ha":1594,"x_min":74,"x_max":1632,"o":"m 1435 1824 q 1487 1811 1458 1825 q 1543 1773 1515 1797 q 1594 1718 1571 1749 q 1632 1657 1618 1688 q 1588 1632 1618 1663 q 1516 1542 1558 1601 q 1420 1399 1474 1483 q 1306 1213 1367 1314 q 1425 1082 1383 1168 q 1477 885 1467 996 q 1469 649 1488 775 q 1406 401 1450 524 q 1297 169 1363 279 q 1146 -21 1231 58 q 961 -140 1061 -100 q 749 -162 861 -181 q 651 -137 694 -153 q 574 -97 608 -121 q 413 -387 483 -262 q 304 -575 343 -512 q 275 -602 293 -590 q 238 -601 257 -614 l 251 -568 q 290 -479 265 -533 q 347 -356 315 -425 q 419 -206 379 -287 q 503 -33 458 -125 q 443 104 457 26 q 442 269 429 182 q 489 450 454 357 q 573 632 524 543 q 683 802 622 721 q 810 947 744 883 q 943 1052 876 1010 q 1071 1106 1010 1094 l 1085 1133 q 919 1083 999 1125 q 765 984 840 1042 q 619 863 690 926 q 476 744 547 799 q 333 653 404 689 q 188 618 261 618 q 93 663 113 618 q 101 800 74 708 q 275 783 192 764 q 440 851 358 801 q 603 969 522 901 q 771 1100 685 1038 q 949 1206 857 1163 q 1144 1250 1042 1249 q 1260 1480 1207 1375 q 1351 1661 1313 1585 q 1435 1824 1397 1750 m 988 656 q 828 367 906 510 q 675 89 750 225 q 792 43 714 49 q 940 72 869 36 q 1073 172 1011 108 q 1185 320 1135 235 q 1269 499 1235 406 q 1323 688 1304 593 q 1340 865 1342 782 q 1316 1011 1339 947 q 1244 1107 1293 1075 q 1221 1067 1231 1086 l 1236 1053 q 1266 989 1261 1024 q 1263 917 1271 954 q 1235 841 1254 879 q 1193 768 1217 803 q 1144 703 1169 733 q 1097 653 1118 674 q 1037 626 1065 621 q 988 656 1008 632 m 993 950 q 906 855 950 910 q 819 737 861 800 q 741 604 778 674 q 678 466 704 535 q 637 333 651 397 q 625 214 622 268 l 993 950 m 1075 813 q 1128 858 1103 835 q 1171 906 1154 882 q 1192 953 1188 929 q 1182 1000 1196 978 l 1075 813 z "},"":{"ha":1594,"x_min":74,"x_max":1488,"o":"m 1194 1249 q 1368 1165 1303 1236 q 1460 985 1433 1093 q 1479 745 1488 878 q 1432 478 1471 613 q 1327 220 1393 344 q 1173 4 1261 96 q 977 -135 1085 -87 q 749 -162 869 -182 q 556 -87 626 -143 q 458 49 486 -31 q 438 226 429 128 q 481 426 446 324 q 572 629 515 528 q 697 819 628 731 q 841 974 765 907 q 989 1077 917 1042 q 1126 1110 1061 1113 q 1236 1053 1190 1107 q 1266 989 1261 1024 q 1263 917 1271 954 q 1235 841 1254 879 q 1193 768 1217 803 q 1144 703 1169 733 q 1097 653 1118 674 q 1049 627 1072 628 q 1007 640 1026 626 q 974 676 988 653 q 954 725 960 700 q 998 757 969 738 q 1058 799 1026 776 q 1119 849 1089 822 q 1169 903 1150 876 q 1192 958 1189 931 q 1175 1010 1196 985 q 1113 1026 1151 1036 q 1029 981 1075 1017 q 933 886 983 944 q 833 757 882 828 q 743 607 785 686 q 672 451 701 528 q 631 302 643 374 q 631 175 619 231 q 681 84 642 119 q 792 43 719 49 q 951 78 875 36 q 1091 192 1026 119 q 1206 358 1156 264 q 1290 554 1257 453 q 1335 755 1322 656 q 1335 935 1347 854 q 1285 1069 1324 1015 q 1179 1132 1247 1122 q 992 1113 1081 1146 q 819 1024 903 1081 q 658 896 736 967 q 501 763 579 825 q 346 660 424 701 q 188 618 268 618 q 93 663 113 618 q 101 800 74 708 q 238 778 172 772 q 369 813 304 783 q 497 888 433 842 q 624 986 560 935 q 755 1088 689 1038 q 891 1178 821 1139 q 1037 1238 961 1217 q 1194 1249 1113 1258 m 1133 1479 q 1185 1457 1164 1479 q 1206 1403 1206 1435 q 1185 1349 1206 1371 q 1133 1326 1164 1326 q 1083 1349 1104 1326 q 1063 1403 1063 1371 q 1083 1457 1063 1435 q 1133 1479 1104 1479 m 1310 1479 q 1361 1457 1340 1479 q 1382 1403 1382 1435 q 1361 1349 1382 1371 q 1310 1326 1340 1326 q 1260 1349 1281 1326 q 1239 1403 1239 1371 q 1260 1457 1239 1435 q 1310 1479 1281 1479 z "},"":{"ha":1594,"x_min":74,"x_max":1488,"o":"m 1194 1249 q 1368 1165 1303 1236 q 1460 985 1433 1093 q 1479 745 1488 878 q 1432 478 1471 613 q 1327 220 1393 344 q 1173 4 1261 96 q 977 -135 1085 -87 q 749 -162 869 -182 q 556 -87 626 -143 q 458 49 486 -31 q 438 226 429 128 q 481 426 446 324 q 572 629 515 528 q 697 819 628 731 q 841 974 765 907 q 989 1077 917 1042 q 1126 1110 1061 1113 q 1236 1053 1190 1107 q 1266 989 1261 1024 q 1263 917 1271 954 q 1235 841 1254 879 q 1193 768 1217 803 q 1144 703 1169 733 q 1097 653 1118 674 q 1049 627 1072 628 q 1007 640 1026 626 q 974 676 988 653 q 954 725 960 700 q 998 757 969 738 q 1058 799 1026 776 q 1119 849 1089 822 q 1169 903 1150 876 q 1192 958 1189 931 q 1175 1010 1196 985 q 1113 1026 1151 1036 q 1029 981 1075 1017 q 933 886 983 944 q 833 757 882 828 q 743 607 785 686 q 672 451 701 528 q 631 302 643 374 q 631 175 619 231 q 681 84 642 119 q 792 43 719 49 q 951 78 875 36 q 1091 192 1026 119 q 1206 358 1156 264 q 1290 554 1257 453 q 1335 755 1322 656 q 1335 935 1347 854 q 1285 1069 1324 1015 q 1179 1132 1247 1122 q 992 1113 1081 1146 q 819 1024 903 1081 q 658 896 736 967 q 501 763 579 825 q 346 660 424 701 q 188 618 268 618 q 93 663 113 618 q 101 800 74 708 q 238 778 172 772 q 369 813 304 783 q 497 888 433 842 q 624 986 560 935 q 755 1088 689 1038 q 891 1178 821 1139 q 1037 1238 961 1217 q 1194 1249 1113 1258 m 1332 1440 q 1382 1393 1368 1417 q 1371 1347 1396 1369 q 1310 1322 1342 1322 q 1248 1331 1279 1321 q 1185 1355 1217 1340 q 1125 1374 1154 1369 q 1069 1368 1096 1379 q 1022 1317 1043 1357 q 989 1341 1004 1329 q 965 1365 974 1353 q 956 1388 956 1376 q 968 1410 956 1399 q 1030 1436 997 1435 q 1096 1427 1063 1438 q 1162 1402 1129 1417 q 1225 1382 1194 1388 q 1283 1388 1256 1376 q 1332 1440 1310 1399 z "},"":{"ha":1594,"x_min":74,"x_max":1488,"o":"m 1194 1249 q 1368 1165 1303 1236 q 1460 985 1433 1093 q 1479 745 1488 878 q 1432 478 1471 613 q 1327 220 1393 344 q 1173 4 1261 96 q 977 -135 1085 -87 q 749 -162 869 -182 q 556 -87 626 -143 q 458 49 486 -31 q 438 226 429 128 q 481 426 446 324 q 572 629 515 528 q 697 819 628 731 q 841 974 765 907 q 989 1077 917 1042 q 1126 1110 1061 1113 q 1236 1053 1190 1107 q 1266 989 1261 1024 q 1263 917 1271 954 q 1235 841 1254 879 q 1193 768 1217 803 q 1144 703 1169 733 q 1097 653 1118 674 q 1049 627 1072 628 q 1007 640 1026 626 q 974 676 988 653 q 954 725 960 700 q 998 757 969 738 q 1058 799 1026 776 q 1119 849 1089 822 q 1169 903 1150 876 q 1192 958 1189 931 q 1175 1010 1196 985 q 1113 1026 1151 1036 q 1029 981 1075 1017 q 933 886 983 944 q 833 757 882 828 q 743 607 785 686 q 672 451 701 528 q 631 302 643 374 q 631 175 619 231 q 681 84 642 119 q 792 43 719 49 q 951 78 875 36 q 1091 192 1026 119 q 1206 358 1156 264 q 1290 554 1257 453 q 1335 755 1322 656 q 1335 935 1347 854 q 1285 1069 1324 1015 q 1179 1132 1247 1122 q 992 1113 1081 1146 q 819 1024 903 1081 q 658 896 736 967 q 501 763 579 825 q 346 660 424 701 q 188 618 268 618 q 93 663 113 618 q 101 800 74 708 q 238 778 172 772 q 369 813 304 783 q 497 888 433 842 q 624 986 560 935 q 755 1088 689 1038 q 891 1178 821 1139 q 1037 1238 961 1217 q 1194 1249 1113 1258 m 1317 1358 q 1297 1360 1306 1353 q 1285 1375 1289 1367 q 1253 1438 1268 1408 q 1224 1488 1239 1463 q 1197 1529 1208 1514 q 1167 1488 1186 1514 q 1129 1436 1147 1463 q 1085 1372 1107 1406 q 1072 1356 1081 1363 q 1053 1356 1064 1350 l 1058 1372 l 1163 1597 q 1176 1599 1164 1597 q 1201 1602 1188 1601 q 1227 1601 1215 1603 q 1242 1590 1239 1599 q 1276 1482 1261 1529 q 1301 1408 1290 1442 q 1311 1376 1311 1375 l 1317 1358 z "},"":{"ha":1594,"x_min":74,"x_max":1488,"o":"m 1194 1249 q 1368 1165 1303 1236 q 1460 985 1433 1093 q 1479 745 1488 878 q 1432 478 1471 613 q 1327 220 1393 344 q 1173 4 1261 96 q 977 -135 1085 -87 q 749 -162 869 -182 q 556 -87 626 -143 q 458 49 486 -31 q 438 226 429 128 q 481 426 446 324 q 572 629 515 528 q 697 819 628 731 q 841 974 765 907 q 989 1077 917 1042 q 1126 1110 1061 1113 q 1236 1053 1190 1107 q 1266 989 1261 1024 q 1263 917 1271 954 q 1235 841 1254 879 q 1193 768 1217 803 q 1144 703 1169 733 q 1097 653 1118 674 q 1049 627 1072 628 q 1007 640 1026 626 q 974 676 988 653 q 954 725 960 700 q 998 757 969 738 q 1058 799 1026 776 q 1119 849 1089 822 q 1169 903 1150 876 q 1192 958 1189 931 q 1175 1010 1196 985 q 1113 1026 1151 1036 q 1029 981 1075 1017 q 933 886 983 944 q 833 757 882 828 q 743 607 785 686 q 672 451 701 528 q 631 302 643 374 q 631 175 619 231 q 681 84 642 119 q 792 43 719 49 q 951 78 875 36 q 1091 192 1026 119 q 1206 358 1156 264 q 1290 554 1257 453 q 1335 755 1322 656 q 1335 935 1347 854 q 1285 1069 1324 1015 q 1179 1132 1247 1122 q 992 1113 1081 1146 q 819 1024 903 1081 q 658 896 736 967 q 501 763 579 825 q 346 660 424 701 q 188 618 268 618 q 93 663 113 618 q 101 800 74 708 q 238 778 172 772 q 369 813 304 783 q 497 888 433 842 q 624 986 560 935 q 755 1088 689 1038 q 891 1178 821 1139 q 1037 1238 961 1217 q 1194 1249 1113 1258 m 1346 1579 q 1392 1547 1372 1565 q 1420 1508 1411 1528 q 1426 1471 1429 1489 q 1404 1440 1422 1453 q 1354 1406 1379 1424 q 1309 1375 1329 1389 q 1276 1351 1289 1361 q 1261 1339 1263 1340 q 1220 1374 1224 1358 q 1222 1397 1217 1390 q 1248 1435 1235 1417 q 1276 1474 1261 1453 q 1308 1519 1290 1494 q 1346 1579 1325 1544 z "},"":{"ha":1594,"x_min":74,"x_max":1488,"o":"m 1194 1249 q 1368 1165 1303 1236 q 1460 985 1433 1093 q 1479 745 1488 878 q 1432 478 1471 613 q 1327 220 1393 344 q 1173 4 1261 96 q 977 -135 1085 -87 q 749 -162 869 -182 q 556 -87 626 -143 q 458 49 486 -31 q 438 226 429 128 q 481 426 446 324 q 572 629 515 528 q 697 819 628 731 q 841 974 765 907 q 989 1077 917 1042 q 1126 1110 1061 1113 q 1236 1053 1190 1107 q 1266 989 1261 1024 q 1263 917 1271 954 q 1235 841 1254 879 q 1193 768 1217 803 q 1144 703 1169 733 q 1097 653 1118 674 q 1049 627 1072 628 q 1007 640 1026 626 q 974 676 988 653 q 954 725 960 700 q 998 757 969 738 q 1058 799 1026 776 q 1119 849 1089 822 q 1169 903 1150 876 q 1192 958 1189 931 q 1175 1010 1196 985 q 1113 1026 1151 1036 q 1029 981 1075 1017 q 933 886 983 944 q 833 757 882 828 q 743 607 785 686 q 672 451 701 528 q 631 302 643 374 q 631 175 619 231 q 681 84 642 119 q 792 43 719 49 q 951 78 875 36 q 1091 192 1026 119 q 1206 358 1156 264 q 1290 554 1257 453 q 1335 755 1322 656 q 1335 935 1347 854 q 1285 1069 1324 1015 q 1179 1132 1247 1122 q 992 1113 1081 1146 q 819 1024 903 1081 q 658 896 736 967 q 501 763 579 825 q 346 660 424 701 q 188 618 268 618 q 93 663 113 618 q 101 800 74 708 q 238 778 172 772 q 369 813 304 783 q 497 888 433 842 q 624 986 560 935 q 755 1088 689 1038 q 891 1178 821 1139 q 1037 1238 961 1217 q 1194 1249 1113 1258 m 1358 1376 q 1360 1353 1363 1369 q 1319 1317 1357 1336 q 1297 1338 1318 1318 q 1246 1382 1275 1357 q 1184 1433 1217 1407 q 1126 1476 1151 1460 q 1103 1507 1107 1489 q 1109 1544 1100 1525 q 1138 1583 1118 1564 q 1183 1615 1157 1601 q 1230 1547 1204 1581 q 1279 1481 1256 1513 q 1324 1423 1303 1450 q 1358 1376 1346 1396 z "},"":{"ha":1517,"x_min":-3,"x_max":1990,"o":"m 1914 1244 q 1978 1200 1965 1244 q 1974 1082 1990 1156 q 1897 1115 1943 1121 q 1794 1071 1850 1110 q 1677 966 1739 1032 q 1555 819 1615 900 q 1438 646 1494 738 q 1338 464 1382 554 l 1374 461 q 1401 453 1388 460 q 1413 429 1415 446 q 1365 424 1389 426 q 1317 419 1340 422 q 1253 270 1279 338 q 1220 153 1228 203 q 1226 73 1213 103 q 1279 35 1239 43 q 1179 -7 1225 -10 q 1097 24 1124 -6 q 1069 108 1071 54 q 1086 237 1067 161 q 1142 404 1106 313 q 1042 397 1093 400 q 943 390 992 393 q 777 237 861 308 q 603 113 693 165 q 419 29 514 60 q 222 -1 324 -1 q 127 13 169 -1 q 56 55 85 28 q 12 123 26 82 q 0 217 -3 164 q 52 376 6 303 q 172 508 99 449 q 338 613 246 567 q 526 689 431 658 q 712 735 621 719 q 875 750 803 750 q 927 703 908 750 q 936 588 946 656 q 808 603 886 601 q 641 595 731 606 q 460 563 551 585 q 293 505 369 540 q 165 420 217 469 q 106 308 114 371 q 121 254 101 275 q 171 221 140 233 q 236 203 201 208 q 294 199 271 199 q 544 246 426 196 q 774 379 663 296 q 665 372 715 375 q 579 367 615 369 q 501 363 536 364 q 491 399 492 376 q 496 449 490 422 q 512 501 501 475 q 538 546 522 526 q 567 515 539 528 q 644 494 596 503 q 755 481 692 486 q 889 475 818 476 q 1053 631 969 546 q 1224 802 1138 717 q 1397 968 1310 888 q 1572 1110 1485 1049 q 1744 1208 1658 1171 q 1914 1244 1831 1244 m 1168 468 q 1276 679 1214 572 q 1413 883 1339 786 q 1218 682 1314 789 q 1022 471 1122 575 l 1168 468 m 1931 1368 q 1932 1344 1935 1361 q 1892 1308 1929 1328 q 1869 1329 1890 1310 q 1818 1374 1847 1349 q 1756 1425 1789 1399 q 1699 1468 1724 1451 q 1676 1499 1679 1481 q 1681 1536 1672 1517 q 1710 1574 1690 1556 q 1756 1607 1729 1593 q 1802 1538 1776 1572 q 1851 1473 1828 1504 q 1897 1415 1875 1442 q 1931 1368 1918 1388 z "},"":{"ha":1517,"x_min":-3,"x_max":2118,"o":"m 1914 1244 q 1978 1200 1965 1244 q 1974 1082 1990 1156 q 1897 1115 1943 1121 q 1794 1071 1850 1110 q 1677 966 1739 1032 q 1555 819 1615 900 q 1438 646 1494 738 q 1338 464 1382 554 l 1374 461 q 1401 453 1388 460 q 1413 429 1415 446 q 1365 424 1389 426 q 1317 419 1340 422 q 1253 270 1279 338 q 1220 153 1228 203 q 1226 73 1213 103 q 1279 35 1239 43 q 1179 -7 1225 -10 q 1097 24 1124 -6 q 1069 108 1071 54 q 1086 237 1067 161 q 1142 404 1106 313 q 1042 397 1093 400 q 943 390 992 393 q 777 237 861 308 q 603 113 693 165 q 419 29 514 60 q 222 -1 324 -1 q 127 13 169 -1 q 56 55 85 28 q 12 123 26 82 q 0 217 -3 164 q 52 376 6 303 q 172 508 99 449 q 338 613 246 567 q 526 689 431 658 q 712 735 621 719 q 875 750 803 750 q 927 703 908 750 q 936 588 946 656 q 808 603 886 601 q 641 595 731 606 q 460 563 551 585 q 293 505 369 540 q 165 420 217 469 q 106 308 114 371 q 121 254 101 275 q 171 221 140 233 q 236 203 201 208 q 294 199 271 199 q 544 246 426 196 q 774 379 663 296 q 665 372 715 375 q 579 367 615 369 q 501 363 536 364 q 491 399 492 376 q 496 449 490 422 q 512 501 501 475 q 538 546 522 526 q 567 515 539 528 q 644 494 596 503 q 755 481 692 486 q 889 475 818 476 q 1053 631 969 546 q 1224 802 1138 717 q 1397 968 1310 888 q 1572 1110 1485 1049 q 1744 1208 1658 1171 q 1914 1244 1831 1244 m 1168 468 q 1276 679 1214 572 q 1413 883 1339 786 q 1218 682 1314 789 q 1022 471 1122 575 l 1168 468 m 2035 1561 q 2081 1528 2061 1547 q 2109 1490 2100 1510 q 2115 1453 2118 1471 q 2093 1422 2111 1435 q 2043 1388 2068 1406 q 1998 1357 2018 1371 q 1965 1333 1978 1343 q 1950 1321 1951 1322 q 1909 1356 1913 1340 q 1911 1379 1906 1372 q 1937 1417 1924 1399 q 1965 1456 1950 1435 q 1997 1501 1979 1476 q 2035 1561 2014 1526 z "},"":{"ha":1517,"x_min":-3,"x_max":2053,"o":"m 1914 1244 q 1978 1200 1965 1244 q 1974 1082 1990 1156 q 1897 1115 1943 1121 q 1794 1071 1850 1110 q 1677 966 1739 1032 q 1555 819 1615 900 q 1438 646 1494 738 q 1338 464 1382 554 l 1374 461 q 1401 453 1388 460 q 1413 429 1415 446 q 1365 424 1389 426 q 1317 419 1340 422 q 1253 270 1279 338 q 1220 153 1228 203 q 1226 73 1213 103 q 1279 35 1239 43 q 1179 -7 1225 -10 q 1097 24 1124 -6 q 1069 108 1071 54 q 1086 237 1067 161 q 1142 404 1106 313 q 1042 397 1093 400 q 943 390 992 393 q 777 237 861 308 q 603 113 693 165 q 419 29 514 60 q 222 -1 324 -1 q 127 13 169 -1 q 56 55 85 28 q 12 123 26 82 q 0 217 -3 164 q 52 376 6 303 q 172 508 99 449 q 338 613 246 567 q 526 689 431 658 q 712 735 621 719 q 875 750 803 750 q 927 703 908 750 q 936 588 946 656 q 808 603 886 601 q 641 595 731 606 q 460 563 551 585 q 293 505 369 540 q 165 420 217 469 q 106 308 114 371 q 121 254 101 275 q 171 221 140 233 q 236 203 201 208 q 294 199 271 199 q 544 246 426 196 q 774 379 663 296 q 665 372 715 375 q 579 367 615 369 q 501 363 536 364 q 491 399 492 376 q 496 449 490 422 q 512 501 501 475 q 538 546 522 526 q 567 515 539 528 q 644 494 596 503 q 755 481 692 486 q 889 475 818 476 q 1053 631 969 546 q 1224 802 1138 717 q 1397 968 1310 888 q 1572 1110 1485 1049 q 1744 1208 1658 1171 q 1914 1244 1831 1244 m 1168 468 q 1276 679 1214 572 q 1413 883 1339 786 q 1218 682 1314 789 q 1022 471 1122 575 l 1168 468 m 2053 1381 q 2033 1382 2042 1375 q 2021 1397 2025 1389 q 1989 1460 2004 1431 q 1960 1510 1975 1485 q 1933 1551 1944 1536 q 1903 1510 1922 1536 q 1865 1458 1883 1485 q 1821 1394 1843 1428 q 1808 1378 1817 1385 q 1789 1378 1800 1372 l 1794 1394 l 1899 1619 q 1912 1622 1900 1619 q 1938 1624 1924 1624 q 1963 1623 1951 1625 q 1978 1613 1975 1621 q 2013 1504 1997 1551 q 2037 1431 2026 1464 q 2047 1399 2047 1397 l 2053 1381 z "},"":{"ha":1517,"x_min":-3,"x_max":2168,"o":"m 1914 1244 q 1978 1200 1965 1244 q 1974 1082 1990 1156 q 1897 1115 1943 1121 q 1794 1071 1850 1110 q 1677 966 1739 1032 q 1555 819 1615 900 q 1438 646 1494 738 q 1338 464 1382 554 l 1374 461 q 1401 453 1388 460 q 1413 429 1415 446 q 1365 424 1389 426 q 1317 419 1340 422 q 1253 270 1279 338 q 1220 153 1228 203 q 1226 73 1213 103 q 1279 35 1239 43 q 1179 -7 1225 -10 q 1097 24 1124 -6 q 1069 108 1071 54 q 1086 237 1067 161 q 1142 404 1106 313 q 1042 397 1093 400 q 943 390 992 393 q 777 237 861 308 q 603 113 693 165 q 419 29 514 60 q 222 -1 324 -1 q 127 13 169 -1 q 56 55 85 28 q 12 123 26 82 q 0 217 -3 164 q 52 376 6 303 q 172 508 99 449 q 338 613 246 567 q 526 689 431 658 q 712 735 621 719 q 875 750 803 750 q 927 703 908 750 q 936 588 946 656 q 808 603 886 601 q 641 595 731 606 q 460 563 551 585 q 293 505 369 540 q 165 420 217 469 q 106 308 114 371 q 121 254 101 275 q 171 221 140 233 q 236 203 201 208 q 294 199 271 199 q 544 246 426 196 q 774 379 663 296 q 665 372 715 375 q 579 367 615 369 q 501 363 536 364 q 491 399 492 376 q 496 449 490 422 q 512 501 501 475 q 538 546 522 526 q 567 515 539 528 q 644 494 596 503 q 755 481 692 486 q 889 475 818 476 q 1053 631 969 546 q 1224 802 1138 717 q 1397 968 1310 888 q 1572 1110 1485 1049 q 1744 1208 1658 1171 q 1914 1244 1831 1244 m 1168 468 q 1276 679 1214 572 q 1413 883 1339 786 q 1218 682 1314 789 q 1022 471 1122 575 l 1168 468 m 2104 1489 q 2154 1442 2140 1465 q 2143 1396 2168 1418 q 2083 1370 2114 1371 q 2020 1379 2051 1369 q 1958 1403 1989 1389 q 1897 1423 1926 1418 q 1842 1417 1868 1428 q 1794 1365 1815 1406 q 1761 1390 1776 1378 q 1737 1413 1746 1401 q 1728 1436 1728 1425 q 1740 1458 1728 1447 q 1802 1485 1769 1483 q 1868 1476 1835 1486 q 1934 1451 1901 1465 q 1997 1431 1967 1436 q 2055 1436 2028 1425 q 2104 1489 2082 1447 z "},"":{"ha":1517,"x_min":-3,"x_max":2058,"o":"m 1914 1244 q 1978 1200 1965 1244 q 1974 1082 1990 1156 q 1897 1115 1943 1121 q 1794 1071 1850 1110 q 1677 966 1739 1032 q 1555 819 1615 900 q 1438 646 1494 738 q 1338 464 1382 554 l 1374 461 q 1401 453 1388 460 q 1413 429 1415 446 q 1365 424 1389 426 q 1317 419 1340 422 q 1253 270 1279 338 q 1220 153 1228 203 q 1226 73 1213 103 q 1279 35 1239 43 q 1179 -7 1225 -10 q 1097 24 1124 -6 q 1069 108 1071 54 q 1086 237 1067 161 q 1142 404 1106 313 q 1042 397 1093 400 q 943 390 992 393 q 777 237 861 308 q 603 113 693 165 q 419 29 514 60 q 222 -1 324 -1 q 127 13 169 -1 q 56 55 85 28 q 12 123 26 82 q 0 217 -3 164 q 52 376 6 303 q 172 508 99 449 q 338 613 246 567 q 526 689 431 658 q 712 735 621 719 q 875 750 803 750 q 927 703 908 750 q 936 588 946 656 q 808 603 886 601 q 641 595 731 606 q 460 563 551 585 q 293 505 369 540 q 165 420 217 469 q 106 308 114 371 q 121 254 101 275 q 171 221 140 233 q 236 203 201 208 q 294 199 271 199 q 544 246 426 196 q 774 379 663 296 q 665 372 715 375 q 579 367 615 369 q 501 363 536 364 q 491 399 492 376 q 496 449 490 422 q 512 501 501 475 q 538 546 522 526 q 567 515 539 528 q 644 494 596 503 q 755 481 692 486 q 889 475 818 476 q 1053 631 969 546 q 1224 802 1138 717 q 1397 968 1310 888 q 1572 1110 1485 1049 q 1744 1208 1658 1171 q 1914 1244 1831 1244 m 1168 468 q 1276 679 1214 572 q 1413 883 1339 786 q 1218 682 1314 789 q 1022 471 1122 575 l 1168 468 m 1810 1474 q 1861 1451 1840 1474 q 1882 1397 1882 1429 q 1861 1343 1882 1365 q 1810 1321 1840 1321 q 1760 1343 1781 1321 q 1739 1397 1739 1365 q 1760 1451 1739 1429 q 1810 1474 1781 1474 m 1986 1474 q 2038 1451 2017 1474 q 2058 1397 2058 1429 q 2038 1343 2058 1365 q 1986 1321 2017 1321 q 1936 1343 1957 1321 q 1915 1397 1915 1365 q 1936 1451 1915 1429 q 1986 1474 1957 1474 z "},"":{"ha":1517,"x_min":-3,"x_max":2101,"o":"m 1914 1244 q 1978 1200 1965 1244 q 1974 1082 1990 1156 q 1897 1115 1943 1121 q 1794 1071 1850 1110 q 1677 966 1739 1032 q 1555 819 1615 900 q 1438 646 1494 738 q 1338 464 1382 554 l 1374 461 q 1401 453 1388 460 q 1413 429 1415 446 q 1365 424 1389 426 q 1317 419 1340 422 q 1253 270 1279 338 q 1220 153 1228 203 q 1226 73 1213 103 q 1279 35 1239 43 q 1179 -7 1225 -10 q 1097 24 1124 -6 q 1069 108 1071 54 q 1086 237 1067 161 q 1142 404 1106 313 q 1042 397 1093 400 q 943 390 992 393 q 777 237 861 308 q 603 113 693 165 q 419 29 514 60 q 222 -1 324 -1 q 127 13 169 -1 q 56 55 85 28 q 12 123 26 82 q 0 217 -3 164 q 52 376 6 303 q 172 508 99 449 q 338 613 246 567 q 526 689 431 658 q 712 735 621 719 q 875 750 803 750 q 927 703 908 750 q 936 588 946 656 q 808 603 886 601 q 641 595 731 606 q 460 563 551 585 q 293 505 369 540 q 165 420 217 469 q 106 308 114 371 q 121 254 101 275 q 171 221 140 233 q 236 203 201 208 q 294 199 271 199 q 544 246 426 196 q 774 379 663 296 q 665 372 715 375 q 579 367 615 369 q 501 363 536 364 q 491 399 492 376 q 496 449 490 422 q 512 501 501 475 q 538 546 522 526 q 567 515 539 528 q 644 494 596 503 q 755 481 692 486 q 889 475 818 476 q 1053 631 969 546 q 1224 802 1138 717 q 1397 968 1310 888 q 1572 1110 1485 1049 q 1744 1208 1658 1171 q 1914 1244 1831 1244 m 1168 468 q 1276 679 1214 572 q 1413 883 1339 786 q 1218 682 1314 789 q 1022 471 1122 575 l 1168 468 m 2046 1613 q 2089 1580 2076 1603 q 2101 1528 2101 1557 q 2089 1471 2101 1500 q 2057 1421 2076 1442 q 2011 1391 2038 1400 q 1957 1394 1985 1382 q 1919 1429 1931 1406 q 1910 1479 1908 1453 q 1922 1533 1911 1506 q 1951 1581 1933 1560 q 1994 1611 1969 1601 q 2046 1613 2018 1621 m 1968 1419 q 2005 1433 1985 1410 q 2038 1488 2025 1456 q 2054 1551 2051 1521 q 2039 1585 2057 1581 q 2005 1565 2024 1588 q 1974 1513 1986 1543 q 1958 1454 1961 1482 q 1968 1419 1954 1426 z "},"":{"ha":825,"x_min":47,"x_max":1000,"o":"m 842 1271 q 933 1243 896 1271 q 985 1174 971 1215 q 990 1083 1000 1132 q 942 990 981 1033 q 833 914 903 946 q 657 875 763 882 q 660 780 646 824 q 710 715 674 736 q 727 705 722 708 q 732 695 732 701 q 727 676 732 689 q 715 638 722 664 q 594 608 656 649 q 481 502 533 568 q 390 356 429 436 q 331 206 350 275 q 316 89 311 136 q 360 42 321 42 q 493 86 426 42 q 620 197 560 131 q 733 338 681 263 q 825 476 785 414 l 863 476 q 805 358 838 425 q 732 219 772 290 q 644 80 692 149 q 544 -43 597 11 q 431 -130 490 -97 q 304 -162 371 -162 q 199 -129 239 -162 q 143 -40 160 -96 q 131 88 126 15 q 160 237 136 160 q 223 390 183 314 q 316 530 263 465 q 435 641 369 594 q 575 704 500 688 q 525 782 540 738 q 508 875 510 826 q 388 890 447 879 q 274 917 328 900 q 176 957 221 933 q 100 1013 131 981 q 65 1112 47 1065 q 165 1204 82 1158 q 307 1027 213 1092 q 515 943 401 963 q 556 1063 526 1004 q 629 1169 586 1122 q 726 1243 672 1215 q 842 1271 781 1271 m 835 1118 q 788 1103 811 1118 q 745 1064 765 1089 q 707 1007 725 1039 q 676 940 689 975 q 805 967 757 950 q 876 1003 853 983 q 901 1044 899 1024 q 894 1080 904 1064 q 868 1107 885 1096 q 835 1118 851 1118 m 933 1388 q 935 1364 938 1381 q 894 1328 932 1347 q 872 1349 893 1329 q 821 1393 850 1368 q 759 1444 792 1418 q 701 1488 726 1471 q 678 1518 682 1500 q 684 1556 675 1536 q 713 1594 693 1575 q 758 1626 732 1613 q 805 1558 779 1592 q 854 1492 831 1524 q 899 1434 878 1461 q 933 1388 921 1407 z "},"":{"ha":825,"x_min":47,"x_max":1097,"o":"m 842 1271 q 933 1243 896 1271 q 985 1174 971 1215 q 990 1083 1000 1132 q 942 990 981 1033 q 833 914 903 946 q 657 875 763 882 q 660 780 646 824 q 710 715 674 736 q 727 705 722 708 q 732 695 732 701 q 727 676 732 689 q 715 638 722 664 q 594 608 656 649 q 481 502 533 568 q 390 356 429 436 q 331 206 350 275 q 316 89 311 136 q 360 42 321 42 q 493 86 426 42 q 620 197 560 131 q 733 338 681 263 q 825 476 785 414 l 863 476 q 805 358 838 425 q 732 219 772 290 q 644 80 692 149 q 544 -43 597 11 q 431 -130 490 -97 q 304 -162 371 -162 q 199 -129 239 -162 q 143 -40 160 -96 q 131 88 126 15 q 160 237 136 160 q 223 390 183 314 q 316 530 263 465 q 435 641 369 594 q 575 704 500 688 q 525 782 540 738 q 508 875 510 826 q 388 890 447 879 q 274 917 328 900 q 176 957 221 933 q 100 1013 131 981 q 65 1112 47 1065 q 165 1204 82 1158 q 307 1027 213 1092 q 515 943 401 963 q 556 1063 526 1004 q 629 1169 586 1122 q 726 1243 672 1215 q 842 1271 781 1271 m 835 1118 q 788 1103 811 1118 q 745 1064 765 1089 q 707 1007 725 1039 q 676 940 689 975 q 805 967 757 950 q 876 1003 853 983 q 901 1044 899 1024 q 894 1080 904 1064 q 868 1107 885 1096 q 835 1118 851 1118 m 1014 1615 q 1060 1583 1040 1601 q 1088 1544 1079 1564 q 1094 1507 1097 1525 q 1072 1476 1090 1489 q 1022 1442 1047 1460 q 977 1411 997 1425 q 944 1387 957 1397 q 929 1375 931 1376 q 888 1410 892 1394 q 890 1433 885 1426 q 916 1471 903 1453 q 944 1510 929 1489 q 976 1556 958 1531 q 1014 1615 993 1581 z "},"":{"ha":825,"x_min":47,"x_max":1000,"o":"m 842 1271 q 933 1243 896 1271 q 985 1174 971 1215 q 990 1083 1000 1132 q 942 990 981 1033 q 833 914 903 946 q 657 875 763 882 q 660 780 646 824 q 710 715 674 736 q 727 705 722 708 q 732 695 732 701 q 727 676 732 689 q 715 638 722 664 q 594 608 656 649 q 481 502 533 568 q 390 356 429 436 q 331 206 350 275 q 316 89 311 136 q 360 42 321 42 q 493 86 426 42 q 620 197 560 131 q 733 338 681 263 q 825 476 785 414 l 863 476 q 805 358 838 425 q 732 219 772 290 q 644 80 692 149 q 544 -43 597 11 q 431 -130 490 -97 q 304 -162 371 -162 q 199 -129 239 -162 q 143 -40 160 -96 q 131 88 126 15 q 160 237 136 160 q 223 390 183 314 q 316 530 263 465 q 435 641 369 594 q 575 704 500 688 q 525 782 540 738 q 508 875 510 826 q 388 890 447 879 q 274 917 328 900 q 176 957 221 933 q 100 1013 131 981 q 65 1112 47 1065 q 165 1204 82 1158 q 307 1027 213 1092 q 515 943 401 963 q 556 1063 526 1004 q 629 1169 586 1122 q 726 1243 672 1215 q 842 1271 781 1271 m 835 1118 q 788 1103 811 1118 q 745 1064 765 1089 q 707 1007 725 1039 q 676 940 689 975 q 805 967 757 950 q 876 1003 853 983 q 901 1044 899 1024 q 894 1080 904 1064 q 868 1107 885 1096 q 835 1118 851 1118 m 985 1322 q 965 1324 974 1317 q 953 1339 957 1331 q 921 1401 936 1372 q 892 1452 907 1426 q 865 1493 876 1478 q 835 1452 854 1478 q 797 1400 815 1426 q 753 1336 775 1369 q 740 1320 749 1326 q 721 1319 732 1314 l 726 1336 l 831 1561 q 844 1563 832 1561 q 869 1566 856 1565 q 895 1565 883 1567 q 910 1554 907 1563 q 944 1446 929 1493 q 969 1372 958 1406 q 979 1340 979 1339 l 985 1322 z "},"":{"ha":825,"x_min":47,"x_max":1008,"o":"m 842 1271 q 933 1243 896 1271 q 985 1174 971 1215 q 990 1083 1000 1132 q 942 990 981 1033 q 833 914 903 946 q 657 875 763 882 q 660 780 646 824 q 710 715 674 736 q 727 705 722 708 q 732 695 732 701 q 727 676 732 689 q 715 638 722 664 q 594 608 656 649 q 481 502 533 568 q 390 356 429 436 q 331 206 350 275 q 316 89 311 136 q 360 42 321 42 q 493 86 426 42 q 620 197 560 131 q 733 338 681 263 q 825 476 785 414 l 863 476 q 805 358 838 425 q 732 219 772 290 q 644 80 692 149 q 544 -43 597 11 q 431 -130 490 -97 q 304 -162 371 -162 q 199 -129 239 -162 q 143 -40 160 -96 q 131 88 126 15 q 160 237 136 160 q 223 390 183 314 q 316 530 263 465 q 435 641 369 594 q 575 704 500 688 q 525 782 540 738 q 508 875 510 826 q 388 890 447 879 q 274 917 328 900 q 176 957 221 933 q 100 1013 131 981 q 65 1112 47 1065 q 165 1204 82 1158 q 307 1027 213 1092 q 515 943 401 963 q 556 1063 526 1004 q 629 1169 586 1122 q 726 1243 672 1215 q 842 1271 781 1271 m 835 1118 q 788 1103 811 1118 q 745 1064 765 1089 q 707 1007 725 1039 q 676 940 689 975 q 805 967 757 950 q 876 1003 853 983 q 901 1044 899 1024 q 894 1080 904 1064 q 868 1107 885 1096 q 835 1118 851 1118 m 760 1556 q 811 1533 790 1556 q 832 1479 832 1511 q 811 1425 832 1447 q 760 1403 790 1403 q 710 1425 731 1403 q 689 1479 689 1447 q 710 1533 689 1511 q 760 1556 731 1556 m 936 1556 q 988 1533 967 1556 q 1008 1479 1008 1511 q 988 1425 1008 1447 q 936 1403 967 1403 q 886 1425 907 1403 q 865 1479 865 1447 q 886 1533 865 1511 q 936 1556 907 1556 z "},"":{"ha":718,"x_min":-11,"x_max":1199,"o":"m 1124 1247 q 1187 1202 1175 1247 q 1183 1085 1199 1157 q 1065 1086 1128 1106 q 940 1018 1003 1067 q 813 897 876 969 q 693 738 750 824 q 587 556 636 651 q 501 369 538 461 q 445 192 465 276 q 424 40 425 107 q 445 -72 424 -28 q 517 -125 467 -115 q 464 -156 489 -147 q 417 -167 439 -164 q 272 -143 318 -182 q 222 -28 226 -104 q 249 153 218 49 q 332 373 279 257 q 454 608 385 489 q 597 831 524 726 q 740 1017 669 935 q 865 1140 810 1099 q 725 1057 792 1108 q 597 947 658 1006 q 475 831 535 889 q 356 725 415 772 q 235 648 297 678 q 106 618 172 618 q 10 663 31 618 q 14 800 -11 708 q 148 776 85 772 q 270 806 211 779 q 386 874 329 832 q 503 966 443 917 q 629 1065 564 1015 q 770 1156 694 1115 q 933 1222 846 1196 q 1124 1247 1019 1247 m 1093 1372 q 1094 1349 1097 1365 q 1054 1313 1092 1332 q 1031 1333 1053 1314 q 981 1378 1010 1353 q 919 1429 951 1403 q 861 1472 886 1456 q 838 1503 842 1485 q 844 1540 835 1521 q 872 1578 853 1560 q 918 1611 892 1597 q 965 1542 939 1576 q 1014 1477 990 1508 q 1059 1419 1038 1446 q 1093 1372 1081 1392 z "},"":{"ha":718,"x_min":-11,"x_max":1297,"o":"m 1124 1247 q 1187 1202 1175 1247 q 1183 1085 1199 1157 q 1065 1086 1128 1106 q 940 1018 1003 1067 q 813 897 876 969 q 693 738 750 824 q 587 556 636 651 q 501 369 538 461 q 445 192 465 276 q 424 40 425 107 q 445 -72 424 -28 q 517 -125 467 -115 q 464 -156 489 -147 q 417 -167 439 -164 q 272 -143 318 -182 q 222 -28 226 -104 q 249 153 218 49 q 332 373 279 257 q 454 608 385 489 q 597 831 524 726 q 740 1017 669 935 q 865 1140 810 1099 q 725 1057 792 1108 q 597 947 658 1006 q 475 831 535 889 q 356 725 415 772 q 235 648 297 678 q 106 618 172 618 q 10 663 31 618 q 14 800 -11 708 q 148 776 85 772 q 270 806 211 779 q 386 874 329 832 q 503 966 443 917 q 629 1065 564 1015 q 770 1156 694 1115 q 933 1222 846 1196 q 1124 1247 1019 1247 m 1214 1572 q 1260 1540 1240 1558 q 1288 1501 1279 1521 q 1294 1464 1297 1482 q 1272 1433 1290 1446 q 1222 1399 1247 1417 q 1177 1368 1197 1382 q 1144 1344 1157 1354 q 1129 1332 1131 1333 q 1088 1367 1092 1351 q 1090 1390 1085 1383 q 1116 1428 1103 1410 q 1144 1467 1129 1446 q 1176 1513 1158 1488 q 1214 1572 1193 1538 z "},"":{"ha":718,"x_min":-11,"x_max":1204,"o":"m 1124 1247 q 1187 1202 1175 1247 q 1183 1085 1199 1157 q 1065 1086 1128 1106 q 940 1018 1003 1067 q 813 897 876 969 q 693 738 750 824 q 587 556 636 651 q 501 369 538 461 q 445 192 465 276 q 424 40 425 107 q 445 -72 424 -28 q 517 -125 467 -115 q 464 -156 489 -147 q 417 -167 439 -164 q 272 -143 318 -182 q 222 -28 226 -104 q 249 153 218 49 q 332 373 279 257 q 454 608 385 489 q 597 831 524 726 q 740 1017 669 935 q 865 1140 810 1099 q 725 1057 792 1108 q 597 947 658 1006 q 475 831 535 889 q 356 725 415 772 q 235 648 297 678 q 106 618 172 618 q 10 663 31 618 q 14 800 -11 708 q 148 776 85 772 q 270 806 211 779 q 386 874 329 832 q 503 966 443 917 q 629 1065 564 1015 q 770 1156 694 1115 q 933 1222 846 1196 q 1124 1247 1019 1247 m 1204 1354 q 1185 1356 1193 1349 q 1172 1371 1176 1363 q 1140 1433 1156 1404 q 1111 1484 1126 1458 q 1085 1525 1096 1510 q 1054 1484 1074 1510 q 1017 1432 1035 1458 q 972 1368 994 1401 q 960 1352 968 1358 q 940 1351 951 1346 l 946 1368 l 1050 1593 q 1063 1595 1051 1593 q 1089 1598 1075 1597 q 1115 1597 1103 1599 q 1129 1586 1126 1594 q 1164 1478 1149 1525 q 1188 1404 1178 1438 q 1199 1372 1199 1371 l 1204 1354 z "},"":{"ha":1247,"x_min":31,"x_max":1735,"o":"m 1658 1247 q 1722 1199 1710 1242 q 1718 1085 1735 1157 q 1601 1086 1663 1106 q 1475 1018 1539 1067 q 1349 897 1411 969 q 1228 738 1286 824 q 1122 556 1171 651 q 1038 369 1074 461 q 981 192 1001 276 q 959 40 960 107 q 981 -72 958 -28 q 1053 -125 1003 -115 q 994 -156 1026 -146 q 926 -169 961 -167 q 858 -165 892 -171 q 794 -146 824 -160 q 694 -55 729 -117 q 651 89 660 7 q 656 268 642 171 q 703 466 671 365 q 781 665 735 567 q 883 847 828 763 q 1002 994 939 931 q 1129 1089 1065 1057 q 997 1025 1067 1075 q 858 899 926 975 q 724 724 789 822 q 607 517 660 626 q 560 420 586 475 q 512 305 535 365 q 474 183 489 244 q 460 64 458 121 q 483 -42 461 7 q 558 -125 506 -92 q 506 -156 531 -147 q 458 -167 481 -164 q 346 -153 388 -178 q 287 -79 304 -129 q 274 42 269 -29 q 302 199 279 114 q 365 380 325 285 q 456 571 404 475 q 553 736 500 654 q 663 892 606 818 q 783 1030 721 967 q 907 1140 844 1093 q 766 1057 832 1108 q 638 947 700 1006 q 517 831 576 889 q 398 725 457 772 q 276 648 339 678 q 147 618 214 618 q 51 663 72 618 q 56 800 31 708 q 238 781 154 761 q 399 852 321 800 q 555 974 476 904 q 722 1108 633 1044 q 913 1212 810 1171 q 1144 1246 1017 1253 q 1211 1231 1192 1250 q 1235 1180 1231 1211 q 1233 1112 1239 1149 q 1225 1044 1228 1075 q 1138 1002 1186 1040 q 1040 901 1090 964 q 940 758 989 839 q 849 587 890 676 q 777 404 807 497 q 735 224 747 311 q 733 63 724 138 q 782 -64 743 -11 q 780 92 767 0 q 828 291 793 185 q 917 511 864 397 q 1038 734 971 625 q 1181 940 1104 843 q 1338 1107 1258 1036 q 1500 1216 1418 1178 q 1658 1247 1582 1254 m 1524 1494 q 1574 1447 1560 1471 q 1563 1401 1588 1424 q 1502 1376 1533 1376 q 1440 1385 1471 1375 q 1377 1409 1408 1394 q 1317 1428 1346 1424 q 1261 1422 1288 1433 q 1214 1371 1235 1411 q 1181 1395 1196 1383 q 1156 1419 1165 1407 q 1147 1442 1147 1431 q 1160 1464 1147 1453 q 1222 1490 1189 1489 q 1288 1481 1254 1492 q 1353 1456 1321 1471 q 1417 1436 1386 1442 q 1474 1442 1447 1431 q 1524 1494 1501 1453 z "},"":{"ha":718,"x_min":-11,"x_max":1242,"o":"m 1124 1247 q 1187 1202 1175 1247 q 1183 1085 1199 1157 q 1065 1086 1128 1106 q 940 1018 1003 1067 q 813 897 876 969 q 693 738 750 824 q 587 556 636 651 q 501 369 538 461 q 445 192 465 276 q 424 40 425 107 q 445 -72 424 -28 q 517 -125 467 -115 q 464 -156 489 -147 q 417 -167 439 -164 q 272 -143 318 -182 q 222 -28 226 -104 q 249 153 218 49 q 332 373 279 257 q 454 608 385 489 q 597 831 524 726 q 740 1017 669 935 q 865 1140 810 1099 q 725 1057 792 1108 q 597 947 658 1006 q 475 831 535 889 q 356 725 415 772 q 235 648 297 678 q 106 618 172 618 q 10 663 31 618 q 14 800 -11 708 q 148 776 85 772 q 270 806 211 779 q 386 874 329 832 q 503 966 443 917 q 629 1065 564 1015 q 770 1156 694 1115 q 933 1222 846 1196 q 1124 1247 1019 1247 m 993 1497 q 1044 1475 1024 1497 q 1065 1421 1065 1453 q 1044 1367 1065 1389 q 993 1344 1024 1344 q 943 1367 964 1344 q 922 1421 922 1389 q 943 1475 922 1453 q 993 1497 964 1497 m 1169 1497 q 1221 1475 1200 1497 q 1242 1421 1242 1453 q 1221 1367 1242 1389 q 1169 1344 1200 1344 q 1119 1367 1140 1344 q 1099 1421 1099 1389 q 1119 1475 1099 1453 q 1169 1497 1140 1497 z "},"":{"ha":529,"x_min":150,"x_max":414,"o":"m 150 1082 q 169 1081 161 1088 q 182 1065 178 1074 q 214 1003 199 1032 q 243 952 228 978 q 269 911 258 926 q 299 952 281 926 q 338 1004 318 978 q 382 1068 358 1035 q 394 1084 386 1078 q 414 1085 403 1090 l 408 1068 l 304 843 q 291 841 303 843 q 265 838 279 839 q 239 840 251 838 q 225 850 226 842 q 190 958 206 911 q 177 998 183 979 q 166 1032 171 1017 q 158 1056 161 1047 q 156 1064 156 1064 l 150 1082 z "},"":{"ha":633,"x_min":-372,"x_max":554,"o":"m 361 717 q 474 676 429 711 q 536 589 518 640 q 545 477 554 538 q 498 361 536 417 q 393 263 460 306 q 228 204 326 221 q 288 117 271 171 q 301 -1 306 64 q 274 -135 297 -65 q 213 -272 250 -206 q 125 -394 175 -337 q 17 -489 75 -451 q -105 -540 -42 -526 q -232 -535 -168 -554 q -334 -461 -301 -514 q -369 -343 -367 -408 q -347 -209 -372 -278 q -276 -87 -322 -140 q -166 -4 -231 -33 q -25 13 -101 25 q 33 -15 11 6 q 54 -72 56 -36 q -58 -92 -11 -71 q -135 -147 -104 -114 q -180 -217 -165 -179 q -194 -290 -194 -256 q -182 -350 -194 -325 q -144 -379 -169 -375 q -50 -347 -100 -385 q 44 -249 0 -310 q 118 -115 88 -189 q 151 25 149 -42 q 124 142 154 92 q 17 206 93 192 q 18 220 18 213 q 20 234 18 228 q 26 244 22 240 q 40 247 31 247 q 195 269 128 240 q 308 347 263 299 q 381 452 354 394 q 413 560 407 510 q 407 645 419 611 q 364 681 394 679 q 303 649 329 681 q 256 575 276 618 q 222 488 236 532 q 200 419 208 444 q 131 428 161 426 q 82 435 100 429 q 60 455 64 440 q 71 503 56 469 q 118 590 92 549 q 180 660 144 631 q 260 705 215 689 q 361 717 304 721 m 185 1082 q 204 1081 196 1088 q 217 1065 213 1074 q 249 1003 233 1032 q 278 952 263 978 q 304 911 293 926 q 334 952 315 926 q 372 1004 353 978 q 417 1068 393 1035 q 429 1084 421 1078 q 449 1085 438 1090 l 443 1068 l 339 843 q 326 841 338 843 q 300 838 314 839 q 274 840 286 838 q 260 850 261 842 q 225 958 240 911 q 212 998 218 979 q 201 1032 206 1017 q 193 1056 196 1047 q 190 1064 190 1064 l 185 1082 z "},"":{"ha":1208,"x_min":-3,"x_max":1244,"o":"m 983 1244 q 1115 1217 1061 1244 q 1199 1144 1168 1190 q 1238 1037 1231 1097 q 1229 912 1244 976 q 1175 783 1214 847 q 1074 665 1136 719 q 928 570 1013 610 q 735 515 843 531 q 906 388 844 465 q 987 220 967 311 q 990 31 1007 129 q 926 -161 972 -68 q 810 -335 881 -254 q 652 -474 739 -417 q 466 -557 565 -531 q 263 -565 367 -583 q 118 -510 175 -554 q 32 -400 61 -465 q 0 -256 3 -335 q 19 -96 -3 -176 q 87 60 42 -15 q 199 194 132 136 q 354 288 267 253 q 547 319 442 322 q 626 306 604 318 q 653 267 649 293 q 653 201 658 242 q 650 101 647 160 q 397 113 507 131 q 214 50 286 94 q 109 -56 142 6 q 86 -176 76 -118 q 151 -281 96 -235 q 308 -340 206 -328 q 478 -308 393 -342 q 637 -215 563 -274 q 769 -82 711 -157 q 858 72 826 -7 q 888 228 889 151 q 844 367 888 306 q 709 469 800 429 q 468 515 618 510 q 468 546 469 533 q 468 566 467 558 q 476 577 469 574 q 499 579 482 581 q 761 610 649 569 q 949 717 874 651 q 1062 864 1024 783 q 1104 1014 1100 944 q 1078 1131 1108 1083 q 983 1178 1047 1178 q 885 1155 931 1178 q 799 1095 839 1132 q 724 1010 758 1058 q 658 913 689 963 q 602 817 628 864 q 556 732 576 769 q 463 772 503 758 q 402 802 422 786 q 385 841 382 818 q 422 910 389 864 q 535 1035 471 975 q 672 1141 599 1094 q 824 1215 744 1188 q 983 1244 904 1243 m 965 1610 q 985 1608 976 1615 q 997 1593 993 1601 q 1029 1531 1014 1560 q 1058 1480 1043 1506 q 1085 1439 1074 1454 q 1115 1480 1096 1454 q 1153 1532 1133 1506 q 1197 1596 1174 1563 q 1210 1612 1201 1606 q 1229 1613 1218 1618 l 1224 1596 l 1119 1371 q 1106 1369 1118 1371 q 1081 1366 1094 1367 q 1054 1367 1067 1365 q 1040 1378 1042 1369 q 1006 1486 1021 1439 q 992 1526 999 1507 q 981 1560 986 1544 q 974 1583 976 1575 q 971 1592 971 1592 l 965 1610 z "},"":{"ha":1254,"x_min":38,"x_max":1382,"o":"m 1168 1229 q 1309 1135 1265 1199 q 1357 994 1353 1072 q 1333 833 1361 915 q 1258 682 1304 750 q 1152 570 1211 614 q 1038 526 1093 526 q 944 558 975 526 q 902 639 913 590 q 895 745 892 688 q 907 853 899 803 q 821 819 861 838 q 836 656 814 732 q 888 506 858 579 q 942 362 917 433 q 967 211 967 290 q 939 56 967 125 q 865 -62 911 -14 q 760 -137 819 -111 q 639 -162 701 -162 q 445 -121 524 -161 q 322 -19 367 -81 q 266 116 278 42 q 272 260 254 190 q 333 385 289 329 q 447 467 378 442 q 536 478 493 483 q 617 451 579 472 q 683 395 654 429 q 732 319 713 361 q 724 260 747 288 q 635 200 701 232 q 617 265 628 224 q 588 343 606 306 q 547 403 571 381 q 489 414 522 426 q 451 374 464 406 q 437 302 438 343 q 448 215 436 261 q 487 131 460 169 q 556 67 514 93 q 658 40 599 42 q 726 49 692 39 q 788 82 760 60 q 833 138 815 104 q 851 218 851 172 q 831 333 853 272 q 778 460 808 394 q 715 594 747 525 q 663 735 683 664 q 524 652 592 693 q 390 581 456 611 q 259 536 324 550 q 131 538 194 522 q 47 603 57 556 q 83 735 38 651 q 221 678 153 686 q 358 686 289 669 q 499 738 428 703 q 646 811 571 772 q 642 901 639 856 q 660 992 644 947 q 742 1122 686 1067 q 867 1208 797 1176 q 1016 1245 938 1239 q 1168 1229 1094 1251 m 1015 622 q 1050 663 1026 624 q 1100 759 1074 701 q 1151 885 1126 817 q 1186 1014 1175 953 q 1190 1119 1197 1075 q 1149 1175 1183 1164 q 1060 1167 1107 1188 q 970 1112 1013 1147 q 895 1032 928 1076 q 850 953 863 988 q 833 897 839 922 q 867 909 850 904 q 901 919 883 914 q 960 935 939 931 q 992 935 982 939 q 1003 919 1003 932 q 1001 883 1004 906 q 983 679 981 740 q 1015 622 986 618 m 1118 1621 q 1138 1619 1129 1626 q 1150 1604 1146 1613 q 1182 1542 1167 1571 q 1211 1491 1196 1517 q 1238 1450 1226 1465 q 1267 1491 1249 1465 q 1306 1543 1286 1517 q 1350 1607 1326 1574 q 1363 1623 1354 1617 q 1382 1624 1371 1629 l 1376 1607 l 1272 1382 q 1259 1380 1271 1382 q 1233 1377 1247 1378 q 1207 1378 1219 1376 q 1193 1389 1194 1381 q 1158 1497 1174 1450 q 1145 1537 1151 1518 q 1134 1571 1139 1556 q 1126 1594 1129 1586 q 1124 1603 1124 1603 l 1118 1621 z "},"":{"ha":442,"x_min":-194,"x_max":478,"o":"m 478 475 q 401 327 442 410 q 310 171 361 244 q 190 48 258 97 q 31 0 122 -1 q -115 36 -65 1 q -179 122 -164 71 q -183 231 -194 172 q -147 336 -172 289 q -90 412 -122 383 q -29 432 -57 440 q 34 547 4 490 q 97 648 64 603 q 170 721 131 693 q 264 750 210 749 q 341 739 300 751 q 432 699 382 726 q 413 665 424 686 q 388 626 401 644 q 358 599 374 608 q 325 601 342 590 l 332 615 q 338 631 335 622 q 347 650 342 639 q 310 667 331 667 q 264 642 279 667 q 242 575 249 617 q 236 482 236 533 q 236 378 236 431 q 232 280 236 326 q 214 203 228 233 q 276 238 244 208 q 336 310 307 268 q 392 396 365 351 q 442 475 418 440 l 478 475 m -11 200 q 59 233 39 200 q 83 309 79 265 q 81 399 86 353 q 75 471 75 444 q 44 430 65 456 q 2 374 24 404 q -39 313 -19 344 q -65 257 -58 282 q -60 216 -71 232 q -11 200 -49 200 m 89 1082 q 108 1081 100 1088 q 121 1065 117 1074 q 153 1003 138 1032 q 182 952 167 978 q 208 911 197 926 q 238 952 219 926 q 276 1004 257 978 q 321 1068 297 1035 q 333 1084 325 1078 q 353 1085 342 1090 l 347 1068 l 243 843 q 230 841 242 843 q 204 838 218 839 q 178 840 190 838 q 164 850 165 842 q 129 958 144 911 q 116 998 122 979 q 105 1032 110 1017 q 97 1056 100 1047 q 94 1064 94 1064 l 89 1082 z "},"":{"ha":1353,"x_min":-11,"x_max":1771,"o":"m 1694 1244 q 1758 1199 1746 1244 q 1754 1082 1771 1154 q 1628 1073 1693 1103 q 1498 976 1564 1043 q 1368 810 1432 908 q 1247 596 1304 711 q 1140 354 1189 481 q 1053 105 1090 228 q 993 -131 1015 -18 q 968 -334 971 -244 q 983 -483 965 -424 q 1044 -558 1001 -543 q 1008 -570 1029 -567 q 967 -573 988 -574 q 927 -570 946 -572 q 897 -565 908 -568 q 810 -515 839 -556 q 774 -410 781 -474 q 781 -265 768 -346 q 817 -94 793 -183 q 874 85 842 -6 q 938 260 906 176 q 1000 414 971 343 q 1047 533 1029 485 q 1001 444 1031 499 q 932 331 971 390 q 847 213 893 272 q 753 106 801 153 q 658 28 706 58 q 565 0 610 -1 q 458 39 496 1 q 406 140 419 76 q 404 288 393 204 q 445 465 415 372 q 521 656 475 558 q 624 844 567 753 q 749 1014 682 935 q 888 1149 817 1093 q 741 1067 810 1118 q 608 958 672 1017 q 484 838 544 899 q 363 729 424 778 q 238 649 301 681 q 106 618 175 618 q 10 663 31 618 q 14 800 -11 708 q 148 776 85 772 q 271 807 211 781 q 389 877 331 833 q 509 970 447 921 q 638 1069 571 1019 q 781 1160 704 1119 q 945 1228 857 1201 q 1136 1254 1033 1254 q 1200 1209 1188 1254 q 1196 1092 1213 1164 q 1065 1091 1131 1115 q 937 1009 999 1067 q 819 870 875 951 q 719 700 764 789 q 642 524 675 611 q 592 366 608 436 q 578 251 576 296 q 606 206 581 207 q 694 246 647 203 q 793 361 740 289 q 905 527 846 433 q 1030 719 964 621 q 1169 912 1096 818 q 1326 1080 1243 1006 q 1500 1199 1408 1154 q 1694 1244 1592 1244 m 1292 1471 q 1343 1449 1322 1471 q 1364 1394 1364 1426 q 1343 1340 1364 1363 q 1292 1318 1322 1318 q 1242 1340 1263 1318 q 1221 1394 1221 1363 q 1242 1449 1221 1426 q 1292 1471 1263 1471 m 1468 1471 q 1519 1449 1499 1471 q 1540 1394 1540 1426 q 1519 1340 1540 1363 q 1468 1318 1499 1318 q 1418 1340 1439 1318 q 1397 1394 1397 1363 q 1418 1449 1397 1426 q 1468 1471 1439 1471 z "},"":{"ha":799,"x_min":108,"x_max":668,"o":"m 567 814 q 603 790 585 806 q 637 756 622 774 q 660 720 651 739 q 667 686 668 701 q 514 618 594 654 q 358 547 444 586 q 182 468 271 508 q 331 356 256 411 q 472 260 407 300 q 581 203 536 221 q 639 204 626 185 q 639 157 642 182 q 629 109 636 132 q 611 68 622 86 q 588 43 600 50 q 470 140 529 89 q 353 244 411 192 q 237 345 294 296 q 124 436 179 394 q 111 454 114 443 q 108 477 108 465 q 110 499 108 489 q 114 511 113 508 q 283 603 199 557 q 433 690 368 649 q 537 763 499 731 q 567 814 575 794 z "},"":{"ha":708,"x_min":56,"x_max":615,"o":"m 608 511 q 612 499 610 508 q 615 477 614 489 q 612 454 615 465 q 600 436 608 443 q 487 345 544 394 q 371 244 429 296 q 253 140 313 192 q 136 43 194 89 q 113 68 124 50 q 94 109 101 86 q 85 157 88 132 q 85 204 82 182 q 142 203 97 185 q 252 260 188 221 q 392 356 317 300 q 542 468 468 411 q 365 547 451 508 q 210 618 279 586 q 57 686 129 654 q 64 720 56 701 q 87 756 72 739 q 119 790 101 774 q 157 814 138 806 q 187 763 149 794 q 290 690 225 731 q 440 603 356 649 q 608 511 524 557 z "},"":{"ha":967,"x_min":129,"x_max":851,"o":"m 818 863 q 842 847 833 863 q 849 814 851 832 q 834 813 842 813 q 819 813 826 813 q 686 805 753 808 q 553 799 619 801 q 542 551 546 683 q 533 290 538 419 q 523 41 529 160 q 506 -167 517 -78 q 491 -204 503 -186 q 456 -219 479 -222 q 455 -201 456 -210 q 454 -183 454 -192 q 447 22 451 -96 q 436 270 442 139 q 424 537 431 401 q 413 794 418 672 q 301 792 351 792 q 213 790 250 792 q 133 789 168 789 q 130 812 129 796 q 134 844 131 828 q 142 874 138 861 q 151 889 147 888 q 177 878 156 882 q 233 872 199 874 q 311 869 267 869 q 408 868 356 868 q 401 1015 404 947 q 396 1132 399 1083 q 392 1238 393 1189 q 444 1248 413 1249 q 512 1237 476 1247 q 582 1208 547 1226 q 642 1168 617 1190 q 612 1145 625 1168 q 588 1083 599 1122 q 571 988 578 1043 q 558 868 564 933 q 686 866 621 867 q 818 863 751 865 z "},"":{"ha":976,"x_min":139,"x_max":864,"o":"m 831 263 q 855 247 846 261 q 861 214 864 232 l 832 211 q 673 203 753 206 q 517 197 593 200 q 507 0 513 93 q 492 -167 501 -93 q 477 -204 489 -186 q 442 -219 465 -222 q 441 -201 442 -210 q 440 -183 440 -192 q 434 -12 438 -108 q 425 194 431 85 q 313 192 364 192 q 225 190 263 192 q 146 189 181 189 q 142 212 142 196 q 147 244 143 228 q 155 274 150 261 q 164 289 160 286 q 245 272 174 275 q 422 268 317 269 l 400 761 q 215 757 288 757 l 143 757 q 140 780 139 764 q 144 813 140 796 q 152 842 147 829 q 161 857 157 854 q 235 841 171 844 q 397 836 300 838 q 390 995 393 922 q 383 1122 386 1068 q 378 1238 379 1186 q 431 1248 399 1249 q 498 1237 463 1247 q 568 1208 533 1226 q 628 1168 603 1190 q 596 1143 610 1168 q 572 1074 582 1118 q 554 969 561 1031 q 542 836 547 908 q 683 835 611 836 q 828 831 754 833 q 852 815 843 829 q 858 782 861 800 l 829 779 q 683 772 757 775 q 538 765 608 768 q 527 522 531 650 q 519 268 524 394 q 672 267 593 268 q 831 263 751 265 z "},"":{"ha":1157,"x_min":56,"x_max":1003,"o":"m 608 511 q 612 499 610 508 q 615 477 614 489 q 612 454 615 465 q 600 436 608 443 q 487 345 544 394 q 371 244 429 296 q 253 140 313 192 q 136 43 194 89 q 113 68 124 50 q 94 109 101 86 q 85 157 88 132 q 85 204 82 182 q 142 203 97 185 q 252 260 188 221 q 392 356 317 300 q 542 468 468 411 q 365 547 451 508 q 210 618 279 586 q 57 686 129 654 q 64 720 56 701 q 87 756 72 739 q 119 790 101 774 q 157 814 138 806 q 187 763 149 794 q 290 690 225 731 q 440 603 356 649 q 608 511 524 557 m 996 511 q 999 499 997 508 q 1002 477 1001 489 q 999 454 1003 465 q 988 436 996 443 q 874 345 932 394 q 758 244 817 296 q 641 140 700 192 q 524 43 582 89 q 500 68 511 50 q 482 109 489 86 q 472 157 475 132 q 472 204 469 182 q 530 203 485 185 q 640 260 575 221 q 780 356 704 300 q 929 468 856 411 q 753 547 839 508 q 597 618 667 586 q 444 686 517 654 q 451 720 443 701 q 474 756 460 739 q 507 790 489 774 q 544 814 525 806 q 574 763 536 794 q 678 690 613 731 q 827 603 743 649 q 996 511 911 557 z "},"":{"ha":1118,"x_min":63,"x_max":1010,"o":"m 457 511 q 626 603 542 557 q 775 690 710 649 q 878 763 840 731 q 908 814 917 794 q 945 790 926 806 q 978 756 964 774 q 1001 720 993 739 q 1008 686 1010 701 q 856 618 936 654 q 699 547 786 586 q 524 468 613 508 q 673 356 597 411 q 813 260 749 300 q 923 203 878 221 q 981 204 968 185 q 981 157 983 182 q 971 109 978 132 q 953 68 964 86 q 929 43 942 50 q 812 140 871 89 q 694 244 753 192 q 578 345 636 296 q 465 436 521 394 q 453 454 457 443 q 451 477 450 465 q 453 499 451 489 q 457 511 456 508 m 69 511 q 238 603 154 557 q 388 690 322 649 q 491 763 453 731 q 521 814 529 794 q 558 790 539 806 q 591 756 576 774 q 614 720 606 739 q 621 686 622 701 q 468 618 549 654 q 312 547 399 586 q 136 468 225 508 q 285 356 210 411 q 426 260 361 300 q 535 203 490 221 q 593 204 581 185 q 593 157 596 182 q 583 109 590 132 q 565 68 576 86 q 542 43 554 50 q 424 140 483 89 q 307 244 365 192 q 191 345 249 296 q 78 436 133 394 q 66 454 69 443 q 63 477 63 465 q 66 499 64 489 q 69 511 68 508 z "},"":{"ha":1157,"x_min":165,"x_max":888,"o":"m 854 546 q 878 531 869 546 q 885 497 888 515 q 870 496 878 496 q 856 496 863 496 q 617 484 738 489 q 396 476 496 479 q 169 472 279 472 q 166 495 165 479 q 170 528 167 511 q 178 558 174 544 q 188 572 183 571 q 259 556 197 560 q 415 552 321 553 q 624 551 508 551 q 854 546 739 551 z "},"":{"ha":1261,"x_min":165,"x_max":1093,"o":"m 1060 546 q 1084 531 1075 546 q 1090 497 1093 515 q 1076 496 1083 496 q 1061 496 1068 496 q 933 489 1003 492 q 790 483 864 486 q 642 479 717 481 q 499 476 567 478 q 169 472 338 472 q 166 495 165 479 q 170 528 167 511 q 178 558 174 544 q 188 572 183 571 q 239 560 193 564 q 356 554 285 556 q 517 552 428 553 q 702 551 607 551 q 890 550 797 551 q 1060 546 982 549 z "},"":{"ha":1054,"x_min":90,"x_max":1015,"o":"m 704 1207 q 620 1158 660 1204 q 545 1035 581 1111 q 479 858 510 958 q 422 649 449 758 q 506 642 463 646 q 593 632 549 638 q 610 618 604 631 q 614 592 617 606 l 592 592 l 410 596 q 401 563 406 579 q 394 531 397 547 q 486 522 439 526 q 583 511 533 518 q 601 498 594 510 q 606 471 608 486 q 594 471 600 471 q 583 472 589 471 q 481 474 531 472 q 383 476 431 475 q 336 238 357 353 q 300 33 315 122 q 399 -7 343 17 q 515 -50 454 -31 q 638 -80 575 -69 q 759 -82 701 -90 q 866 -42 817 -74 q 950 57 915 -10 q 960 76 957 69 q 968 83 964 82 q 979 80 972 83 q 999 71 986 76 q 912 -63 964 -12 q 798 -139 860 -114 q 667 -169 736 -164 q 529 -167 599 -174 q 394 -148 460 -161 q 271 -124 328 -135 l 107 -114 q 129 -10 115 -74 q 160 131 143 53 q 200 299 178 210 q 249 482 222 389 q 184 485 213 483 q 136 488 156 486 q 94 490 113 489 q 92 508 90 496 q 97 533 93 521 q 106 556 101 546 q 114 567 111 565 q 161 551 121 557 q 265 540 201 546 q 275 571 271 556 q 283 601 279 586 q 210 604 243 603 q 153 607 176 606 q 103 610 125 608 q 101 628 99 615 q 106 654 103 642 q 115 676 110 667 q 122 688 119 686 q 178 671 131 676 q 303 658 226 665 q 383 875 340 771 q 475 1060 426 979 q 578 1190 524 1140 q 694 1244 633 1240 q 789 1227 744 1249 q 870 1171 833 1206 q 936 1093 907 1136 q 986 1011 965 1050 q 1011 949 1007 969 q 1003 916 1015 929 q 964 890 992 903 q 894 851 936 878 q 888 915 892 878 q 874 992 883 951 q 851 1073 865 1033 q 817 1143 838 1113 q 769 1192 797 1174 q 704 1207 742 1210 z "},"":{"ha":1013,"x_min":-1,"x_max":940,"o":"m 700 1269 q 828 1261 779 1285 q 903 1193 876 1238 q 935 1091 929 1149 q 933 979 940 1033 q 908 881 925 925 q 868 822 890 838 q 835 843 856 831 q 795 869 814 856 q 766 894 776 882 q 764 914 756 906 q 868 1048 843 983 q 878 1158 893 1113 q 817 1224 864 1204 q 706 1226 769 1244 q 604 1163 654 1211 q 509 1044 554 1115 q 424 885 464 974 q 354 700 385 796 q 426 694 390 697 q 501 685 463 690 q 519 671 513 683 q 522 644 525 658 l 500 644 l 339 649 l 321 582 q 492 565 401 575 q 510 551 503 564 q 514 525 517 539 l 492 525 l 310 529 q 276 294 283 408 q 285 92 268 181 q 345 -49 301 4 q 465 -100 389 -101 q 556 -77 517 -99 q 622 -22 594 -56 q 663 57 649 13 q 680 148 678 101 q 672 241 682 194 q 639 326 661 288 q 678 348 653 338 q 728 365 703 358 q 774 369 754 371 q 799 356 794 368 q 815 266 813 315 q 806 165 817 217 q 771 63 796 113 q 705 -30 746 13 q 607 -102 664 -72 q 474 -143 550 -132 q 286 -108 360 -160 q 175 42 213 -56 q 134 268 138 139 q 157 535 131 397 q 92 538 121 536 q 44 540 64 539 q 3 543 21 542 q 0 562 -1 549 q 6 588 1 575 q 15 610 10 600 q 22 621 19 619 q 69 605 29 610 q 171 594 108 600 q 178 624 174 610 q 186 654 182 639 q 115 657 146 656 q 60 660 83 658 q 11 663 33 661 q 9 681 7 668 q 15 707 11 694 q 23 729 18 719 q 31 740 28 739 q 85 724 39 729 q 204 713 131 718 q 288 912 239 817 q 401 1082 338 1007 q 539 1207 464 1157 q 700 1269 614 1257 z "},"":{"ha":949,"x_min":122,"x_max":794,"o":"m 589 1172 q 675 1159 635 1165 q 743 1141 715 1153 q 783 1109 771 1129 q 783 1056 794 1089 q 750 946 771 1021 q 701 772 729 871 q 640 558 674 674 q 567 328 606 443 q 641 322 603 325 q 719 313 679 318 q 737 299 731 311 q 740 272 743 286 l 718 272 l 549 276 q 537 243 542 260 q 525 211 532 226 l 711 193 q 728 178 722 190 q 732 153 735 167 l 710 153 q 605 154 657 153 q 504 157 553 156 q 429 -11 468 67 q 350 -145 390 -89 q 267 -231 310 -201 q 179 -254 224 -261 q 132 -237 153 -250 q 145 -216 142 -221 q 152 -212 149 -211 q 163 -217 156 -212 q 185 -224 169 -221 q 230 -196 207 -226 q 276 -112 253 -165 q 324 13 300 -58 q 368 163 347 85 q 308 165 335 164 q 261 168 281 167 q 221 171 238 169 q 218 189 217 176 q 224 214 219 201 q 233 237 228 226 q 240 249 238 247 q 285 232 247 238 q 385 222 324 226 q 393 252 389 238 q 400 282 397 267 q 331 285 361 283 q 276 288 300 286 q 229 290 250 289 q 228 309 226 296 q 233 335 229 322 q 242 357 238 347 q 249 368 246 367 q 301 351 257 357 q 415 340 344 346 q 440 444 428 394 q 461 538 451 494 q 478 617 471 582 q 490 675 486 653 q 442 585 468 629 q 388 507 417 540 q 326 455 358 474 q 258 442 293 436 q 172 503 201 450 q 133 634 143 557 q 128 802 122 711 q 147 976 133 893 q 177 1126 160 1060 q 208 1219 194 1192 q 294 1214 251 1217 q 367 1203 336 1211 q 415 1177 399 1194 q 422 1126 431 1160 q 410 1082 421 1115 q 384 1001 400 1049 q 350 897 368 954 q 314 783 332 840 q 282 672 296 726 q 260 576 268 618 q 255 508 253 535 q 272 481 257 482 q 321 497 296 478 q 370 547 346 515 q 417 619 394 579 q 460 701 440 660 q 496 781 479 743 q 524 844 513 818 q 562 1041 546 954 q 589 1172 578 1128 z "},"":{"ha":806,"x_min":0,"x_max":715,"o":"m 597 1336 q 637 1332 621 1338 q 665 1313 653 1326 q 690 1276 678 1299 q 715 1222 701 1253 q 662 1181 693 1226 q 594 1056 631 1136 q 610 968 608 1019 q 607 863 613 917 q 590 761 601 810 q 568 683 579 713 q 549 656 561 664 q 522 649 536 649 q 496 653 508 649 q 476 663 483 658 q 491 691 481 669 q 514 742 501 713 q 538 804 526 771 q 556 868 550 838 q 563 923 563 899 q 551 958 563 947 q 486 798 519 885 q 418 619 453 711 q 347 431 383 526 q 276 243 311 335 q 392 279 336 244 q 496 365 447 314 q 585 474 544 415 q 653 582 625 532 l 678 583 q 633 490 658 542 q 575 385 607 439 q 506 281 543 332 q 427 190 469 231 q 337 125 385 150 q 236 99 289 100 q 219 100 225 99 q 140 -83 178 0 q 67 -224 101 -167 q 38 -251 56 -240 q 0 -250 19 -262 l 13 -217 q 72 -67 38 -154 q 146 125 106 21 q 85 211 104 154 q 67 342 67 268 q 86 499 68 415 q 135 667 104 583 q 209 830 167 751 q 301 969 251 908 q 404 1067 350 1029 q 514 1110 458 1106 q 548 1203 533 1161 q 574 1275 563 1246 q 597 1336 586 1310 m 444 925 q 377 844 410 893 q 315 735 344 794 q 263 613 286 676 q 224 489 239 549 q 204 378 208 429 q 210 293 200 326 q 269 454 239 372 q 330 617 300 536 q 389 776 360 697 q 444 925 418 854 z "},"":{"ha":1114,"x_min":-1,"x_max":1000,"o":"m 757 1215 q 897 1147 843 1206 q 975 997 950 1088 q 998 793 1000 906 q 971 563 996 681 q 899 334 946 446 q 787 133 851 222 q 641 -15 722 43 q 465 -79 560 -72 q 363 -58 400 -85 q 308 16 325 -31 q 293 123 292 63 q 310 244 294 183 q 331 265 314 258 q 368 269 349 271 q 402 256 388 267 q 413 229 417 246 q 390 140 403 188 q 376 53 378 93 q 389 -10 374 14 q 451 -32 404 -35 q 554 32 503 -22 q 652 169 606 86 q 738 353 699 251 q 805 563 778 456 q 845 774 832 671 q 853 962 858 878 q 821 1103 847 1046 q 742 1175 794 1161 q 662 1144 704 1182 q 575 1038 619 1107 q 485 876 531 969 q 397 676 440 782 l 518 664 q 536 649 529 661 q 540 622 543 638 q 528 624 533 624 q 518 624 524 624 q 447 624 482 624 q 378 626 411 625 q 365 593 371 610 q 351 558 358 576 q 428 552 389 556 q 510 543 468 549 q 527 529 521 542 q 531 503 533 517 l 508 503 l 332 507 q 256 293 292 399 q 192 98 221 188 q 144 -58 164 8 q 117 -157 125 -125 q 90 -193 110 -182 q 51 -207 71 -204 q 15 -205 31 -210 q 0 -192 -1 -200 q 18 -42 6 -125 q 49 132 31 40 q 93 321 68 224 q 150 514 118 418 q 96 517 119 515 q 56 519 72 518 q 19 521 36 521 q 17 540 15 526 q 23 565 19 553 q 31 588 26 578 q 39 599 36 597 q 80 584 46 589 q 169 574 114 579 q 180 603 175 589 q 192 633 185 618 q 124 636 154 635 q 72 639 94 638 q 28 642 47 640 q 26 660 25 647 q 32 685 28 672 q 41 708 36 697 q 49 719 46 718 q 99 703 56 708 q 214 690 143 697 q 318 908 261 807 q 442 1082 375 1010 q 588 1191 510 1154 q 757 1215 667 1228 z "},"":{"ha":1031,"x_min":-3,"x_max":944,"o":"m 622 668 q 735 633 692 665 q 798 549 779 601 q 811 431 817 497 q 778 294 806 364 q 703 154 751 224 q 586 27 654 85 q 431 -72 518 -31 q 239 -126 343 -112 q 244 -112 236 -115 q 442 -21 354 -85 q 588 124 529 43 q 672 290 646 204 q 689 446 699 375 q 630 563 679 517 q 488 608 581 608 q 472 617 479 608 q 464 638 465 626 q 470 659 463 649 q 497 674 478 669 q 612 726 556 685 q 713 824 668 768 q 789 940 758 879 q 827 1052 819 1001 q 815 1133 835 1103 q 743 1160 796 1164 q 626 1104 682 1154 q 518 973 569 1054 q 421 788 467 892 q 335 569 375 683 q 263 340 296 456 q 203 122 229 225 q 160 -65 178 18 q 132 -199 142 -149 q 103 -263 125 -231 q 56 -312 81 -296 q 15 -319 32 -328 q 0 -260 -3 -310 q 20 -74 6 -179 q 59 147 35 31 q 119 384 83 263 q 203 622 156 506 q 309 842 250 738 q 441 1026 368 946 q 600 1158 514 1107 q 786 1219 686 1210 q 908 1198 872 1228 q 944 1115 944 1168 q 913 994 943 1061 q 835 863 882 928 q 732 746 789 799 q 622 668 675 693 z "},"?":{"ha":889,"x_min":150,"x_max":764,"o":"m 608 1239 q 677 1202 646 1226 q 728 1141 708 1178 q 756 1057 749 1104 q 756 953 764 1010 q 713 801 742 860 q 644 701 683 743 q 556 622 604 658 q 459 532 508 585 q 360 401 410 479 q 267 200 310 324 q 259 203 261 203 q 258 208 257 203 q 317 413 285 331 q 385 553 350 494 q 455 656 419 613 q 521 746 490 700 q 575 847 551 792 q 611 985 599 903 q 601 1131 625 1074 q 536 1206 576 1188 q 471 1210 497 1224 q 426 1164 444 1196 q 396 1088 407 1132 q 376 998 385 1043 q 361 914 368 953 q 347 854 354 875 q 272 871 304 867 q 219 883 239 875 q 195 908 200 892 q 204 960 190 924 q 267 1078 228 1019 q 359 1181 307 1138 q 474 1242 411 1224 q 608 1239 538 1261 m 221 154 q 272 132 251 154 q 293 78 293 110 q 272 24 293 46 q 221 1 251 1 q 171 24 192 1 q 150 78 150 46 q 171 132 150 110 q 221 154 192 154 z "},"":{"ha":889,"x_min":147,"x_max":761,"o":"m 303 14 q 234 51 265 26 q 183 112 203 75 q 155 196 163 149 q 156 300 147 243 q 185 420 165 371 q 230 506 204 469 q 288 572 256 543 q 355 631 319 601 q 427 696 390 661 q 501 779 464 731 q 575 894 539 828 q 644 1053 611 960 q 652 1050 650 1050 q 653 1044 654 1050 q 594 840 626 922 q 526 699 561 758 q 456 597 492 640 q 390 507 421 553 q 336 406 360 461 q 300 268 313 350 q 310 122 286 179 q 375 47 335 65 q 440 43 413 29 q 485 89 467 57 q 515 165 504 121 q 535 255 526 210 q 549 339 543 300 q 564 399 556 378 q 640 382 607 386 q 692 369 672 378 q 716 344 711 361 q 707 293 721 328 q 644 174 683 233 q 552 72 604 115 q 437 10 500 29 q 303 14 374 -8 m 690 1099 q 639 1121 660 1099 q 618 1175 618 1143 q 639 1229 618 1207 q 690 1251 660 1251 q 740 1229 719 1251 q 761 1175 761 1207 q 740 1121 761 1143 q 690 1099 719 1099 z "},"":{"ha":732,"x_min":-108,"x_max":769,"o":"m 769 476 q 721 391 749 440 q 660 289 693 342 q 589 184 626 236 q 509 91 551 132 q 422 25 467 50 q 329 0 376 0 q 228 28 264 0 q 178 106 192 57 q 103 33 143 65 q 18 0 63 1 q -66 26 -37 -4 q -101 109 -94 57 q -96 228 -108 161 q -55 367 -83 296 q 14 508 -26 439 q 103 631 54 576 q 208 717 153 685 q 318 750 263 750 q 383 727 358 749 q 413 672 407 706 q 501 727 456 707 q 590 746 546 747 q 668 724 643 744 q 693 673 693 703 q 672 608 693 643 q 615 544 651 574 q 527 494 578 514 q 417 475 476 475 q 394 433 410 460 q 365 376 379 407 q 338 314 350 346 q 327 256 326 282 q 343 214 328 231 q 397 197 358 197 q 566 263 488 196 q 732 475 644 331 l 769 476 m 176 263 q 191 363 176 315 q 231 454 206 410 q 291 541 257 499 q 364 626 325 583 q 326 648 350 651 q 274 620 303 644 q 213 557 244 596 q 152 472 181 518 q 101 379 124 426 q 69 292 79 332 q 63 226 58 253 q 90 194 67 200 q 117 200 103 192 q 143 221 131 208 q 165 246 156 233 q 176 263 174 258 m 589 631 q 547 618 569 632 q 501 584 524 604 q 460 542 479 564 q 431 507 440 521 q 515 528 476 508 q 576 569 553 547 q 605 609 600 590 q 589 631 610 628 z "},"":{"ha":956,"x_min":-160,"x_max":993,"o":"m 993 476 q 944 391 972 440 q 883 289 917 342 q 813 184 850 236 q 733 91 775 132 q 645 25 690 50 q 553 0 600 0 q 467 19 500 0 q 414 72 433 39 q 343 19 378 39 q 276 0 308 0 q 216 17 238 0 q 186 65 194 35 q 183 135 178 94 q 203 221 188 175 q 137 138 171 178 q 69 67 103 97 q 2 18 35 36 q -61 0 -31 0 q -137 32 -115 0 q -156 117 -160 64 q -129 237 -153 169 q -67 375 -106 304 q 19 513 -29 446 q 118 633 67 581 q 219 718 169 686 q 311 750 269 750 q 367 729 346 750 q 399 678 388 708 q 415 613 411 647 q 419 551 419 578 q 389 551 404 524 q 339 633 382 633 q 263 602 306 633 q 180 523 221 571 q 103 419 139 475 q 47 314 68 363 q 24 233 26 265 q 49 199 22 200 q 103 217 74 197 q 165 268 133 238 q 226 335 196 299 q 278 403 256 372 q 316 456 301 435 q 331 476 331 476 q 412 512 375 517 q 481 475 449 507 q 549 581 511 531 q 631 667 588 631 q 720 726 674 704 q 814 746 767 747 q 892 724 868 744 q 917 672 917 703 q 894 605 917 640 q 834 540 872 569 q 744 492 796 511 q 631 475 692 472 q 578 380 599 429 q 552 290 557 331 q 563 224 547 250 q 621 197 578 197 q 790 263 711 196 q 956 475 868 331 l 993 476 m 813 631 q 770 618 793 632 q 725 584 747 604 q 683 542 703 564 q 654 507 664 521 q 738 528 700 508 q 800 569 776 547 q 828 609 824 590 q 813 631 833 628 m 392 199 q 419 333 396 261 q 479 472 442 404 q 417 378 444 426 q 376 291 390 331 q 364 226 361 251 q 392 199 367 200 z "},"\"":{"ha":799,"x_min":169,"x_max":678,"o":"m 169 1183 q 218 1201 189 1194 q 279 1206 247 1207 q 342 1194 311 1204 q 397 1164 374 1185 q 388 1151 394 1154 q 370 1140 381 1147 q 347 1116 360 1132 q 319 1065 333 1100 q 290 971 304 1031 q 263 818 275 911 q 249 783 260 800 q 217 769 238 765 q 215 787 215 778 q 215 804 215 796 q 210 931 213 876 q 203 1025 207 985 q 197 1092 200 1065 q 189 1138 193 1119 q 169 1183 181 1179 m 450 1183 q 499 1201 469 1194 q 560 1206 528 1207 q 623 1194 592 1204 q 678 1164 654 1185 q 668 1151 675 1154 q 651 1140 661 1147 q 627 1116 640 1132 q 599 1065 614 1100 q 570 971 585 1031 q 543 818 556 911 q 529 783 540 800 q 497 769 518 765 q 496 787 496 778 q 496 804 496 796 q 490 931 493 876 q 484 1025 488 985 q 477 1092 481 1065 q 469 1138 474 1119 q 450 1183 461 1179 z "},"":{"ha":511,"x_min":161,"x_max":335,"o":"m 261 571 q 315 547 299 571 q 333 492 332 524 q 321 422 335 457 q 283 366 307 386 q 228 348 260 346 q 161 389 196 350 q 218 406 201 400 q 235 424 235 411 q 227 436 235 429 q 210 452 219 443 q 194 473 201 461 q 188 500 188 485 q 211 549 189 526 q 261 571 233 571 z "},"":{"ha":483,"x_min":161,"x_max":335,"o":"m 261 944 q 315 921 299 944 q 333 865 332 897 q 321 795 335 831 q 283 740 307 760 q 228 722 260 719 q 161 763 196 724 q 218 779 201 774 q 235 797 235 785 q 227 810 235 803 q 210 826 219 817 q 194 847 201 835 q 188 874 188 858 q 211 922 189 900 q 261 944 233 944 z "},"":{"ha":476,"x_min":163,"x_max":336,"o":"m 236 726 q 182 750 199 726 q 164 806 165 774 q 176 876 163 840 q 214 931 190 911 q 269 949 238 951 q 336 908 300 947 q 279 892 296 897 q 263 874 263 886 q 270 861 263 868 q 287 845 278 854 q 303 824 296 836 q 310 797 310 813 q 286 749 308 771 q 236 726 264 726 z "},"":{"ha":656,"x_min":163,"x_max":518,"o":"m 236 726 q 182 750 199 726 q 164 806 165 774 q 176 876 163 840 q 214 931 190 911 q 269 949 238 951 q 336 908 300 947 q 279 892 296 897 q 263 874 263 886 q 270 861 263 868 q 287 845 278 854 q 303 824 296 836 q 310 797 310 813 q 286 749 308 771 q 236 726 264 726 m 418 726 q 364 750 381 726 q 346 806 347 774 q 358 876 344 840 q 396 931 372 911 q 451 949 419 951 q 518 908 482 947 q 461 892 478 897 q 444 874 444 886 q 452 861 444 868 q 469 845 460 854 q 485 824 478 836 q 492 797 492 813 q 468 749 490 771 q 418 726 446 726 z "},"":{"ha":638,"x_min":161,"x_max":517,"o":"m 443 726 q 393 749 415 726 q 369 797 371 771 q 376 824 369 813 q 392 845 383 836 q 409 861 401 854 q 417 874 417 868 q 400 892 417 886 q 343 908 383 897 q 410 949 378 947 q 465 931 442 951 q 503 876 489 911 q 515 806 517 840 q 497 750 514 774 q 443 726 481 726 m 261 726 q 211 749 233 726 q 188 797 189 771 q 194 824 188 813 q 210 845 201 836 q 227 861 219 854 q 235 874 235 868 q 218 892 235 886 q 161 908 201 897 q 228 949 196 947 q 283 931 260 951 q 321 876 307 911 q 333 806 335 840 q 315 750 332 774 q 261 726 299 726 z "},"":{"ha":1826,"x_min":74,"x_max":2001,"o":"m 1843 1271 q 1935 1243 1897 1271 q 1987 1174 1972 1215 q 1992 1083 2001 1132 q 1943 990 1982 1033 q 1834 914 1904 946 q 1658 875 1764 882 q 1661 780 1647 824 q 1711 715 1675 736 q 1728 705 1724 708 q 1733 695 1733 701 q 1728 676 1733 689 q 1717 638 1724 664 q 1620 622 1668 646 q 1528 553 1572 597 q 1445 449 1483 508 q 1378 329 1407 390 l 1361 290 q 1328 197 1340 242 q 1316 117 1317 151 q 1326 62 1315 82 q 1361 42 1336 42 q 1494 86 1428 42 q 1622 197 1561 131 q 1734 338 1682 263 q 1826 476 1786 414 l 1864 476 q 1806 358 1839 425 q 1733 219 1774 290 q 1646 80 1693 149 q 1545 -43 1599 11 q 1432 -130 1492 -97 q 1306 -162 1372 -162 q 1195 -125 1235 -162 q 1140 -25 1156 -87 q 958 -142 1057 -104 q 749 -162 860 -181 q 547 -79 618 -142 q 450 71 475 -17 q 440 265 425 158 q 500 481 456 372 q 610 696 544 590 q 753 887 676 801 q 910 1031 829 972 q 1064 1104 990 1089 q 1078 1132 1068 1121 q 915 1079 993 1121 q 761 981 836 1038 q 615 860 686 924 q 474 742 544 796 q 332 653 403 689 q 188 618 261 618 q 93 663 113 618 q 101 800 74 708 q 238 778 172 772 q 369 813 304 783 q 497 888 433 842 q 624 986 560 935 q 755 1088 689 1038 q 891 1178 821 1139 q 1037 1238 961 1217 q 1194 1249 1113 1258 q 1299 1217 1253 1242 q 1378 1154 1344 1193 q 1433 1064 1411 1115 q 1467 953 1456 1013 q 1492 948 1479 950 q 1517 943 1504 946 q 1558 1063 1528 1004 q 1631 1169 1588 1122 q 1728 1243 1674 1215 q 1843 1271 1782 1271 m 792 43 q 946 74 872 36 q 1082 181 1019 113 q 1195 338 1144 249 q 1280 525 1246 428 q 1329 719 1314 622 q 1339 899 1344 817 q 1301 909 1319 904 q 1264 921 1282 914 q 1237 844 1256 883 q 1194 770 1218 806 q 1145 704 1171 735 q 1097 653 1119 674 q 1049 627 1072 628 q 1007 640 1026 626 q 974 676 988 653 q 954 725 960 700 q 1009 765 972 740 q 1084 819 1046 789 q 1153 883 1122 850 q 1190 950 1183 917 q 1142 979 1164 964 q 1101 1013 1119 994 l 1093 1021 q 995 953 1049 1003 q 888 833 942 903 q 783 678 833 763 q 696 509 733 594 q 639 342 658 424 q 627 197 619 261 q 674 90 635 132 q 792 43 713 49 m 1836 1118 q 1790 1103 1813 1118 q 1747 1064 1767 1089 q 1708 1007 1726 1039 q 1678 940 1690 975 q 1806 967 1758 950 q 1877 1003 1854 983 q 1903 1044 1900 1024 q 1896 1080 1906 1064 q 1869 1107 1886 1096 q 1836 1118 1853 1118 m 1478 876 q 1469 661 1486 774 q 1522 687 1496 676 q 1576 704 1549 697 q 1526 782 1542 738 q 1510 875 1511 826 q 1493 876 1501 875 q 1478 876 1485 876 m 1311 1025 q 1271 1087 1296 1061 q 1211 1124 1246 1113 q 1311 1025 1254 1064 z "},"":{"ha":1900,"x_min":-3,"x_max":2075,"o":"m 1917 1271 q 2008 1243 1971 1271 q 2060 1174 2046 1215 q 2065 1083 2075 1132 q 2017 990 2056 1033 q 1908 914 1978 946 q 1732 875 1838 882 q 1735 780 1721 824 q 1785 715 1749 736 q 1802 705 1797 708 q 1807 695 1807 701 q 1802 676 1807 689 q 1790 638 1797 664 q 1699 624 1744 646 q 1612 563 1654 603 q 1531 468 1569 522 q 1464 356 1493 414 q 1416 241 1435 297 q 1392 140 1397 185 q 1396 69 1386 96 q 1435 42 1406 42 q 1568 86 1501 42 q 1695 197 1635 131 q 1808 338 1756 263 q 1900 476 1860 414 l 1938 476 q 1880 358 1913 425 q 1807 219 1847 290 q 1719 80 1767 149 q 1619 -43 1672 11 q 1506 -130 1565 -97 q 1379 -162 1446 -162 q 1272 -140 1324 -162 q 1177 -79 1219 -118 q 1107 13 1135 -40 q 1071 130 1079 67 q 1078 263 1063 193 q 1142 404 1094 332 q 1042 397 1093 400 q 943 390 992 393 q 777 237 861 308 q 603 113 693 165 q 419 29 514 60 q 222 -1 324 -1 q 127 13 169 -1 q 56 55 85 28 q 12 123 26 82 q 0 217 -3 164 q 52 376 6 303 q 172 508 99 449 q 338 613 246 567 q 526 689 431 658 q 712 735 621 719 q 875 750 803 750 q 927 703 908 750 q 936 588 946 656 q 808 603 886 601 q 641 595 731 606 q 460 563 551 585 q 293 505 369 540 q 165 420 217 469 q 106 308 114 371 q 121 254 101 275 q 171 221 140 233 q 236 203 201 208 q 294 199 271 199 q 544 246 426 196 q 774 379 663 296 q 665 372 715 375 q 579 367 615 369 q 501 363 536 364 q 491 399 492 376 q 496 449 490 422 q 512 501 501 475 q 538 546 522 526 q 567 515 539 528 q 644 494 596 503 q 755 481 692 486 q 889 475 818 476 q 999 577 943 522 q 1112 690 1054 632 q 1227 806 1169 747 q 1343 918 1285 864 q 1249 958 1292 935 q 1175 1013 1206 982 q 1140 1112 1122 1065 q 1240 1204 1157 1158 q 1318 1081 1269 1133 q 1429 996 1367 1029 q 1590 1122 1510 1067 q 1750 1210 1671 1178 q 1828 1254 1786 1238 q 1917 1271 1871 1271 m 1168 468 q 1276 679 1214 572 q 1413 883 1339 786 q 1218 682 1314 789 q 1022 471 1122 575 l 1168 468 m 1583 857 q 1451 667 1515 769 q 1338 464 1388 565 l 1342 463 q 1478 617 1400 551 q 1650 704 1557 682 q 1602 774 1618 735 q 1583 857 1586 813 m 1942 1107 q 1879 1113 1915 1119 q 1807 1047 1840 1097 q 1751 940 1774 997 q 1903 976 1853 953 q 1968 1024 1953 999 q 1973 1072 1983 1049 q 1942 1107 1963 1094 z "},"":{"ha":651,"x_min":161,"x_max":522,"o":"m 261 571 q 315 547 299 571 q 333 492 332 524 q 321 422 335 457 q 283 366 307 386 q 228 348 260 346 q 161 389 196 350 q 218 406 201 400 q 235 424 235 411 q 227 436 235 429 q 210 452 219 443 q 194 473 201 461 q 188 500 188 485 q 211 549 189 526 q 261 571 233 571 m 449 571 q 503 547 486 571 q 521 492 519 524 q 508 422 522 457 q 471 366 494 386 q 415 348 447 346 q 349 389 383 350 q 406 406 389 400 q 422 424 422 411 q 415 436 422 429 q 398 452 407 443 q 382 473 389 461 q 375 500 375 485 q 399 549 376 526 q 449 571 421 571 z "}}}
